<svg width="40" height="40" viewBox="0 0 40 40" fill="none" xmlns="http://www.w3.org/2000/svg">
<path d="M33.3334 21.6668H6.66671C4.82671 21.6668 3.33337 23.1602 3.33337 25.0002V31.6668C3.33337 33.5068 4.82671 35.0002 6.66671 35.0002H33.3334C35.1734 35.0002 36.6667 33.5068 36.6667 31.6668V25.0002C36.6667 23.1602 35.1734 21.6668 33.3334 21.6668ZM26.6667 30.0002H23.3334V26.6668H26.6667V30.0002ZM33.3334 30.0002H30V26.6668H33.3334V30.0002ZM34.625 18.3335H35L32.2467 5.9435C31.9084 4.4185 30.555 3.3335 28.9934 3.3335H11.0067C9.44504 3.3335 8.09171 4.4185 7.75337 5.9435L5.00004 18.3335H5.22004H34.625Z" fill="white"/>
</svg>
