<svg width="40" height="40" viewBox="0 0 40 40" fill="none" xmlns="http://www.w3.org/2000/svg">
<path d="M31.6667 11.6668C31.6667 9.82683 30.1734 8.3335 28.3334 8.3335H26.6667V3.3335H23.3334V8.3335H21.6667H18.3334H16.6667V3.3335H13.3334V8.3335H11.6667C9.82671 8.3335 8.33337 9.82683 8.33337 11.6668V13.3335H3.33337V16.6668H8.33337V18.3335V21.6668V23.3335H3.33337V26.6668H8.33337V28.3335C8.33337 30.1735 9.82671 31.6668 11.6667 31.6668H13.3334V36.6668H16.6667V31.6668H18.3334H21.6667H23.3334V36.6668H26.6667V31.6668H28.3334C30.1734 31.6668 31.6667 30.1735 31.6667 28.3335V26.6668H36.6667V23.3335H31.6667V21.6668V18.3335V16.6668H36.6667V13.3335H31.6667V11.6668ZM25 25.0002H15V15.0002H25V25.0002Z" fill="white"/>
</svg>
