<svg width="28" height="29" viewBox="0 0 28 29" fill="none" xmlns="http://www.w3.org/2000/svg">
<path d="M26.8334 6.33333V7.5H25.6667V8.66667H24.5V9.83333H23.3334V11H22.1667V12.1667H21V13.3333H19.8334V14.5H18.6667V15.6667H17.5V16.8333H16.3334V18H15.1667V19.1667H14V20.3333H12.8334V21.5H11.6667V22.6667H9.33335V21.5H8.16669V20.3333H7.00002V19.1667H5.83335V18H4.66669V16.8333H3.50002V15.6667H2.33335V14.5H1.16669V13.3333H2.33335V12.1667H3.50002V11H4.66669V12.1667H5.83335V13.3333H7.00002V14.5H8.16669V15.6667H9.33335V16.8333H11.6667V15.6667H12.8334V14.5H14V13.3333H15.1667V12.1667H16.3334V11H17.5V9.83333H18.6667V8.66667H19.8334V7.5H21V6.33333H22.1667V5.16667H23.3334V4H24.5V5.16667H25.6667V6.33333H26.8334Z" fill="black"/>
</svg>
