<svg width="708" height="810" viewBox="0 0 708 810" fill="none" xmlns="http://www.w3.org/2000/svg">
<g clip-path="url(#clip0_423_2783)">
<path d="M288.6 409.8V606.6H387V360.6H337.8V409.8H288.6ZM190.2 262.2H534.6V311.4H583.8V705H190.2V655.8H141V311.4H190.2V262.2Z" fill="#411A3A" fill-opacity="0.7"/>
<path d="M27 447H189V717H351V933H-27V501H27V447Z" fill="#5E275A"/>
<path d="M646.8 347.2H463.2V653.2H279.6V898H708V408.4H646.8V347.2Z" fill="#7A347B"/>
<rect x="260" y="466" width="210" height="207" fill="#FDD836"/>
<path d="M329 642H379V592H429V492H379V542H329V492H279V592H329V642ZM79 392H529V442H579V692H479V742H229V842H79V392Z" fill="url(#paint0_linear_423_2783)"/>
<g filter="url(#filter0_d_423_2783)">
<path d="M277.56 297.5H319.56H361.56V308H382.56V343.28V350V385.28H340.56V392H298.56V385.28H256.56V350V343.28V308H277.56V297.5Z" fill="url(#paint1_linear_423_2783)"/>
</g>
<g filter="url(#filter1_d_423_2783)">
<path d="M292.68 314.51H319.56H346.44V321.23H359.88V343.809V348.11V370.689H333V374.99H306.12V370.689H279.24V348.11V343.809V321.23H292.68V314.51Z" fill="url(#paint2_linear_423_2783)"/>
</g>
<rect x="298.56" y="285.32" width="42" height="12.18" fill="url(#paint3_linear_423_2783)"/>
<rect width="42" height="42" transform="matrix(0 1 1 0 263.28 371)" fill="url(#paint4_linear_423_2783)"/>
<rect x="228" y="318.08" width="42" height="42" fill="url(#paint5_linear_423_2783)"/>
<rect x="260.76" y="329.84" width="21" height="21" fill="#7A347B"/>
<rect x="267.48" y="396.2" width="33.6" height="33.6" fill="url(#paint6_linear_423_2783)"/>
<rect width="42" height="42" transform="matrix(0 1 1 0 333.84 371)" fill="url(#paint7_linear_423_2783)"/>
<rect width="42" height="42" transform="matrix(-1 0 0 1 411.12 318.08)" fill="url(#paint8_linear_423_2783)"/>
<path d="M340.56 203H298.56V161H256.56V245H277.56V276.92H288.06V285.32H309.06H330.06H351.06V276.92H361.56V245H382.56V161H340.56V203Z" fill="url(#paint9_linear_423_2783)"/>
<rect x="291" y="237.02" width="5.04" height="5.04" fill="#FDD836"/>
<rect x="296.04" y="242.06" width="5.04" height="5.04" fill="#FDD836"/>
<rect x="296.04" y="247.1" width="5.04" height="5.04" fill="#FDD836"/>
<rect x="301.08" y="237.02" width="5.04" height="5.04" fill="#FDD836"/>
<rect x="301.08" y="242.06" width="5.04" height="5.04" fill="#FDD836"/>
<rect x="291" y="242.06" width="5.04" height="5.04" fill="#FDD836"/>
<rect x="333" y="237.02" width="5.04" height="5.04" fill="#FDD836"/>
<rect x="338.04" y="242.06" width="5.04" height="5.04" fill="#FDD836"/>
<rect x="338.04" y="247.1" width="5.04" height="5.04" fill="#FDD836"/>
<rect x="343.08" y="237.02" width="5.04" height="5.04" fill="#FDD836"/>
<rect x="343.08" y="242.06" width="5.04" height="5.04" fill="#FDD836"/>
<rect x="333" y="242.06" width="5.04" height="5.04" fill="#FDD836"/>
<rect x="294.36" y="261.8" width="4.2" height="4.2" fill="#FDD836"/>
<rect x="298.56" y="266" width="4.2" height="4.2" fill="#FDD836"/>
<rect x="302.76" y="266" width="4.2" height="4.2" fill="#FDD836"/>
<rect x="306.96" y="266" width="4.2" height="4.2" fill="#FDD836"/>
<rect x="311.16" y="266" width="4.2" height="4.2" fill="#FDD836"/>
<rect x="315.36" y="266" width="4.2" height="4.2" fill="#FDD836"/>
<rect x="319.56" y="266" width="4.2" height="4.2" fill="#FDD836"/>
<rect x="323.76" y="266" width="4.2" height="4.2" fill="#FDD836"/>
<rect x="327.96" y="266" width="4.2" height="4.2" fill="#FDD836"/>
<rect x="332.16" y="266" width="4.2" height="4.2" fill="#FDD836"/>
<rect x="336.36" y="266" width="4.2" height="4.2" fill="#FDD836"/>
<rect x="340.56" y="261.8" width="4.2" height="4.2" fill="#FDD836"/>
<rect x="357.36" y="329.84" width="21" height="21" fill="#7A347B"/>
<path d="M298.56 363.587L288.648 352.047V350.651H319.56V363.587H298.56Z" fill="url(#paint10_linear_423_2783)"/>
<path d="M340.56 363.587L350.472 352.047V350.651L319.56 350.651V363.587H340.56Z" fill="url(#paint11_linear_423_2783)"/>
<path d="M305.616 355.523C285.764 356.343 279.102 354.827 278.904 346.955V342.923H360.048V346.955C358.704 355.523 356.352 356.531 333.336 355.523L329.472 353.507H309.816L305.616 355.523Z" fill="url(#paint12_linear_423_2783)"/>
<g filter="url(#filter2_d_423_2783)">
<path d="M281.592 346.283C281.592 345.541 282.194 344.939 282.936 344.939H290.328C291.07 344.939 291.672 345.541 291.672 346.283V354.347C291.672 355.089 291.07 355.691 290.328 355.691H285.624C283.397 355.691 281.592 353.886 281.592 351.659V346.283Z" fill="#C1C1C1"/>
</g>
<g filter="url(#filter3_d_423_2783)">
<path d="M357.528 346.283C357.528 345.541 356.926 344.939 356.184 344.939H348.792C348.05 344.939 347.448 345.541 347.448 346.283V354.347C347.448 355.089 348.05 355.691 348.792 355.691H353.496C355.723 355.691 357.528 353.886 357.528 351.659V346.283Z" fill="#C1C1C1"/>
</g>
<g filter="url(#filter4_d_423_2783)">
<rect x="293.688" y="344.939" width="10.08" height="10.752" rx="1.344" fill="#C1C1C1"/>
</g>
<g filter="url(#filter5_d_423_2783)">
<rect x="334.68" y="344.939" width="10.08" height="10.752" rx="1.344" fill="#C1C1C1"/>
</g>
<rect x="276.216" y="332.843" width="86.688" height="12.768" rx="1.344" fill="white"/>
<rect x="338.04" y="396.2" width="33.6" height="33.6" fill="url(#paint13_linear_423_2783)"/>
<path d="M414.571 143.339H417.017V150.678H414.571V153.125H412.125V155.571H409.678V158.017H407.232V160.464H404.786V158.017H402.339V155.571H399.893V153.125H397.446V150.678H395V143.339H397.446V140.893H404.786V143.339H407.232V140.893H414.571V143.339Z" fill="#E4B8E9"/>
<path d="M437.285 159.235H439.287V165.24H437.285V167.242H435.284V169.243H433.282V171.245H431.28V173.247H429.279V171.245H427.277V169.243H425.276V167.242H423.274V165.24H421.272V159.235H423.274V157.234H429.279V159.235H431.28V157.234H437.285V159.235Z" fill="#E4B8E9"/>
<path d="M451.296 120.648H454.632V130.656H451.296V133.992H447.96V137.328H444.624V140.664H441.288V144H437.952V140.664H434.616V137.328H431.28V133.992H427.944V130.656H424.608V120.648H427.944V117.312H437.952V120.648H441.288V117.312H451.296V120.648Z" fill="#E4B8E9"/>
</g>
<defs>
<filter id="filter0_d_423_2783" x="220.56" y="273.5" width="198" height="166.5" filterUnits="userSpaceOnUse" color-interpolation-filters="sRGB">
<feFlood flood-opacity="0" result="BackgroundImageFix"/>
<feColorMatrix in="SourceAlpha" type="matrix" values="0 0 0 0 0 0 0 0 0 0 0 0 0 0 0 0 0 0 127 0" result="hardAlpha"/>
<feOffset dy="12"/>
<feGaussianBlur stdDeviation="18"/>
<feComposite in2="hardAlpha" operator="out"/>
<feColorMatrix type="matrix" values="0 0 0 0 0 0 0 0 0 0 0 0 0 0 0 0 0 0 0.6 0"/>
<feBlend mode="normal" in2="BackgroundImageFix" result="effect1_dropShadow_423_2783"/>
<feBlend mode="normal" in="SourceGraphic" in2="effect1_dropShadow_423_2783" result="shape"/>
</filter>
<filter id="filter1_d_423_2783" x="272.52" y="307.79" width="94.0799" height="73.92" filterUnits="userSpaceOnUse" color-interpolation-filters="sRGB">
<feFlood flood-opacity="0" result="BackgroundImageFix"/>
<feColorMatrix in="SourceAlpha" type="matrix" values="0 0 0 0 0 0 0 0 0 0 0 0 0 0 0 0 0 0 127 0" result="hardAlpha"/>
<feOffset/>
<feGaussianBlur stdDeviation="3.36"/>
<feComposite in2="hardAlpha" operator="out"/>
<feColorMatrix type="matrix" values="0 0 0 0 0.368627 0 0 0 0 0.152941 0 0 0 0 0.352941 0 0 0 0.5 0"/>
<feBlend mode="normal" in2="BackgroundImageFix" result="effect1_dropShadow_423_2783"/>
<feBlend mode="normal" in="SourceGraphic" in2="effect1_dropShadow_423_2783" result="shape"/>
</filter>
<filter id="filter2_d_423_2783" x="280.248" y="344.939" width="12.7681" height="13.44" filterUnits="userSpaceOnUse" color-interpolation-filters="sRGB">
<feFlood flood-opacity="0" result="BackgroundImageFix"/>
<feColorMatrix in="SourceAlpha" type="matrix" values="0 0 0 0 0 0 0 0 0 0 0 0 0 0 0 0 0 0 127 0" result="hardAlpha"/>
<feOffset dy="1.344"/>
<feGaussianBlur stdDeviation="0.672"/>
<feComposite in2="hardAlpha" operator="out"/>
<feColorMatrix type="matrix" values="0 0 0 0 0 0 0 0 0 0 0 0 0 0 0 0 0 0 0.25 0"/>
<feBlend mode="normal" in2="BackgroundImageFix" result="effect1_dropShadow_423_2783"/>
<feBlend mode="normal" in="SourceGraphic" in2="effect1_dropShadow_423_2783" result="shape"/>
</filter>
<filter id="filter3_d_423_2783" x="346.104" y="344.939" width="12.7681" height="13.44" filterUnits="userSpaceOnUse" color-interpolation-filters="sRGB">
<feFlood flood-opacity="0" result="BackgroundImageFix"/>
<feColorMatrix in="SourceAlpha" type="matrix" values="0 0 0 0 0 0 0 0 0 0 0 0 0 0 0 0 0 0 127 0" result="hardAlpha"/>
<feOffset dy="1.344"/>
<feGaussianBlur stdDeviation="0.672"/>
<feComposite in2="hardAlpha" operator="out"/>
<feColorMatrix type="matrix" values="0 0 0 0 0 0 0 0 0 0 0 0 0 0 0 0 0 0 0.25 0"/>
<feBlend mode="normal" in2="BackgroundImageFix" result="effect1_dropShadow_423_2783"/>
<feBlend mode="normal" in="SourceGraphic" in2="effect1_dropShadow_423_2783" result="shape"/>
</filter>
<filter id="filter4_d_423_2783" x="292.344" y="344.939" width="12.7681" height="13.44" filterUnits="userSpaceOnUse" color-interpolation-filters="sRGB">
<feFlood flood-opacity="0" result="BackgroundImageFix"/>
<feColorMatrix in="SourceAlpha" type="matrix" values="0 0 0 0 0 0 0 0 0 0 0 0 0 0 0 0 0 0 127 0" result="hardAlpha"/>
<feOffset dy="1.344"/>
<feGaussianBlur stdDeviation="0.672"/>
<feComposite in2="hardAlpha" operator="out"/>
<feColorMatrix type="matrix" values="0 0 0 0 0 0 0 0 0 0 0 0 0 0 0 0 0 0 0.25 0"/>
<feBlend mode="normal" in2="BackgroundImageFix" result="effect1_dropShadow_423_2783"/>
<feBlend mode="normal" in="SourceGraphic" in2="effect1_dropShadow_423_2783" result="shape"/>
</filter>
<filter id="filter5_d_423_2783" x="333.336" y="344.939" width="12.7681" height="13.44" filterUnits="userSpaceOnUse" color-interpolation-filters="sRGB">
<feFlood flood-opacity="0" result="BackgroundImageFix"/>
<feColorMatrix in="SourceAlpha" type="matrix" values="0 0 0 0 0 0 0 0 0 0 0 0 0 0 0 0 0 0 127 0" result="hardAlpha"/>
<feOffset dy="1.344"/>
<feGaussianBlur stdDeviation="0.672"/>
<feComposite in2="hardAlpha" operator="out"/>
<feColorMatrix type="matrix" values="0 0 0 0 0 0 0 0 0 0 0 0 0 0 0 0 0 0 0.25 0"/>
<feBlend mode="normal" in2="BackgroundImageFix" result="effect1_dropShadow_423_2783"/>
<feBlend mode="normal" in="SourceGraphic" in2="effect1_dropShadow_423_2783" result="shape"/>
</filter>
<linearGradient id="paint0_linear_423_2783" x1="354" y1="892" x2="354" y2="392" gradientUnits="userSpaceOnUse">
<stop stop-color="#D190DC"/>
<stop offset="1" stop-color="#B854C9"/>
</linearGradient>
<linearGradient id="paint1_linear_423_2783" x1="319.56" y1="297.5" x2="319.56" y2="392" gradientUnits="userSpaceOnUse">
<stop stop-color="#87389F"/>
<stop offset="0.296229" stop-color="#A751C2"/>
</linearGradient>
<linearGradient id="paint2_linear_423_2783" x1="319.56" y1="314.51" x2="319.56" y2="374.99" gradientUnits="userSpaceOnUse">
<stop stop-color="#87389F"/>
<stop offset="0.296229" stop-color="#A751C2"/>
</linearGradient>
<linearGradient id="paint3_linear_423_2783" x1="319.56" y1="285.32" x2="319.56" y2="297.5" gradientUnits="userSpaceOnUse">
<stop stop-color="#803597"/>
<stop offset="1" stop-color="#A751C2"/>
</linearGradient>
<linearGradient id="paint4_linear_423_2783" x1="42" y1="21" x2="0" y2="21" gradientUnits="userSpaceOnUse">
<stop stop-color="#5E275A"/>
<stop offset="1" stop-color="#81367C"/>
</linearGradient>
<linearGradient id="paint5_linear_423_2783" x1="270" y1="339.08" x2="228" y2="339.08" gradientUnits="userSpaceOnUse">
<stop stop-color="#5E275A"/>
<stop offset="1" stop-color="#81367C"/>
</linearGradient>
<linearGradient id="paint6_linear_423_2783" x1="284.28" y1="396.2" x2="284.28" y2="429.8" gradientUnits="userSpaceOnUse">
<stop stop-color="#411A3A"/>
<stop offset="1" stop-color="#58234E"/>
</linearGradient>
<linearGradient id="paint7_linear_423_2783" x1="42" y1="21" x2="0" y2="21" gradientUnits="userSpaceOnUse">
<stop stop-color="#5E275A"/>
<stop offset="1" stop-color="#81367C"/>
</linearGradient>
<linearGradient id="paint8_linear_423_2783" x1="42" y1="21" x2="0" y2="21" gradientUnits="userSpaceOnUse">
<stop stop-color="#5E275A"/>
<stop offset="1" stop-color="#81367C"/>
</linearGradient>
<linearGradient id="paint9_linear_423_2783" x1="319.56" y1="161" x2="319.56" y2="285.32" gradientUnits="userSpaceOnUse">
<stop stop-color="#8D3AA6"/>
<stop offset="0.517963" stop-color="#A751C2"/>
</linearGradient>
<linearGradient id="paint10_linear_423_2783" x1="319.56" y1="350.651" x2="319.56" y2="363.587" gradientUnits="userSpaceOnUse">
<stop stop-color="#B6B5B5"/>
<stop offset="0.653189" stop-color="white"/>
</linearGradient>
<linearGradient id="paint11_linear_423_2783" x1="319.56" y1="350.651" x2="319.56" y2="363.587" gradientUnits="userSpaceOnUse">
<stop stop-color="#B6B5B5"/>
<stop offset="0.653189" stop-color="white"/>
</linearGradient>
<linearGradient id="paint12_linear_423_2783" x1="319.476" y1="342.923" x2="319.476" y2="355.841" gradientUnits="userSpaceOnUse">
<stop stop-color="#999999"/>
<stop offset="0.689452" stop-color="white"/>
</linearGradient>
<linearGradient id="paint13_linear_423_2783" x1="354.84" y1="396.2" x2="354.84" y2="429.8" gradientUnits="userSpaceOnUse">
<stop stop-color="#411A3A"/>
<stop offset="1" stop-color="#58234E"/>
</linearGradient>
<clipPath id="clip0_423_2783">
<rect width="708" height="810" fill="white"/>
</clipPath>
</defs>
</svg>
