<svg width="1440" height="700" viewBox="0 0 1440 700" fill="none" xmlns="http://www.w3.org/2000/svg">
<g clip-path="url(#clip0_424_2852)">
<path d="M771.2 548.2H1164.8V991H1017.2V843.4H869.6V991H722V597.4H771.2V548.2ZM869.6 745V794.2H1017.2V745H869.6Z" fill="#411A3A" fill-opacity="0.7"/>
<path d="M1169 956V902H1115V470H1223V740H1277V632H1331V524H1385V632H1439V740H1493V470H1709V956H1439V848H1385V740H1331V848H1277V956H1169Z" fill="#5E275A"/>
<path d="M248.6 664.8V861.6H347V615.6H297.8V664.8H248.6ZM150.2 517.2H494.6V566.4H543.8V960H150.2V910.8H101V566.4H150.2V517.2Z" fill="#411A3A" fill-opacity="0.7"/>
<path d="M926.8 621.2H743.2V927.2H559.6V1172H988V682.4H926.8V621.2Z" fill="#7A347B"/>
<path d="M690.8 603.2H262.4V848H568.4V909.2H323.6V1031.6H568.4V1154H752V664.4H690.8V603.2Z" fill="#7A347B"/>
<path d="M320.8 491.2H-107.6V736H198.4V797.2H-46.4V919.6H198.4V1042H382V552.4H320.8V491.2Z" fill="url(#paint0_linear_424_2852)"/>
<path d="M320.8 491.2H-107.6V736H198.4V797.2H-46.4V919.6H198.4V1042H382V552.4H320.8V491.2Z" fill="url(#paint1_linear_424_2852)"/>
<path d="M647 512H809V782H971V998H593V566H647V512Z" fill="#5E275A"/>
<path d="M1366 657H988V711H934V873H1204V981H934V1089H988V1143H1420V711H1366V657Z" fill="#5E275A"/>
<path d="M53 592H215V862H377V1078H-1V646H53V592Z" fill="#5E275A"/>
<g filter="url(#filter0_d_424_2852)">
<path d="M173.56 396.5H215.56H257.56V407H278.56V442.28V449V484.28H236.56V491H194.56V484.28H152.56V449V442.28V407H173.56V396.5Z" fill="url(#paint2_linear_424_2852)"/>
</g>
<g filter="url(#filter1_d_424_2852)">
<path d="M188.68 413.51H215.56H242.44V420.23H255.88V442.809V447.11V469.689H229V473.99H202.12V469.689H175.24V447.11V442.809V420.23H188.68V413.51Z" fill="url(#paint3_linear_424_2852)"/>
</g>
<rect x="194.56" y="384.32" width="42" height="12.18" fill="url(#paint4_linear_424_2852)"/>
<rect width="42" height="42" transform="matrix(0 1 1 0 159.28 470)" fill="url(#paint5_linear_424_2852)"/>
<rect x="124" y="417.08" width="42" height="42" fill="url(#paint6_linear_424_2852)"/>
<rect x="156.76" y="428.84" width="21" height="21" fill="#7A347B"/>
<rect x="163.48" y="495.2" width="33.6" height="33.6" fill="url(#paint7_linear_424_2852)"/>
<rect width="42" height="42" transform="matrix(0 1 1 0 229.84 470)" fill="url(#paint8_linear_424_2852)"/>
<rect width="42" height="42" transform="matrix(-1 0 0 1 307.12 417.08)" fill="url(#paint9_linear_424_2852)"/>
<path d="M236.56 302H194.56V260H152.56V344H173.56V375.92H184.06V384.32H205.06H226.06H247.06V375.92H257.56V344H278.56V260H236.56V302Z" fill="url(#paint10_linear_424_2852)"/>
<rect x="187" y="336.02" width="5.04" height="5.04" fill="#FDD836"/>
<rect x="192.04" y="341.06" width="5.04" height="5.04" fill="#FDD836"/>
<rect x="192.04" y="346.1" width="5.04" height="5.04" fill="#FDD836"/>
<rect x="197.08" y="336.02" width="5.04" height="5.04" fill="#FDD836"/>
<rect x="197.08" y="341.06" width="5.04" height="5.04" fill="#FDD836"/>
<rect x="187" y="341.06" width="5.04" height="5.04" fill="#FDD836"/>
<rect x="229" y="336.02" width="5.04" height="5.04" fill="#FDD836"/>
<rect x="234.04" y="341.06" width="5.04" height="5.04" fill="#FDD836"/>
<rect x="234.04" y="346.1" width="5.04" height="5.04" fill="#FDD836"/>
<rect x="239.08" y="336.02" width="5.04" height="5.04" fill="#FDD836"/>
<rect x="239.08" y="341.06" width="5.04" height="5.04" fill="#FDD836"/>
<rect x="229" y="341.06" width="5.04" height="5.04" fill="#FDD836"/>
<rect x="190.36" y="360.8" width="4.2" height="4.2" fill="#FDD836"/>
<rect x="194.56" y="365" width="4.2" height="4.2" fill="#FDD836"/>
<rect x="198.76" y="365" width="4.2" height="4.2" fill="#FDD836"/>
<rect x="202.96" y="365" width="4.2" height="4.2" fill="#FDD836"/>
<rect x="207.16" y="365" width="4.2" height="4.2" fill="#FDD836"/>
<rect x="211.36" y="365" width="4.2" height="4.2" fill="#FDD836"/>
<rect x="215.56" y="365" width="4.2" height="4.2" fill="#FDD836"/>
<rect x="219.76" y="365" width="4.2" height="4.2" fill="#FDD836"/>
<rect x="223.96" y="365" width="4.2" height="4.2" fill="#FDD836"/>
<rect x="228.16" y="365" width="4.2" height="4.2" fill="#FDD836"/>
<rect x="232.36" y="365" width="4.2" height="4.2" fill="#FDD836"/>
<rect x="236.56" y="360.8" width="4.2" height="4.2" fill="#FDD836"/>
<rect x="253.36" y="428.84" width="21" height="21" fill="#7A347B"/>
<path d="M194.56 462.587L184.648 451.047V449.651H215.56V462.587H194.56Z" fill="url(#paint11_linear_424_2852)"/>
<path d="M236.56 462.587L246.472 451.047V449.651L215.56 449.651V462.587H236.56Z" fill="url(#paint12_linear_424_2852)"/>
<path d="M201.616 454.523C181.764 455.343 175.102 453.827 174.904 445.955V441.923H256.048V445.955C254.704 454.523 252.352 455.531 229.336 454.523L225.472 452.507H205.816L201.616 454.523Z" fill="url(#paint13_linear_424_2852)"/>
<g filter="url(#filter2_d_424_2852)">
<path d="M177.592 445.283C177.592 444.541 178.194 443.939 178.936 443.939H186.328C187.07 443.939 187.672 444.541 187.672 445.283V453.347C187.672 454.089 187.07 454.691 186.328 454.691H181.624C179.397 454.691 177.592 452.886 177.592 450.659V445.283Z" fill="#C1C1C1"/>
</g>
<g filter="url(#filter3_d_424_2852)">
<path d="M253.528 445.283C253.528 444.541 252.926 443.939 252.184 443.939H244.792C244.05 443.939 243.448 444.541 243.448 445.283V453.347C243.448 454.089 244.05 454.691 244.792 454.691H249.496C251.723 454.691 253.528 452.886 253.528 450.659V445.283Z" fill="#C1C1C1"/>
</g>
<g filter="url(#filter4_d_424_2852)">
<rect x="189.688" y="443.939" width="10.08" height="10.752" rx="1.344" fill="#C1C1C1"/>
</g>
<g filter="url(#filter5_d_424_2852)">
<rect x="230.68" y="443.939" width="10.08" height="10.752" rx="1.344" fill="#C1C1C1"/>
</g>
<rect x="172.216" y="431.843" width="86.688" height="12.768" rx="1.344" fill="white"/>
<rect x="234.04" y="495.2" width="33.6" height="33.6" fill="url(#paint14_linear_424_2852)"/>
<path d="M305.571 234.339H308.017V241.678H305.571V244.125H303.125V246.571H300.678V249.017H298.232V251.464H295.786V249.017H293.339V246.571H290.893V244.125H288.446V241.678H286V234.339H288.446V231.893H295.786V234.339H298.232V231.893H305.571V234.339Z" fill="#E4B8E9"/>
<path d="M328.285 250.236H330.287V256.24H328.285V258.242H326.284V260.243H324.282V262.245H322.28V264.247H320.279V262.245H318.277V260.243H316.276V258.242H314.274V256.24H312.272V250.236H314.274V248.234H320.279V250.236H322.28V248.234H328.285V250.236Z" fill="#E4B8E9"/>
<path d="M342.296 211.648H345.632V221.656H342.296V224.992H338.96V228.328H335.624V231.664H332.288V235H328.952V231.664H325.616V228.328H322.28V224.992H318.944V221.656H315.608V211.648H318.944V208.312H328.952V211.648H332.288V208.312H342.296V211.648Z" fill="#E4B8E9"/>
</g>
<defs>
<filter id="filter0_d_424_2852" x="116.56" y="372.5" width="198" height="166.5" filterUnits="userSpaceOnUse" color-interpolation-filters="sRGB">
<feFlood flood-opacity="0" result="BackgroundImageFix"/>
<feColorMatrix in="SourceAlpha" type="matrix" values="0 0 0 0 0 0 0 0 0 0 0 0 0 0 0 0 0 0 127 0" result="hardAlpha"/>
<feOffset dy="12"/>
<feGaussianBlur stdDeviation="18"/>
<feComposite in2="hardAlpha" operator="out"/>
<feColorMatrix type="matrix" values="0 0 0 0 0 0 0 0 0 0 0 0 0 0 0 0 0 0 0.6 0"/>
<feBlend mode="normal" in2="BackgroundImageFix" result="effect1_dropShadow_424_2852"/>
<feBlend mode="normal" in="SourceGraphic" in2="effect1_dropShadow_424_2852" result="shape"/>
</filter>
<filter id="filter1_d_424_2852" x="168.52" y="406.79" width="94.0801" height="73.92" filterUnits="userSpaceOnUse" color-interpolation-filters="sRGB">
<feFlood flood-opacity="0" result="BackgroundImageFix"/>
<feColorMatrix in="SourceAlpha" type="matrix" values="0 0 0 0 0 0 0 0 0 0 0 0 0 0 0 0 0 0 127 0" result="hardAlpha"/>
<feOffset/>
<feGaussianBlur stdDeviation="3.36"/>
<feComposite in2="hardAlpha" operator="out"/>
<feColorMatrix type="matrix" values="0 0 0 0 0.368627 0 0 0 0 0.152941 0 0 0 0 0.352941 0 0 0 0.5 0"/>
<feBlend mode="normal" in2="BackgroundImageFix" result="effect1_dropShadow_424_2852"/>
<feBlend mode="normal" in="SourceGraphic" in2="effect1_dropShadow_424_2852" result="shape"/>
</filter>
<filter id="filter2_d_424_2852" x="176.248" y="443.939" width="12.7681" height="13.44" filterUnits="userSpaceOnUse" color-interpolation-filters="sRGB">
<feFlood flood-opacity="0" result="BackgroundImageFix"/>
<feColorMatrix in="SourceAlpha" type="matrix" values="0 0 0 0 0 0 0 0 0 0 0 0 0 0 0 0 0 0 127 0" result="hardAlpha"/>
<feOffset dy="1.344"/>
<feGaussianBlur stdDeviation="0.672"/>
<feComposite in2="hardAlpha" operator="out"/>
<feColorMatrix type="matrix" values="0 0 0 0 0 0 0 0 0 0 0 0 0 0 0 0 0 0 0.25 0"/>
<feBlend mode="normal" in2="BackgroundImageFix" result="effect1_dropShadow_424_2852"/>
<feBlend mode="normal" in="SourceGraphic" in2="effect1_dropShadow_424_2852" result="shape"/>
</filter>
<filter id="filter3_d_424_2852" x="242.104" y="443.939" width="12.7681" height="13.44" filterUnits="userSpaceOnUse" color-interpolation-filters="sRGB">
<feFlood flood-opacity="0" result="BackgroundImageFix"/>
<feColorMatrix in="SourceAlpha" type="matrix" values="0 0 0 0 0 0 0 0 0 0 0 0 0 0 0 0 0 0 127 0" result="hardAlpha"/>
<feOffset dy="1.344"/>
<feGaussianBlur stdDeviation="0.672"/>
<feComposite in2="hardAlpha" operator="out"/>
<feColorMatrix type="matrix" values="0 0 0 0 0 0 0 0 0 0 0 0 0 0 0 0 0 0 0.25 0"/>
<feBlend mode="normal" in2="BackgroundImageFix" result="effect1_dropShadow_424_2852"/>
<feBlend mode="normal" in="SourceGraphic" in2="effect1_dropShadow_424_2852" result="shape"/>
</filter>
<filter id="filter4_d_424_2852" x="188.344" y="443.939" width="12.7681" height="13.44" filterUnits="userSpaceOnUse" color-interpolation-filters="sRGB">
<feFlood flood-opacity="0" result="BackgroundImageFix"/>
<feColorMatrix in="SourceAlpha" type="matrix" values="0 0 0 0 0 0 0 0 0 0 0 0 0 0 0 0 0 0 127 0" result="hardAlpha"/>
<feOffset dy="1.344"/>
<feGaussianBlur stdDeviation="0.672"/>
<feComposite in2="hardAlpha" operator="out"/>
<feColorMatrix type="matrix" values="0 0 0 0 0 0 0 0 0 0 0 0 0 0 0 0 0 0 0.25 0"/>
<feBlend mode="normal" in2="BackgroundImageFix" result="effect1_dropShadow_424_2852"/>
<feBlend mode="normal" in="SourceGraphic" in2="effect1_dropShadow_424_2852" result="shape"/>
</filter>
<filter id="filter5_d_424_2852" x="229.336" y="443.939" width="12.7681" height="13.44" filterUnits="userSpaceOnUse" color-interpolation-filters="sRGB">
<feFlood flood-opacity="0" result="BackgroundImageFix"/>
<feColorMatrix in="SourceAlpha" type="matrix" values="0 0 0 0 0 0 0 0 0 0 0 0 0 0 0 0 0 0 127 0" result="hardAlpha"/>
<feOffset dy="1.344"/>
<feGaussianBlur stdDeviation="0.672"/>
<feComposite in2="hardAlpha" operator="out"/>
<feColorMatrix type="matrix" values="0 0 0 0 0 0 0 0 0 0 0 0 0 0 0 0 0 0 0.25 0"/>
<feBlend mode="normal" in2="BackgroundImageFix" result="effect1_dropShadow_424_2852"/>
<feBlend mode="normal" in="SourceGraphic" in2="effect1_dropShadow_424_2852" result="shape"/>
</filter>
<linearGradient id="paint0_linear_424_2852" x1="235.971" y1="501.404" x2="235.971" y2="1025.89" gradientUnits="userSpaceOnUse">
<stop stop-color="#7A347B"/>
<stop offset="1" stop-color="#BC68CF"/>
</linearGradient>
<linearGradient id="paint1_linear_424_2852" x1="106" y1="1103" x2="106" y2="491" gradientUnits="userSpaceOnUse">
<stop stop-color="#D190DC"/>
<stop offset="1" stop-color="#B854C9"/>
</linearGradient>
<linearGradient id="paint2_linear_424_2852" x1="215.56" y1="396.5" x2="215.56" y2="491" gradientUnits="userSpaceOnUse">
<stop stop-color="#87389F"/>
<stop offset="0.296229" stop-color="#A751C2"/>
</linearGradient>
<linearGradient id="paint3_linear_424_2852" x1="215.56" y1="413.51" x2="215.56" y2="473.99" gradientUnits="userSpaceOnUse">
<stop stop-color="#87389F"/>
<stop offset="0.296229" stop-color="#A751C2"/>
</linearGradient>
<linearGradient id="paint4_linear_424_2852" x1="215.56" y1="384.32" x2="215.56" y2="396.5" gradientUnits="userSpaceOnUse">
<stop stop-color="#803597"/>
<stop offset="1" stop-color="#A751C2"/>
</linearGradient>
<linearGradient id="paint5_linear_424_2852" x1="42" y1="21" x2="0" y2="21" gradientUnits="userSpaceOnUse">
<stop stop-color="#5E275A"/>
<stop offset="1" stop-color="#81367C"/>
</linearGradient>
<linearGradient id="paint6_linear_424_2852" x1="166" y1="438.08" x2="124" y2="438.08" gradientUnits="userSpaceOnUse">
<stop stop-color="#5E275A"/>
<stop offset="1" stop-color="#81367C"/>
</linearGradient>
<linearGradient id="paint7_linear_424_2852" x1="180.28" y1="495.2" x2="180.28" y2="528.8" gradientUnits="userSpaceOnUse">
<stop stop-color="#411A3A"/>
<stop offset="1" stop-color="#58234E"/>
</linearGradient>
<linearGradient id="paint8_linear_424_2852" x1="42" y1="21" x2="0" y2="21" gradientUnits="userSpaceOnUse">
<stop stop-color="#5E275A"/>
<stop offset="1" stop-color="#81367C"/>
</linearGradient>
<linearGradient id="paint9_linear_424_2852" x1="42" y1="21" x2="0" y2="21" gradientUnits="userSpaceOnUse">
<stop stop-color="#5E275A"/>
<stop offset="1" stop-color="#81367C"/>
</linearGradient>
<linearGradient id="paint10_linear_424_2852" x1="215.56" y1="260" x2="215.56" y2="384.32" gradientUnits="userSpaceOnUse">
<stop stop-color="#8D3AA6"/>
<stop offset="0.517963" stop-color="#A751C2"/>
</linearGradient>
<linearGradient id="paint11_linear_424_2852" x1="215.56" y1="449.651" x2="215.56" y2="462.587" gradientUnits="userSpaceOnUse">
<stop stop-color="#B6B5B5"/>
<stop offset="0.653189" stop-color="white"/>
</linearGradient>
<linearGradient id="paint12_linear_424_2852" x1="215.56" y1="449.651" x2="215.56" y2="462.587" gradientUnits="userSpaceOnUse">
<stop stop-color="#B6B5B5"/>
<stop offset="0.653189" stop-color="white"/>
</linearGradient>
<linearGradient id="paint13_linear_424_2852" x1="215.476" y1="441.923" x2="215.476" y2="454.841" gradientUnits="userSpaceOnUse">
<stop stop-color="#999999"/>
<stop offset="0.689452" stop-color="white"/>
</linearGradient>
<linearGradient id="paint14_linear_424_2852" x1="250.84" y1="495.2" x2="250.84" y2="528.8" gradientUnits="userSpaceOnUse">
<stop stop-color="#411A3A"/>
<stop offset="1" stop-color="#58234E"/>
</linearGradient>
<clipPath id="clip0_424_2852">
<rect width="1440" height="700" fill="white"/>
</clipPath>
</defs>
</svg>
