<svg width="536" height="162" viewBox="0 0 536 162" fill="none" xmlns="http://www.w3.org/2000/svg">
<path d="M485.434 161.001V127.24H519.194V161.001H485.434Z" fill="#1E1F20"/>
<path d="M438.439 86.7275V52.9668H431.687V86.7275H438.439ZM397.926 161.001V19.2061H472.2V120.488H431.687V127.24H472.2V161.001H397.926Z" fill="#1E1F20"/>
<path d="M310.418 161.001V19.2061H344.179V127.24L350.931 120.488V19.2061H384.692V133.992L357.683 161.001H310.418Z" fill="#1E1F20"/>
<path d="M263.423 161.001V59.7189H297.184V161.001H263.423ZM263.423 52.9668V19.2061H297.184V52.9668H263.423Z" fill="#1E1F20"/>
<path d="M175.916 161.001V19.2061H209.677V127.24H216.429V59.7189H250.19V161.001H175.916ZM216.429 52.9668V19.2061H250.19V52.9668H216.429Z" fill="#1E1F20"/>
<path d="M128.921 86.7275V52.9668H122.168V86.7275H128.921ZM88.4077 161.001V19.2061H162.681V120.488H122.168V127.24H162.681V161.001H88.4077Z" fill="#1E1F20"/>
<path d="M41.4132 86.7275V52.9668H34.6611V86.7275H41.4132ZM0.900391 161.001V19.2061H75.1739V86.7275L68.4218 93.4796V100.232L75.1739 106.984V161.001H41.4132V113.736H34.6611V161.001H0.900391Z" fill="#1E1F20"/>
<path fill-rule="evenodd" clip-rule="evenodd" d="M484.534 126.34H520.095V161.901H484.534V126.34ZM486.334 128.141V160.101H518.294V128.141H486.334Z" fill="#BC68CF"/>
<path fill-rule="evenodd" clip-rule="evenodd" d="M397.026 18.3058H473.1V121.388H432.587V126.34H473.1V161.901H397.026V18.3058ZM398.826 20.1064V160.101H471.299V128.141H430.787V119.588H471.299V20.1064H398.826ZM430.787 52.0665H439.339V87.6278H430.787V52.0665ZM432.587 53.8671V85.8272H437.539V53.8671H432.587Z" fill="#BC68CF"/>
<path fill-rule="evenodd" clip-rule="evenodd" d="M309.518 18.3058H345.079V125.067L350.031 120.115V18.3058H385.592V134.365L358.056 161.901H309.518V18.3058ZM311.319 20.1064V160.101H357.31L383.792 133.62V20.1064H351.831V120.861L343.279 129.414V20.1064H311.319Z" fill="#BC68CF"/>
<path fill-rule="evenodd" clip-rule="evenodd" d="M262.523 18.3058H298.085V53.8671H262.523V18.3058ZM264.324 20.1064V52.0665H296.284V20.1064H264.324ZM262.523 58.8186H298.085V161.901H262.523V58.8186ZM264.324 60.6192V160.101H296.284V60.6192H264.324Z" fill="#BC68CF"/>
<path fill-rule="evenodd" clip-rule="evenodd" d="M175.016 18.3058H210.577V126.34H215.528V58.8186H251.09V161.901H175.016V18.3058ZM176.816 20.1064V160.101H249.289V60.6192H217.329V128.141H208.776V20.1064H176.816ZM215.528 18.3058H251.09V53.8671H215.528V18.3058ZM217.329 20.1064V52.0665H249.289V20.1064H217.329Z" fill="#BC68CF"/>
<path fill-rule="evenodd" clip-rule="evenodd" d="M87.5078 18.3058H163.582V121.388H123.069V126.34H163.582V161.901H87.5078V18.3058ZM89.3084 20.1064V160.101H161.781V128.141H121.269V119.588H161.781V20.1064H89.3084ZM121.269 52.0665H129.821V87.6278H121.269V52.0665ZM123.069 53.8671V85.8272H128.021V53.8671H123.069Z" fill="#BC68CF"/>
<path fill-rule="evenodd" clip-rule="evenodd" d="M0 18.3058H76.0741V87.1004L69.322 93.8526V99.8589L76.0741 106.611V161.901H40.5128V114.636H35.5613V161.901H0V18.3058ZM1.80057 20.1064V160.101H33.7607V112.836H42.3134V160.101H74.2736V107.357L67.5214 100.605V93.1067L74.2736 86.3546V20.1064H1.80057ZM33.7607 52.0665H42.3134V87.6278H33.7607V52.0665ZM35.5613 53.8671V85.8272H40.5128V53.8671H35.5613Z" fill="#BC68CF"/>
<path d="M502.239 141.795V108.034H536V141.795H502.239Z" fill="#BC68CF"/>
<path d="M455.244 67.5214V33.7607H448.492V67.5214H455.244ZM414.731 141.795V2.67029e-05H489.005V101.282H448.492V108.034H489.005V141.795H414.731Z" fill="#BC68CF"/>
<path d="M327.224 141.795V2.67029e-05H360.984V108.034L367.736 101.282V2.67029e-05H401.497V114.786L374.489 141.795H327.224Z" fill="#BC68CF"/>
<path d="M280.229 141.795V40.5129H313.99V141.795H280.229ZM280.229 33.7607V2.67029e-05H313.99V33.7607H280.229Z" fill="#BC68CF"/>
<path d="M192.721 141.795V2.67029e-05H226.482V108.034H233.234V40.5129H266.995V141.795H192.721ZM233.234 33.7607V2.67029e-05H266.995V33.7607H233.234Z" fill="#BC68CF"/>
<path d="M145.726 67.5214V33.7607H138.974V67.5214H145.726ZM105.213 141.795V2.67029e-05H179.487V101.282H138.974V108.034H179.487V141.795H105.213Z" fill="#BC68CF"/>
<path d="M58.2184 67.5214V33.7607H51.4663V67.5214H58.2184ZM17.7056 141.795V0H91.9791V67.5214L85.227 74.2736V81.0257L91.9791 87.7778V141.795H58.2184V94.53H51.4663V141.795H17.7056Z" fill="#BC68CF"/>
</svg>
