<svg width="536" height="203" viewBox="0 0 536 203" fill="none" xmlns="http://www.w3.org/2000/svg">
<path d="M485.434 161.001V127.24H519.194V161.001H485.434Z" fill="#1E1F20"/>
<path d="M397.926 201.514V167.753H438.439V161.001H397.926V19.2061H431.687V127.24H438.439V19.2061H472.2V201.514H397.926Z" fill="#1E1F20"/>
<path d="M310.418 161.001V127.24H384.692V161.001H310.418ZM350.931 66.4711V52.9668H344.179V66.4711H350.931ZM310.418 120.488V19.2061H384.692V120.488H350.931V100.232H344.179V120.488H310.418Z" fill="#1E1F20"/>
<path d="M263.423 161.001V19.2061H297.184V161.001H263.423Z" fill="#1E1F20"/>
<path d="M216.429 86.7275V52.9668H209.677V86.7275H216.429ZM175.916 161.001V19.2061H250.19V120.488H209.677V161.001H175.916Z" fill="#1E1F20"/>
<path d="M128.921 86.7275V52.9668H122.168V86.7275H128.921ZM88.4077 161.001V19.2061H162.681V120.488H122.168V127.24H162.681V161.001H88.4077Z" fill="#1E1F20"/>
<path d="M41.4132 86.7275V52.9668H34.6611V86.7275H41.4132ZM0.900391 161.001V19.2061H75.1739V86.7275L68.4218 93.4796V100.232L75.1739 106.984V161.001H41.4132V113.736H34.6611V161.001H0.900391Z" fill="#1E1F20"/>
<path fill-rule="evenodd" clip-rule="evenodd" d="M484.534 126.34H520.095V161.901H484.534V126.34ZM486.334 128.141V160.101H518.294V128.141H486.334Z" fill="#F9A925"/>
<path fill-rule="evenodd" clip-rule="evenodd" d="M397.026 18.3058H432.587V126.34H437.539V18.3058H473.1V202.414H397.026V166.853H437.539V161.901H397.026V18.3058ZM398.826 20.1064V160.101H439.339V168.653H398.826V200.614H471.299V20.1064H439.339V128.141H430.787V20.1064H398.826Z" fill="#F9A925"/>
<path fill-rule="evenodd" clip-rule="evenodd" d="M309.518 18.3058H385.592V121.389H350.031V101.132H345.079V121.389H309.518V18.3058ZM311.319 20.1064V119.588H343.279V99.3315H351.831V119.588H383.792V20.1064H311.319ZM343.279 52.0665H351.831V67.3714H343.279V52.0665ZM345.079 53.8671V65.5708H350.031V53.8671H345.079ZM309.518 126.34H385.592V161.901H309.518V126.34ZM311.319 128.141V160.101H383.792V128.141H311.319Z" fill="#F9A925"/>
<path fill-rule="evenodd" clip-rule="evenodd" d="M262.523 18.3058H298.085V161.901H262.523V18.3058ZM264.324 20.1064V160.101H296.284V20.1064H264.324Z" fill="#F9A925"/>
<path fill-rule="evenodd" clip-rule="evenodd" d="M175.016 18.3058H251.09V121.389H210.577V161.901H175.016V18.3058ZM176.816 20.1064V160.101H208.776V119.588H249.289V20.1064H176.816ZM208.776 52.0665H217.329V87.6278H208.776V52.0665ZM210.577 53.8671V85.8272H215.528V53.8671H210.577Z" fill="#F9A925"/>
<path fill-rule="evenodd" clip-rule="evenodd" d="M87.5078 18.3058H163.582V121.389H123.069V126.34H163.582V161.901H87.5078V18.3058ZM89.3084 20.1064V160.101H161.781V128.141H121.269V119.588H161.781V20.1064H89.3084ZM121.269 52.0665H129.821V87.6278H121.269V52.0665ZM123.069 53.8671V85.8272H128.021V53.8671H123.069Z" fill="#F9A925"/>
<path fill-rule="evenodd" clip-rule="evenodd" d="M0 18.3058H76.0741V87.1004L69.322 93.8526V99.8589L76.0741 106.611V161.901H40.5128V114.636H35.5613V161.901H0V18.3058ZM1.80057 20.1064V160.101H33.7607V112.836H42.3134V160.101H74.2736V107.357L67.5214 100.605V93.1067L74.2736 86.3546V20.1064H1.80057ZM33.7607 52.0665H42.3134V87.6278H33.7607V52.0665ZM35.5613 53.8671V85.8272H40.5128V53.8671H35.5613Z" fill="#F9A925"/>
<path d="M502.239 141.795V108.034H536V141.795H502.239Z" fill="#F9A925"/>
<path d="M414.731 182.308V148.547H455.244V141.795H414.731V0H448.492V108.034H455.244V0H489.005V182.308H414.731Z" fill="#F9A925"/>
<path d="M327.224 141.795V108.034H401.497V141.795H327.224ZM367.736 47.265V33.7607H360.984V47.265H367.736ZM327.224 101.282V0H401.497V101.282H367.736V81.0257H360.984V101.282H327.224Z" fill="#F9A925"/>
<path d="M280.229 141.795V0H313.99V141.795H280.229Z" fill="#F9A925"/>
<path d="M233.234 67.5214V33.7607H226.482V67.5214H233.234ZM192.721 141.795V0H266.995V101.282H226.482V141.795H192.721Z" fill="#F9A925"/>
<path d="M145.726 67.5214V33.7607H138.974V67.5214H145.726ZM105.213 141.795V0H179.487V101.282H138.974V108.034H179.487V141.795H105.213Z" fill="#F9A925"/>
<path d="M58.2184 67.5214V33.7607H51.4663V67.5214H58.2184ZM17.7056 141.795V0H91.9791V67.5214L85.227 74.2736V81.0257L91.9791 87.7778V141.795H58.2184V94.53H51.4663V141.795H17.7056Z" fill="#F9A925"/>
</svg>
