<svg width="184" height="28" viewBox="0 0 184 28" fill="none" xmlns="http://www.w3.org/2000/svg">
<path d="M158.636 0H183.525V12.4444H164.859V15.5556H183.525V24.8889H180.414V28H155.525V21.7778H174.192V18.6667H155.525V3.11111H158.636V0Z" fill="#BC68CF"/>
<path d="M133.754 0H143.087V15.5556H152.42V28H130.642V3.11111H133.754V0Z" fill="#BC68CF"/>
<path d="M105.741 0H127.519V9.33333H115.075V12.4444H124.408V15.5556H115.075V18.6667H127.519V28H102.63V3.11111H105.741V0Z" fill="#BC68CF"/>
<path d="M71.5309 0H80.8643V12.4444H83.9754V9.33333H87.0865V0H99.5309V12.4444H96.4198V18.6667H99.5309V28H87.0865V18.6667H80.8643V28H68.4198V18.6667H71.5309V12.4444H68.4198V3.11111H71.5309V0Z" fill="#BC68CF"/>
<path d="M37.3212 0H46.6546V12.4444H49.7657V9.33333H52.8768V0H65.3212V12.4444H62.2101V18.6667H55.9879V28H43.5435V18.6667H37.3212V12.4444H34.2101V3.11111H37.3212V0Z" fill="#BC68CF"/>
<path d="M15.5556 15.5556H18.6667V12.4444H21.7778V6.22222H18.6667V9.33333H15.5556V6.22222H12.4444V12.4444H15.5556V15.5556ZM0 0H28V3.11111H31.1111V18.6667H24.8889V21.7778H9.33333V28H0V0Z" fill="#BC68CF"/>
<path d="M15.5556 15.5556H18.6667V12.4444H21.7778V6.22222H18.6667V9.33333H15.5556V6.22222H12.4444V12.4444H15.5556V15.5556Z" fill="#FDD836"/>
</svg>
