<svg width="708" height="566" viewBox="0 0 708 566" fill="none" xmlns="http://www.w3.org/2000/svg">
<g clip-path="url(#clip0_386_2749)">
<path d="M288.6 302.8V499.6H387V253.6H337.8V302.8H288.6ZM190.2 155.2H534.6V204.4H583.8V598H190.2V548.8H141V204.4H190.2V155.2Z" fill="#411A3A" fill-opacity="0.7"/>
<path d="M27 340H189V610H351V826H-27V394H27V340Z" fill="#5E275A"/>
<path d="M646.8 240.2H463.2V546.2H279.6V791H708V301.4H646.8V240.2Z" fill="#7A347B"/>
<rect x="260" y="359" width="210" height="207" fill="#FDD836"/>
<path d="M329 535H379V485H429V385H379V435H329V385H279V485H329V535ZM79 285H529V335H579V585H479V635H229V735H79V285Z" fill="url(#paint0_linear_386_2749)"/>
<g filter="url(#filter0_d_386_2749)">
<path d="M277.56 190.5H319.56H361.56V201H382.56V236.28V243V278.28H340.56V285H298.56V278.28H256.56V243V236.28V201H277.56V190.5Z" fill="url(#paint1_linear_386_2749)"/>
</g>
<g filter="url(#filter1_d_386_2749)">
<path d="M292.68 207.51H319.56H346.44V214.23H359.88V236.809V241.11V263.689H333V267.99H306.12V263.689H279.24V241.11V236.809V214.23H292.68V207.51Z" fill="url(#paint2_linear_386_2749)"/>
</g>
<rect x="298.56" y="178.32" width="42" height="12.18" fill="url(#paint3_linear_386_2749)"/>
<rect width="42" height="42" transform="matrix(0 1 1 0 263.28 264)" fill="url(#paint4_linear_386_2749)"/>
<rect x="228" y="211.08" width="42" height="42" fill="url(#paint5_linear_386_2749)"/>
<rect x="260.76" y="222.84" width="21" height="21" fill="#7A347B"/>
<rect x="267.48" y="289.2" width="33.6" height="33.6" fill="url(#paint6_linear_386_2749)"/>
<rect width="42" height="42" transform="matrix(0 1 1 0 333.84 264)" fill="url(#paint7_linear_386_2749)"/>
<rect width="42" height="42" transform="matrix(-1 0 0 1 411.12 211.08)" fill="url(#paint8_linear_386_2749)"/>
<path d="M340.56 95.9999H298.56V53.9999H256.56V138H277.56V169.92H288.06V178.32H309.06H330.06H351.06V169.92H361.56V138H382.56V53.9999H340.56V95.9999Z" fill="url(#paint9_linear_386_2749)"/>
<rect x="291" y="130.02" width="5.04" height="5.04" fill="#FDD836"/>
<rect x="296.04" y="135.06" width="5.04" height="5.04" fill="#FDD836"/>
<rect x="296.04" y="140.1" width="5.04" height="5.04" fill="#FDD836"/>
<rect x="301.08" y="130.02" width="5.04" height="5.04" fill="#FDD836"/>
<rect x="301.08" y="135.06" width="5.04" height="5.04" fill="#FDD836"/>
<rect x="291" y="135.06" width="5.04" height="5.04" fill="#FDD836"/>
<rect x="333" y="130.02" width="5.04" height="5.04" fill="#FDD836"/>
<rect x="338.04" y="135.06" width="5.04" height="5.04" fill="#FDD836"/>
<rect x="338.04" y="140.1" width="5.04" height="5.04" fill="#FDD836"/>
<rect x="343.08" y="130.02" width="5.04" height="5.04" fill="#FDD836"/>
<rect x="343.08" y="135.06" width="5.04" height="5.04" fill="#FDD836"/>
<rect x="333" y="135.06" width="5.04" height="5.04" fill="#FDD836"/>
<rect x="294.36" y="154.8" width="4.2" height="4.2" fill="#FDD836"/>
<rect x="298.56" y="159" width="4.2" height="4.2" fill="#FDD836"/>
<rect x="302.76" y="159" width="4.2" height="4.2" fill="#FDD836"/>
<rect x="306.96" y="159" width="4.2" height="4.2" fill="#FDD836"/>
<rect x="311.16" y="159" width="4.2" height="4.2" fill="#FDD836"/>
<rect x="315.36" y="159" width="4.2" height="4.2" fill="#FDD836"/>
<rect x="319.56" y="159" width="4.2" height="4.2" fill="#FDD836"/>
<rect x="323.76" y="159" width="4.2" height="4.2" fill="#FDD836"/>
<rect x="327.96" y="159" width="4.2" height="4.2" fill="#FDD836"/>
<rect x="332.16" y="159" width="4.2" height="4.2" fill="#FDD836"/>
<rect x="336.36" y="159" width="4.2" height="4.2" fill="#FDD836"/>
<rect x="340.56" y="154.8" width="4.2" height="4.2" fill="#FDD836"/>
<rect x="357.36" y="222.84" width="21" height="21" fill="#7A347B"/>
<path d="M298.56 256.587L288.648 245.047V243.651H319.56V256.587H298.56Z" fill="url(#paint10_linear_386_2749)"/>
<path d="M340.56 256.587L350.472 245.047V243.651L319.56 243.651V256.587H340.56Z" fill="url(#paint11_linear_386_2749)"/>
<path d="M305.616 248.523C285.764 249.343 279.102 247.827 278.904 239.955V235.923H360.048V239.955C358.704 248.523 356.352 249.531 333.336 248.523L329.472 246.507H309.816L305.616 248.523Z" fill="url(#paint12_linear_386_2749)"/>
<g filter="url(#filter2_d_386_2749)">
<path d="M281.592 239.283C281.592 238.54 282.194 237.939 282.936 237.939H290.328C291.07 237.939 291.672 238.54 291.672 239.283V247.347C291.672 248.089 291.07 248.691 290.328 248.691H285.624C283.397 248.691 281.592 246.886 281.592 244.659V239.283Z" fill="#C1C1C1"/>
</g>
<g filter="url(#filter3_d_386_2749)">
<path d="M357.528 239.283C357.528 238.54 356.926 237.939 356.184 237.939H348.792C348.05 237.939 347.448 238.54 347.448 239.283V247.347C347.448 248.089 348.05 248.691 348.792 248.691H353.496C355.723 248.691 357.528 246.886 357.528 244.659V239.283Z" fill="#C1C1C1"/>
</g>
<g filter="url(#filter4_d_386_2749)">
<rect x="293.688" y="237.939" width="10.08" height="10.752" rx="1.344" fill="#C1C1C1"/>
</g>
<g filter="url(#filter5_d_386_2749)">
<rect x="334.68" y="237.939" width="10.08" height="10.752" rx="1.344" fill="#C1C1C1"/>
</g>
<rect x="276.216" y="225.843" width="86.688" height="12.768" rx="1.344" fill="white"/>
<rect x="338.04" y="289.2" width="33.6" height="33.6" fill="url(#paint13_linear_386_2749)"/>
<path d="M414.571 36.3391H417.017V43.6783H414.571V46.1246H412.125V48.571H409.678V51.0174H407.232V53.4638H404.786V51.0174H402.339V48.571H399.893V46.1246H397.446V43.6783H395V36.3391H397.446V33.8927H404.786V36.3391H407.232V33.8927H414.571V36.3391Z" fill="#E4B8E9"/>
<path d="M437.285 52.2356H439.287V58.2404H437.285V60.242H435.284V62.2435H433.282V64.2451H431.28V66.2467H429.279V64.2451H427.277V62.2435H425.276V60.242H423.274V58.2404H421.272V52.2356H423.274V50.234H429.279V52.2356H431.28V50.234H437.285V52.2356Z" fill="#E4B8E9"/>
<path d="M451.296 13.6482H454.632V23.6562H451.296V26.9922H447.96V30.3282H444.624V33.6641H441.288V37.0001H437.952V33.6641H434.616V30.3282H431.28V26.9922H427.944V23.6562H424.608V13.6482H427.944V10.3123H437.952V13.6482H441.288V10.3123H451.296V13.6482Z" fill="#E4B8E9"/>
</g>
<defs>
<filter id="filter0_d_386_2749" x="220.56" y="166.5" width="198" height="166.5" filterUnits="userSpaceOnUse" color-interpolation-filters="sRGB">
<feFlood flood-opacity="0" result="BackgroundImageFix"/>
<feColorMatrix in="SourceAlpha" type="matrix" values="0 0 0 0 0 0 0 0 0 0 0 0 0 0 0 0 0 0 127 0" result="hardAlpha"/>
<feOffset dy="12"/>
<feGaussianBlur stdDeviation="18"/>
<feComposite in2="hardAlpha" operator="out"/>
<feColorMatrix type="matrix" values="0 0 0 0 0 0 0 0 0 0 0 0 0 0 0 0 0 0 0.6 0"/>
<feBlend mode="normal" in2="BackgroundImageFix" result="effect1_dropShadow_386_2749"/>
<feBlend mode="normal" in="SourceGraphic" in2="effect1_dropShadow_386_2749" result="shape"/>
</filter>
<filter id="filter1_d_386_2749" x="272.52" y="200.79" width="94.0801" height="73.92" filterUnits="userSpaceOnUse" color-interpolation-filters="sRGB">
<feFlood flood-opacity="0" result="BackgroundImageFix"/>
<feColorMatrix in="SourceAlpha" type="matrix" values="0 0 0 0 0 0 0 0 0 0 0 0 0 0 0 0 0 0 127 0" result="hardAlpha"/>
<feOffset/>
<feGaussianBlur stdDeviation="3.36"/>
<feComposite in2="hardAlpha" operator="out"/>
<feColorMatrix type="matrix" values="0 0 0 0 0.368627 0 0 0 0 0.152941 0 0 0 0 0.352941 0 0 0 0.5 0"/>
<feBlend mode="normal" in2="BackgroundImageFix" result="effect1_dropShadow_386_2749"/>
<feBlend mode="normal" in="SourceGraphic" in2="effect1_dropShadow_386_2749" result="shape"/>
</filter>
<filter id="filter2_d_386_2749" x="280.248" y="237.939" width="12.7681" height="13.44" filterUnits="userSpaceOnUse" color-interpolation-filters="sRGB">
<feFlood flood-opacity="0" result="BackgroundImageFix"/>
<feColorMatrix in="SourceAlpha" type="matrix" values="0 0 0 0 0 0 0 0 0 0 0 0 0 0 0 0 0 0 127 0" result="hardAlpha"/>
<feOffset dy="1.344"/>
<feGaussianBlur stdDeviation="0.672"/>
<feComposite in2="hardAlpha" operator="out"/>
<feColorMatrix type="matrix" values="0 0 0 0 0 0 0 0 0 0 0 0 0 0 0 0 0 0 0.25 0"/>
<feBlend mode="normal" in2="BackgroundImageFix" result="effect1_dropShadow_386_2749"/>
<feBlend mode="normal" in="SourceGraphic" in2="effect1_dropShadow_386_2749" result="shape"/>
</filter>
<filter id="filter3_d_386_2749" x="346.104" y="237.939" width="12.7681" height="13.44" filterUnits="userSpaceOnUse" color-interpolation-filters="sRGB">
<feFlood flood-opacity="0" result="BackgroundImageFix"/>
<feColorMatrix in="SourceAlpha" type="matrix" values="0 0 0 0 0 0 0 0 0 0 0 0 0 0 0 0 0 0 127 0" result="hardAlpha"/>
<feOffset dy="1.344"/>
<feGaussianBlur stdDeviation="0.672"/>
<feComposite in2="hardAlpha" operator="out"/>
<feColorMatrix type="matrix" values="0 0 0 0 0 0 0 0 0 0 0 0 0 0 0 0 0 0 0.25 0"/>
<feBlend mode="normal" in2="BackgroundImageFix" result="effect1_dropShadow_386_2749"/>
<feBlend mode="normal" in="SourceGraphic" in2="effect1_dropShadow_386_2749" result="shape"/>
</filter>
<filter id="filter4_d_386_2749" x="292.344" y="237.939" width="12.7681" height="13.44" filterUnits="userSpaceOnUse" color-interpolation-filters="sRGB">
<feFlood flood-opacity="0" result="BackgroundImageFix"/>
<feColorMatrix in="SourceAlpha" type="matrix" values="0 0 0 0 0 0 0 0 0 0 0 0 0 0 0 0 0 0 127 0" result="hardAlpha"/>
<feOffset dy="1.344"/>
<feGaussianBlur stdDeviation="0.672"/>
<feComposite in2="hardAlpha" operator="out"/>
<feColorMatrix type="matrix" values="0 0 0 0 0 0 0 0 0 0 0 0 0 0 0 0 0 0 0.25 0"/>
<feBlend mode="normal" in2="BackgroundImageFix" result="effect1_dropShadow_386_2749"/>
<feBlend mode="normal" in="SourceGraphic" in2="effect1_dropShadow_386_2749" result="shape"/>
</filter>
<filter id="filter5_d_386_2749" x="333.336" y="237.939" width="12.7681" height="13.44" filterUnits="userSpaceOnUse" color-interpolation-filters="sRGB">
<feFlood flood-opacity="0" result="BackgroundImageFix"/>
<feColorMatrix in="SourceAlpha" type="matrix" values="0 0 0 0 0 0 0 0 0 0 0 0 0 0 0 0 0 0 127 0" result="hardAlpha"/>
<feOffset dy="1.344"/>
<feGaussianBlur stdDeviation="0.672"/>
<feComposite in2="hardAlpha" operator="out"/>
<feColorMatrix type="matrix" values="0 0 0 0 0 0 0 0 0 0 0 0 0 0 0 0 0 0 0.25 0"/>
<feBlend mode="normal" in2="BackgroundImageFix" result="effect1_dropShadow_386_2749"/>
<feBlend mode="normal" in="SourceGraphic" in2="effect1_dropShadow_386_2749" result="shape"/>
</filter>
<linearGradient id="paint0_linear_386_2749" x1="354" y1="785" x2="354" y2="285" gradientUnits="userSpaceOnUse">
<stop stop-color="#D190DC"/>
<stop offset="1" stop-color="#B854C9"/>
</linearGradient>
<linearGradient id="paint1_linear_386_2749" x1="319.56" y1="190.5" x2="319.56" y2="285" gradientUnits="userSpaceOnUse">
<stop stop-color="#87389F"/>
<stop offset="0.296229" stop-color="#A751C2"/>
</linearGradient>
<linearGradient id="paint2_linear_386_2749" x1="319.56" y1="207.51" x2="319.56" y2="267.99" gradientUnits="userSpaceOnUse">
<stop stop-color="#87389F"/>
<stop offset="0.296229" stop-color="#A751C2"/>
</linearGradient>
<linearGradient id="paint3_linear_386_2749" x1="319.56" y1="178.32" x2="319.56" y2="190.5" gradientUnits="userSpaceOnUse">
<stop stop-color="#803597"/>
<stop offset="1" stop-color="#A751C2"/>
</linearGradient>
<linearGradient id="paint4_linear_386_2749" x1="42" y1="21" x2="0" y2="21" gradientUnits="userSpaceOnUse">
<stop stop-color="#5E275A"/>
<stop offset="1" stop-color="#81367C"/>
</linearGradient>
<linearGradient id="paint5_linear_386_2749" x1="270" y1="232.08" x2="228" y2="232.08" gradientUnits="userSpaceOnUse">
<stop stop-color="#5E275A"/>
<stop offset="1" stop-color="#81367C"/>
</linearGradient>
<linearGradient id="paint6_linear_386_2749" x1="284.28" y1="289.2" x2="284.28" y2="322.8" gradientUnits="userSpaceOnUse">
<stop stop-color="#411A3A"/>
<stop offset="1" stop-color="#58234E"/>
</linearGradient>
<linearGradient id="paint7_linear_386_2749" x1="42" y1="21" x2="0" y2="21" gradientUnits="userSpaceOnUse">
<stop stop-color="#5E275A"/>
<stop offset="1" stop-color="#81367C"/>
</linearGradient>
<linearGradient id="paint8_linear_386_2749" x1="42" y1="21" x2="0" y2="21" gradientUnits="userSpaceOnUse">
<stop stop-color="#5E275A"/>
<stop offset="1" stop-color="#81367C"/>
</linearGradient>
<linearGradient id="paint9_linear_386_2749" x1="319.56" y1="53.9999" x2="319.56" y2="178.32" gradientUnits="userSpaceOnUse">
<stop stop-color="#8D3AA6"/>
<stop offset="0.517963" stop-color="#A751C2"/>
</linearGradient>
<linearGradient id="paint10_linear_386_2749" x1="319.56" y1="243.651" x2="319.56" y2="256.587" gradientUnits="userSpaceOnUse">
<stop stop-color="#B6B5B5"/>
<stop offset="0.653189" stop-color="white"/>
</linearGradient>
<linearGradient id="paint11_linear_386_2749" x1="319.56" y1="243.651" x2="319.56" y2="256.587" gradientUnits="userSpaceOnUse">
<stop stop-color="#B6B5B5"/>
<stop offset="0.653189" stop-color="white"/>
</linearGradient>
<linearGradient id="paint12_linear_386_2749" x1="319.476" y1="235.923" x2="319.476" y2="248.841" gradientUnits="userSpaceOnUse">
<stop stop-color="#999999"/>
<stop offset="0.689452" stop-color="white"/>
</linearGradient>
<linearGradient id="paint13_linear_386_2749" x1="354.84" y1="289.2" x2="354.84" y2="322.8" gradientUnits="userSpaceOnUse">
<stop stop-color="#411A3A"/>
<stop offset="1" stop-color="#58234E"/>
</linearGradient>
<clipPath id="clip0_386_2749">
<rect width="708" height="566" fill="white"/>
</clipPath>
</defs>
</svg>
