<svg width="40" height="40" viewBox="0 0 40 40" fill="none" xmlns="http://www.w3.org/2000/svg">
<path d="M29.9998 6.66671V3.33337H9.99984V6.66671H1.6665V15H3.33317V18.3334H4.99984V20H6.6665V21.6667H8.33317V23.3334H9.99984V25H14.9998V26.6667H18.3332V31.6667H11.6665V36.6667H28.3332V31.6667H21.6665V26.6667H24.9998V25H29.9998V23.3334H31.6665V21.6667H33.3332V20H34.9998V18.3334H36.6665V15H38.3332V6.66671H29.9998ZM8.33317 20V18.3334H6.6665V15H4.99984V10H8.33317V11.6667H9.99984V15H11.6665V20H13.3332V21.6667H9.99984V20H8.33317ZM34.9998 15H33.3332V18.3334H31.6665V20H29.9998V21.6667H26.6665V20H28.3332V16.6667H29.9998V11.6667H31.6665V10H34.9998V15Z" fill="#1E1F20"/>
</svg>
