<svg width="540" height="810" viewBox="0 0 540 810" fill="none" xmlns="http://www.w3.org/2000/svg">
<g clip-path="url(#clip0_353_5114)">
<path d="M215.601 206.475V170.744H212.353V206.475H215.601ZM196.112 222.717V154.502H231.843V222.717H196.112Z" fill="white"/>
<path d="M173.503 186.985V170.744H170.255V186.985H173.503ZM154.013 222.717V154.502H189.745V186.985L186.497 190.233V193.482L189.745 196.73V222.717H173.503V199.978H170.255V222.717H154.013Z" fill="white"/>
<path d="M111.915 222.717V154.502H128.157V173.992H147.647V190.233H128.157V206.475H131.405V193.482H147.647V222.717H111.915Z" fill="white"/>
<path d="M89.307 186.985V170.744H86.0587V186.985H89.307ZM69.8171 222.717V154.502H105.549V203.227H86.0587V206.475H105.549V222.717H69.8171Z" fill="white"/>
<path d="M47.2089 186.985V170.744H43.9606V186.985H47.2089ZM27.719 222.717V154.502H63.4505V186.985L60.2022 190.233V193.482L63.4505 196.73V222.717H47.2089V199.978H43.9606V222.717H27.719Z" fill="white"/>
<path fill-rule="evenodd" clip-rule="evenodd" d="M475.683 154.069H512.281V177.673H495.173V171.177H492.791V180.055H512.281V223.15H475.683V199.545H492.791V206.042H495.173V197.163H475.683V154.069ZM476.55 154.935V196.297H496.039V206.908H491.925V200.411H476.55V222.283H511.415V180.922H491.925V170.31H496.039V176.807H511.415V154.935H476.55Z" fill="white"/>
<path fill-rule="evenodd" clip-rule="evenodd" d="M414.095 154.069H470.183V223.15H453.075V171.177H450.693V223.15H433.585V171.177H431.203V223.15H414.095V154.069ZM414.961 154.935V222.283H430.337V170.31H434.451V222.283H449.827V170.31H453.941V222.283H469.317V154.935H414.961Z" fill="white"/>
<path fill-rule="evenodd" clip-rule="evenodd" d="M371.997 154.069H408.595V203.66H391.487V193.915H389.105V203.66H371.997V154.069ZM372.863 154.935V202.794H388.239V193.049H392.353V202.794H407.729V154.935H372.863ZM388.239 170.31H392.353V177.673H388.239V170.31ZM389.105 171.177V176.807H391.487V171.177H389.105ZM371.997 206.042H408.595V223.15H371.997V206.042ZM372.863 206.908V222.283H407.729V206.908H372.863Z" fill="white"/>
<path fill-rule="evenodd" clip-rule="evenodd" d="M329.899 154.069H366.497V203.66H347.007V206.042H366.497V223.15H329.899V154.069ZM330.765 154.935V222.283H365.63V206.908H346.141V202.794H365.63V154.935H330.765ZM346.141 170.31H350.255V187.418H346.141V170.31ZM347.007 171.177V186.552H349.389V171.177H347.007Z" fill="white"/>
<path fill-rule="evenodd" clip-rule="evenodd" d="M287.801 154.069H324.398V187.165L321.15 190.413V193.302L324.398 196.551V223.15H307.291V200.411H304.909V223.15H287.801V154.069ZM288.667 154.935V222.283H304.042V199.545H308.157V222.283H323.532V196.909L320.284 193.661V190.054L323.532 186.806V154.935H288.667ZM304.042 170.31H308.157V187.418H304.042V170.31ZM304.909 171.177V186.552H307.291V171.177H304.909Z" fill="white"/>
<path fill-rule="evenodd" clip-rule="evenodd" d="M245.703 154.069H275.55L282.3 160.819V216.399L275.55 223.15H245.703V154.069ZM246.569 154.935V222.283H275.191L281.434 216.041V161.178L275.191 154.935H246.569ZM261.944 170.31H266.059V206.908H261.944V170.31ZM262.81 171.177V206.042H265.193V171.177H262.81Z" fill="white"/>
<path fill-rule="evenodd" clip-rule="evenodd" d="M49.2798 675H85.1158V742.643H68.3641V691.752H66.0315V742.643H49.2798V675ZM50.128 675.848V741.795H65.1833V690.904H69.2122V741.795H84.2676V675.848H50.128Z" fill="white"/>
<path fill-rule="evenodd" clip-rule="evenodd" d="M27.1421 675H43.8938V691.752H27.1421V675ZM27.9903 675.848V690.904H43.0456V675.848H27.9903ZM27.1421 694.084H43.8938V742.643H27.1421V694.084ZM27.9903 694.932V741.795H43.0456V694.932H27.9903Z" fill="white"/>
<path fill-rule="evenodd" clip-rule="evenodd" d="M222.353 675H258.189V707.407L255.008 710.588V713.417L258.189 716.598V742.643H241.437V720.378H239.105V742.643H222.353V675ZM223.201 675.848V741.795H238.256V719.53H242.285V741.795H257.341V716.949L254.16 713.768V710.236L257.341 707.056V675.848H223.201ZM238.256 690.904H242.285V707.655H238.256V690.904ZM239.105 691.752V706.807H241.437V691.752H239.105Z" fill="white"/>
<path fill-rule="evenodd" clip-rule="evenodd" d="M181.131 675H197.883V725.891H200.215V675H216.967V742.643H181.131V675ZM181.979 675.848V741.795H216.119V675.848H201.063V726.74H197.034V675.848H181.979Z" fill="white"/>
<path fill-rule="evenodd" clip-rule="evenodd" d="M139.909 675H175.745V742.643H139.909V675ZM140.757 675.848V741.795H174.897V675.848H140.757ZM155.812 690.904H159.841V726.74H155.812V690.904ZM156.66 691.752V725.891H158.993V691.752H156.66Z" fill="white"/>
<path fill-rule="evenodd" clip-rule="evenodd" d="M98.6868 675H115.439V725.891H117.771V675H134.523V761.727H98.6868V744.976H117.771V742.643H98.6868V675ZM99.535 675.848V741.795H118.619V745.824H99.535V760.879H133.675V675.848H118.619V726.74H114.59V675.848H99.535Z" fill="white"/>
<path d="M477.87 741.795V675H493.774V694.084H512.858V709.988H493.774V725.891H496.954V713.169H512.858V741.795H477.87Z" fill="white"/>
<path d="M455.732 706.807V690.904H452.552V706.807H455.732ZM436.648 741.795V675H471.636V722.711H452.552V725.891H471.636V741.795H436.648Z" fill="white"/>
<path d="M395.426 741.795V675H411.33V700.446H414.51V675H430.414V703.626L427.233 706.807V709.988L430.414 713.169V741.795H414.51V716.349H411.33V741.795H395.426Z" fill="white"/>
<path d="M354.204 741.795V675H389.192V690.904H370.108V725.891H389.192V741.795H354.204Z" fill="white"/>
<path d="M332.066 725.891V690.904H328.885V725.891H332.066ZM312.982 741.795V675H347.97V741.795H312.982Z" fill="white"/>
<path d="M290.844 706.807V690.904H287.664V706.807H290.844ZM271.76 741.795V675H306.748V722.711H287.664V741.795H271.76Z" fill="white"/>
<g filter="url(#filter0_d_353_5114)">
<path d="M365.298 262.613L355.164 258.918C354.895 258.82 354.612 258.767 354.327 258.761L348.936 258.65L274.117 640.949C306.331 646.422 334.401 641.303 338.458 609.33L355.347 448.319C355.703 444.924 355.58 441.497 354.982 438.136L353.549 430.088C352.957 426.76 352.83 423.366 353.174 420.004L368.692 268.03C368.934 265.66 367.536 263.429 365.298 262.613Z" fill="#1E1F20"/>
<path fill-rule="evenodd" clip-rule="evenodd" d="M354.34 258.111C354.697 258.119 355.051 258.185 355.387 258.307L365.521 262.002C368.038 262.92 369.611 265.43 369.339 268.096L353.821 420.071C353.484 423.373 353.608 426.706 354.189 429.974L355.622 438.022C356.231 441.443 356.356 444.932 355.994 448.387L339.104 609.405L339.103 609.412C338.077 617.498 335.527 623.925 331.742 628.922C327.955 633.92 322.957 637.453 317.087 639.787C305.37 644.445 290.156 644.334 274.009 641.591L273.351 641.479L348.403 257.988L354.34 258.111ZM354.941 259.529C354.74 259.456 354.527 259.416 354.313 259.412L349.469 259.311L274.884 640.419C290.699 643.039 305.376 643.042 316.606 638.578C322.287 636.319 327.081 632.92 330.705 628.136C334.329 623.353 336.809 617.153 337.812 609.256C337.812 609.253 337.812 609.251 337.813 609.249L354.7 448.252C355.05 444.918 354.929 441.551 354.341 438.25L352.909 430.202C352.306 426.815 352.177 423.361 352.527 419.938L368.045 267.964C368.256 265.891 367.033 263.938 365.075 263.224L354.941 259.529Z" fill="#BC68CF"/>
<path d="M276.436 641.206L111.618 617.616C106.117 616.829 102.205 611.859 102.733 606.327L136.294 254.433C136.424 253.067 137.593 252.037 138.965 252.08L351.958 258.683C353.47 258.73 354.623 260.052 354.464 261.556L317.818 608.971C315.653 629.503 296.873 644.132 276.436 641.206Z" fill="#1E1F20"/>
<path fill-rule="evenodd" clip-rule="evenodd" d="M351.978 258.033C353.868 258.092 355.31 259.744 355.111 261.625L318.465 609.04C316.261 629.938 297.145 644.828 276.343 641.851L111.526 618.261C105.681 617.424 101.525 612.143 102.086 606.265L135.647 254.371C135.81 252.664 137.27 251.377 138.985 251.43L351.978 258.033ZM353.818 261.488C353.937 260.36 353.072 259.369 351.938 259.333L138.945 252.73C137.916 252.698 137.039 253.47 136.942 254.495L103.381 606.389C102.886 611.575 106.553 616.235 111.71 616.973L276.528 640.563C296.6 643.436 315.045 629.068 317.172 608.903L353.818 261.488Z" fill="#BC68CF"/>
<path fill-rule="evenodd" clip-rule="evenodd" d="M152.553 456.804C151.48 456.702 150.527 457.489 150.425 458.562L149.128 472.166C148.957 473.954 147.369 475.265 145.581 475.094L137.07 474.283C135.997 474.18 135.045 474.967 134.943 476.04L133.855 487.448C133.754 488.497 134.506 489.436 135.551 489.569L143.574 490.587C145.316 490.809 146.568 492.374 146.401 494.122L145.084 507.936C144.982 509.009 145.768 509.961 146.841 510.063L157.805 511.109C158.878 511.211 159.831 510.425 159.933 509.352L161.237 495.675C161.41 493.86 163.042 492.541 164.854 492.754L175.489 494.002C176.576 494.13 177.555 493.339 177.659 492.249L178.734 480.978C178.836 479.906 178.049 478.953 176.976 478.851L166.207 477.823C164.419 477.653 163.107 476.065 163.278 474.277L164.647 459.918C164.75 458.845 163.963 457.893 162.89 457.79L152.553 456.804ZM149.13 458.438C149.301 456.65 150.888 455.339 152.676 455.51L163.014 456.495C164.802 456.666 166.113 458.254 165.942 460.042L164.573 474.401C164.471 475.474 165.257 476.426 166.33 476.529L177.1 477.556C178.888 477.726 180.199 479.314 180.029 481.102L178.954 492.373C178.78 494.188 177.148 495.507 175.337 495.294L164.702 494.046C163.615 493.918 162.636 494.709 162.532 495.799L161.228 509.475C161.057 511.263 159.47 512.575 157.682 512.404L146.718 511.358C144.93 511.188 143.618 509.6 143.789 507.812L145.106 493.999C145.206 492.95 144.455 492.011 143.41 491.878L135.387 490.859C133.645 490.638 132.393 489.073 132.56 487.324L133.648 475.916C133.818 474.128 135.406 472.817 137.194 472.988L145.705 473.799C146.778 473.902 147.73 473.115 147.833 472.042L149.13 458.438Z" fill="#BC68CF"/>
<path d="M150.425 458.562C150.527 457.489 151.48 456.702 152.553 456.804L162.89 457.79C163.963 457.893 164.75 458.845 164.647 459.918L163.278 474.277C163.107 476.065 164.419 477.653 166.207 477.823L176.976 478.851C178.049 478.953 178.836 479.906 178.734 480.978L177.659 492.249C177.555 493.339 176.576 494.13 175.489 494.002L164.854 492.754C163.042 492.541 161.41 493.86 161.237 495.675L159.933 509.352C159.831 510.425 158.878 511.211 157.805 511.109L146.841 510.063C145.768 509.961 144.982 509.009 145.084 507.936L146.401 494.122C146.568 492.374 145.316 490.809 143.574 490.587L135.551 489.569C134.506 489.436 133.754 488.497 133.855 487.448L134.943 476.04C135.045 474.967 135.997 474.18 137.07 474.283L145.581 475.094C147.369 475.265 148.957 473.954 149.128 472.166L150.425 458.562Z" fill="#BC68CF"/>
<path d="M146.444 458.5L145.147 472.104C145.01 473.535 143.74 474.584 142.31 474.447L133.799 473.635C132.368 473.499 131.098 474.548 130.962 475.978L129.874 487.386C129.74 488.785 130.742 490.037 132.136 490.214L140.158 491.233C141.553 491.41 142.554 492.662 142.421 494.061L141.103 507.874C140.967 509.305 142.016 510.575 143.446 510.711L154.41 511.757C155.841 511.893 157.111 510.844 157.247 509.414L158.551 495.737C158.69 494.285 159.996 493.23 161.445 493.4L172.08 494.648C173.529 494.818 174.834 493.764 174.973 492.311L176.048 481.04C176.184 479.61 175.135 478.34 173.705 478.203L162.935 477.176C161.505 477.04 160.456 475.77 160.592 474.339L161.962 459.98C162.098 458.55 161.049 457.28 159.619 457.143L149.281 456.157C147.851 456.021 146.581 457.07 146.444 458.5Z" fill="#1E1F20"/>
<path fill-rule="evenodd" clip-rule="evenodd" d="M149.22 456.804C148.147 456.702 147.194 457.489 147.092 458.562L145.794 472.166C145.624 473.954 144.036 475.265 142.248 475.094L133.737 474.283C132.664 474.18 131.712 474.967 131.609 476.04L130.521 487.448C130.421 488.497 131.172 489.436 132.218 489.569L140.24 490.587C141.983 490.809 143.235 492.374 143.068 494.122L141.751 507.936C141.648 509.009 142.435 509.961 143.508 510.063L154.472 511.109C155.545 511.211 156.497 510.425 156.6 509.352L157.904 495.675C158.077 493.86 159.709 492.541 161.52 492.754L172.156 494.002C173.242 494.13 174.222 493.339 174.325 492.249L175.4 480.978C175.503 479.906 174.716 478.953 173.643 478.851L162.873 477.823C161.085 477.653 159.774 476.065 159.945 474.277L161.314 459.918C161.417 458.845 160.63 457.893 159.557 457.79L149.22 456.804ZM145.797 458.438C145.967 456.65 147.555 455.339 149.343 455.51L159.681 456.495C161.469 456.666 162.78 458.254 162.609 460.042L161.24 474.401C161.137 475.474 161.924 476.426 162.997 476.529L173.767 477.556C175.555 477.726 176.866 479.314 176.695 481.102L175.62 492.373C175.447 494.188 173.815 495.507 172.004 495.294L161.369 494.046C160.282 493.918 159.303 494.709 159.199 495.799L157.895 509.475C157.724 511.263 156.136 512.575 154.348 512.404L143.384 511.358C141.596 511.188 140.285 509.6 140.456 507.812L141.773 493.999C141.873 492.95 141.122 492.011 140.077 491.878L132.054 490.859C130.311 490.638 129.06 489.073 129.226 487.324L130.314 475.916C130.485 474.128 132.073 472.817 133.86 472.988L142.372 473.799C143.444 473.902 144.397 473.115 144.499 472.042L145.797 458.438Z" fill="#BC68CF"/>
<g filter="url(#filter1_d_353_5114)">
<path d="M222.432 469.318C222.099 472.806 219.225 475.385 216.011 475.078C212.798 474.772 210.463 471.696 210.795 468.208C211.128 464.721 214.003 462.142 217.216 462.448C220.429 462.755 222.765 465.831 222.432 469.318Z" fill="#1E1F20"/>
</g>
<g filter="url(#filter2_d_353_5114)">
<path fill-rule="evenodd" clip-rule="evenodd" d="M216.135 473.783C218.535 474.012 220.863 472.069 221.137 469.195C221.411 466.32 219.493 463.972 217.092 463.743C214.692 463.514 212.365 465.458 212.09 468.332C211.816 471.206 213.735 473.554 216.135 473.783ZM216.011 475.078C219.225 475.385 222.099 472.806 222.432 469.318C222.765 465.831 220.429 462.755 217.216 462.448C214.003 462.142 211.128 464.721 210.795 468.208C210.463 471.696 212.798 474.772 216.011 475.078Z" fill="#BC68CF"/>
</g>
<path fill-rule="evenodd" clip-rule="evenodd" d="M259.739 505.49C264.585 505.952 269.1 502.046 269.628 496.518C270.155 490.989 266.459 486.3 261.613 485.838C256.767 485.376 252.252 489.281 251.724 494.81C251.197 500.339 254.893 505.028 259.739 505.49ZM259.615 506.785C265.274 507.325 270.337 502.783 270.923 496.641C271.508 490.499 267.396 485.083 261.737 484.543C256.078 484.003 251.015 488.545 250.429 494.687C249.844 500.829 253.956 506.245 259.615 506.785Z" fill="#BC68CF"/>
<path fill-rule="evenodd" clip-rule="evenodd" d="M281.968 485.166C286.814 485.628 291.33 481.722 291.857 476.193C292.384 470.664 288.688 465.975 283.842 465.513C278.996 465.051 274.481 468.957 273.954 474.486C273.426 480.014 277.122 484.703 281.968 485.166ZM281.845 486.461C287.504 487 292.566 482.459 293.152 476.317C293.738 470.175 289.625 464.758 283.966 464.218C278.307 463.679 273.244 468.22 272.659 474.362C272.073 480.504 276.185 485.921 281.845 486.461Z" fill="#BC68CF"/>
<path fill-rule="evenodd" clip-rule="evenodd" d="M299.552 510.037C304.398 510.499 308.914 506.593 309.441 501.065C309.968 495.536 306.272 490.847 301.426 490.385C296.58 489.923 292.065 493.828 291.538 499.357C291.01 504.886 294.706 509.575 299.552 510.037ZM299.429 511.332C305.088 511.872 310.15 507.33 310.736 501.188C311.322 495.046 307.209 489.629 301.55 489.09C295.891 488.55 290.828 493.092 290.243 499.234C289.657 505.376 293.769 510.792 299.429 511.332Z" fill="#BC68CF"/>
<path fill-rule="evenodd" clip-rule="evenodd" d="M277.655 530.393C282.501 530.855 287.016 526.949 287.544 521.421C288.071 515.892 284.375 511.203 279.529 510.741C274.683 510.279 270.168 514.184 269.64 519.713C269.113 525.242 272.809 529.931 277.655 530.393ZM277.531 531.688C283.19 532.228 288.253 527.686 288.839 521.544C289.424 515.402 285.312 509.986 279.653 509.446C273.994 508.906 268.931 513.448 268.345 519.59C267.76 525.732 271.872 531.148 277.531 531.688Z" fill="#BC68CF"/>
<path d="M291.857 476.193C291.33 481.722 286.814 485.628 281.968 485.166C277.122 484.703 273.426 480.014 273.954 474.486C274.481 468.957 278.996 465.051 283.842 465.513C288.688 465.975 292.384 470.664 291.857 476.193Z" fill="#BC68CF"/>
<path d="M309.441 501.065C308.914 506.593 304.398 510.499 299.552 510.037C294.706 509.575 291.01 504.886 291.538 499.357C292.065 493.828 296.58 489.923 301.426 490.385C306.272 490.847 309.968 495.536 309.441 501.065Z" fill="#BC68CF"/>
<path d="M269.628 496.518C269.1 502.046 264.585 505.952 259.739 505.49C254.893 505.028 251.197 500.339 251.724 494.81C252.252 489.281 256.767 485.376 261.613 485.838C266.459 486.3 270.155 490.989 269.628 496.518Z" fill="#BC68CF"/>
<path d="M287.544 521.421C287.016 526.949 282.501 530.855 277.655 530.393C272.809 529.931 269.113 525.242 269.64 519.713C270.168 514.184 274.683 510.279 279.529 510.741C284.375 511.203 288.071 515.892 287.544 521.421Z" fill="#BC68CF"/>
<path d="M267.589 496.641C267.003 502.783 261.941 507.325 256.282 506.785C250.623 506.245 246.51 500.829 247.096 494.687C247.681 488.545 252.744 484.003 258.403 484.543C264.062 485.082 268.175 490.499 267.589 496.641Z" fill="#1E1F20"/>
<path fill-rule="evenodd" clip-rule="evenodd" d="M256.405 505.49C261.251 505.952 265.767 502.046 266.294 496.518C266.821 490.989 263.125 486.3 258.279 485.838C253.433 485.375 248.918 489.281 248.391 494.81C247.863 500.339 251.559 505.028 256.405 505.49ZM256.282 506.785C261.941 507.325 267.003 502.783 267.589 496.641C268.175 490.499 264.062 485.082 258.403 484.543C252.744 484.003 247.681 488.545 247.096 494.687C246.51 500.829 250.623 506.245 256.282 506.785Z" fill="#BC68CF"/>
<path d="M289.818 476.317C289.232 482.459 284.17 487 278.511 486.461C272.852 485.921 268.739 480.504 269.325 474.362C269.911 468.22 274.973 463.679 280.632 464.218C286.291 464.758 290.404 470.175 289.818 476.317Z" fill="#1E1F20"/>
<path fill-rule="evenodd" clip-rule="evenodd" d="M278.634 485.166C283.48 485.628 287.996 481.722 288.523 476.193C289.05 470.665 285.355 465.976 280.509 465.513C275.663 465.051 271.147 468.957 270.62 474.486C270.093 480.015 273.788 484.703 278.634 485.166ZM278.511 486.461C284.17 487 289.232 482.459 289.818 476.317C290.404 470.175 286.291 464.758 280.632 464.218C274.973 463.679 269.911 468.22 269.325 474.362C268.739 480.504 272.852 485.921 278.511 486.461Z" fill="#BC68CF"/>
<path d="M307.402 501.188C306.816 507.33 301.754 511.871 296.095 511.332C290.436 510.792 286.323 505.375 286.909 499.233C287.495 493.091 292.557 488.55 298.216 489.09C303.875 489.629 307.988 495.046 307.402 501.188Z" fill="#1E1F20"/>
<path fill-rule="evenodd" clip-rule="evenodd" d="M296.218 510.037C301.064 510.499 305.58 506.593 306.107 501.064C306.634 495.536 302.939 490.847 298.093 490.385C293.247 489.922 288.731 493.828 288.204 499.357C287.677 504.886 291.372 509.575 296.218 510.037ZM296.095 511.332C301.754 511.871 306.816 507.33 307.402 501.188C307.988 495.046 303.875 489.629 298.216 489.09C292.557 488.55 287.495 493.091 286.909 499.233C286.323 505.375 290.436 510.792 296.095 511.332Z" fill="#BC68CF"/>
<path d="M285.505 521.544C284.919 527.686 279.857 532.227 274.198 531.688C268.539 531.148 264.426 525.731 265.012 519.589C265.597 513.447 270.66 508.906 276.319 509.446C281.978 509.985 286.091 515.402 285.505 521.544Z" fill="#1E1F20"/>
<path fill-rule="evenodd" clip-rule="evenodd" d="M274.321 530.393C279.167 530.855 283.683 526.949 284.21 521.42C284.737 515.892 281.041 511.203 276.195 510.74C271.349 510.278 266.834 514.184 266.307 519.713C265.779 525.242 269.475 529.931 274.321 530.393ZM274.198 531.688C279.857 532.227 284.919 527.686 285.505 521.544C286.091 515.402 281.978 509.985 276.319 509.446C270.66 508.906 265.597 513.447 265.012 519.589C264.426 525.731 268.539 531.148 274.198 531.688Z" fill="#BC68CF"/>
<g filter="url(#filter3_d_353_5114)">
<path d="M187.088 520.157C186.041 518.26 186.729 515.873 188.626 514.826L201.219 507.872C203.116 506.824 205.503 507.513 206.55 509.41V509.41C207.597 511.306 206.909 513.693 205.012 514.741L192.419 521.695C190.522 522.742 188.136 522.053 187.088 520.157V520.157Z" fill="#1E1F20"/>
</g>
<g filter="url(#filter4_d_353_5114)">
<path fill-rule="evenodd" clip-rule="evenodd" d="M201.848 509.01L189.255 515.964C187.987 516.664 187.527 518.26 188.227 519.528C188.927 520.796 190.523 521.256 191.79 520.556L204.383 513.602C205.651 512.902 206.111 511.306 205.411 510.038C204.711 508.77 203.116 508.31 201.848 509.01ZM188.626 514.826C186.729 515.873 186.041 518.26 187.088 520.157C188.136 522.053 190.522 522.742 192.419 521.695L205.012 514.741C206.909 513.693 207.597 511.306 206.55 509.41C205.503 507.513 203.116 506.824 201.219 507.872L188.626 514.826Z" fill="#BC68CF"/>
</g>
<g filter="url(#filter5_d_353_5114)">
<path d="M217.83 523.666C216.783 521.77 217.472 519.383 219.368 518.335L231.961 511.381C233.858 510.334 236.245 511.022 237.292 512.919V512.919C238.34 514.816 237.651 517.203 235.754 518.25L223.161 525.204C221.265 526.252 218.878 525.563 217.83 523.666V523.666Z" fill="#1E1F20"/>
</g>
<g filter="url(#filter6_d_353_5114)">
<path fill-rule="evenodd" clip-rule="evenodd" d="M232.59 512.52L219.997 519.474C218.729 520.174 218.269 521.77 218.969 523.038C219.669 524.305 221.265 524.766 222.533 524.066L235.125 517.112C236.393 516.411 236.854 514.816 236.153 513.548C235.453 512.28 233.858 511.82 232.59 512.52ZM219.368 518.335C217.472 519.383 216.783 521.77 217.83 523.666C218.878 525.563 221.265 526.252 223.161 525.204L235.754 518.25C237.651 517.203 238.34 514.816 237.292 512.919C236.245 511.022 233.858 510.334 231.961 511.381L219.368 518.335Z" fill="#BC68CF"/>
</g>
<rect width="31.3471" height="35.4058" transform="translate(286.987 581.604) rotate(54.957)" fill="#1E1F20"/>
<path d="M285.681 582.52C286.402 582.014 287.397 582.188 287.903 582.91L304.07 605.962C304.576 606.683 304.401 607.678 303.68 608.184V608.184C302.959 608.69 301.964 608.515 301.458 607.794L285.291 584.742C284.785 584.021 284.959 583.026 285.681 582.52V582.52Z" fill="#1E1F20"/>
<path fill-rule="evenodd" clip-rule="evenodd" d="M303.538 606.335L287.371 583.283C287.071 582.856 286.482 582.752 286.054 583.052C285.627 583.352 285.524 583.941 285.823 584.368L301.99 607.421C302.29 607.848 302.879 607.951 303.307 607.652C303.734 607.352 303.837 606.763 303.538 606.335ZM287.903 582.91C287.397 582.188 286.402 582.014 285.681 582.52C284.959 583.026 284.785 584.021 285.291 584.742L301.458 607.794C301.964 608.515 302.959 608.69 303.68 608.184C304.401 607.678 304.576 606.683 304.07 605.962L287.903 582.91Z" fill="#BC68CF"/>
<path d="M280.406 586.219C281.127 585.713 282.122 585.888 282.628 586.609L298.795 609.662C299.301 610.383 299.127 611.378 298.405 611.884V611.884C297.684 612.39 296.689 612.215 296.183 611.494L280.016 588.442C279.51 587.72 279.685 586.725 280.406 586.219V586.219Z" fill="#1E1F20"/>
<path fill-rule="evenodd" clip-rule="evenodd" d="M298.263 610.035L282.096 586.983C281.796 586.556 281.207 586.452 280.779 586.752C280.352 587.052 280.249 587.641 280.548 588.068L296.715 611.12C297.015 611.548 297.604 611.651 298.032 611.351C298.459 611.052 298.562 610.462 298.263 610.035ZM282.628 586.609C282.122 585.888 281.127 585.713 280.406 586.219C279.685 586.725 279.51 587.72 280.016 588.442L296.183 611.494C296.689 612.215 297.684 612.39 298.405 611.884C299.127 611.378 299.301 610.383 298.795 609.662L282.628 586.609Z" fill="#BC68CF"/>
<path d="M275.131 589.919C275.852 589.413 276.847 589.587 277.353 590.309L293.52 613.361C294.026 614.082 293.851 615.077 293.13 615.583V615.583C292.408 616.089 291.413 615.914 290.907 615.193L274.74 592.141C274.234 591.419 274.409 590.424 275.131 589.919V589.919Z" fill="#1E1F20"/>
<path fill-rule="evenodd" clip-rule="evenodd" d="M292.987 613.734L276.82 590.682C276.521 590.255 275.931 590.151 275.504 590.451C275.077 590.751 274.973 591.34 275.273 591.767L291.44 614.819C291.74 615.247 292.329 615.35 292.756 615.051C293.184 614.751 293.287 614.162 292.987 613.734ZM277.353 590.309C276.847 589.587 275.852 589.413 275.131 589.919C274.409 590.424 274.234 591.419 274.74 592.141L290.907 615.193C291.413 615.914 292.408 616.089 293.13 615.583C293.851 615.077 294.026 614.082 293.52 613.361L277.353 590.309Z" fill="#BC68CF"/>
<path d="M269.856 593.618C270.577 593.112 271.572 593.287 272.078 594.008L288.245 617.06C288.751 617.782 288.576 618.777 287.855 619.283V619.283C287.134 619.789 286.139 619.614 285.633 618.893L269.466 595.841C268.96 595.119 269.134 594.124 269.856 593.618V593.618Z" fill="#1E1F20"/>
<path fill-rule="evenodd" clip-rule="evenodd" d="M287.713 617.434L271.546 594.382C271.246 593.955 270.657 593.851 270.229 594.151C269.802 594.45 269.699 595.04 269.998 595.467L286.165 618.519C286.465 618.946 287.054 619.05 287.482 618.75C287.909 618.451 288.012 617.861 287.713 617.434ZM272.078 594.008C271.572 593.287 270.577 593.112 269.856 593.618C269.134 594.124 268.96 595.119 269.466 595.841L285.633 618.893C286.139 619.614 287.134 619.789 287.855 619.283C288.576 618.777 288.751 617.782 288.245 617.06L272.078 594.008Z" fill="#BC68CF"/>
<path d="M264.581 597.317C265.302 596.812 266.297 596.986 266.803 597.708L282.97 620.76C283.476 621.481 283.301 622.476 282.58 622.982V622.982C281.859 623.488 280.864 623.313 280.358 622.592L264.191 599.54C263.685 598.818 263.859 597.823 264.581 597.317V597.317Z" fill="#1E1F20"/>
<path fill-rule="evenodd" clip-rule="evenodd" d="M282.438 621.133L266.271 598.081C265.971 597.654 265.382 597.55 264.954 597.85C264.527 598.15 264.423 598.739 264.723 599.166L280.89 622.218C281.19 622.646 281.779 622.749 282.206 622.449C282.634 622.15 282.737 621.56 282.438 621.133ZM266.803 597.708C266.297 596.986 265.302 596.812 264.581 597.317C263.859 597.823 263.685 598.818 264.191 599.54L280.358 622.592C280.864 623.313 281.859 623.488 282.58 622.982C283.301 622.476 283.476 621.481 282.97 620.76L266.803 597.708Z" fill="#BC68CF"/>
<path d="M259.306 601.017C260.027 600.511 261.022 600.686 261.528 601.407L277.695 624.459C278.201 625.181 278.026 626.176 277.305 626.682V626.682C276.584 627.188 275.589 627.013 275.083 626.292L258.916 603.239C258.41 602.518 258.584 601.523 259.306 601.017V601.017Z" fill="#1E1F20"/>
<path fill-rule="evenodd" clip-rule="evenodd" d="M277.163 624.833L260.996 601.781C260.696 601.353 260.107 601.25 259.679 601.55C259.252 601.849 259.149 602.439 259.448 602.866L275.615 625.918C275.915 626.345 276.504 626.449 276.932 626.149C277.359 625.85 277.462 625.26 277.163 624.833ZM261.528 601.407C261.022 600.686 260.027 600.511 259.306 601.017C258.584 601.523 258.41 602.518 258.916 603.239L275.083 626.292C275.589 627.013 276.584 627.188 277.305 626.682C278.026 626.176 278.201 625.181 277.695 624.459L261.528 601.407Z" fill="#BC68CF"/>
<path fill-rule="evenodd" clip-rule="evenodd" d="M339.341 496.168C339.699 496.202 339.961 496.52 339.927 496.877L336.801 529.654C336.767 530.011 336.449 530.273 336.092 530.239C335.734 530.205 335.472 529.888 335.506 529.53L338.632 496.754C338.666 496.396 338.983 496.134 339.341 496.168Z" fill="#BC68CF"/>
<g filter="url(#filter7_d_353_5114)">
<path d="M356.405 297.697C356.559 296.089 357.986 294.909 359.595 295.063V295.063C361.203 295.216 362.382 296.644 362.229 298.252L360.555 315.798C360.402 317.406 358.974 318.585 357.366 318.432V318.432C355.758 318.279 354.578 316.851 354.732 315.243L356.405 297.697Z" fill="#1E1F20"/>
</g>
<g filter="url(#filter8_d_353_5114)">
<path fill-rule="evenodd" clip-rule="evenodd" d="M359.26 315.674L360.934 298.129C361.019 297.236 360.364 296.443 359.471 296.358C358.578 296.273 357.785 296.927 357.7 297.82L356.027 315.366C355.942 316.259 356.596 317.052 357.489 317.137C358.382 317.222 359.175 316.567 359.26 315.674ZM359.595 295.063C357.986 294.909 356.559 296.089 356.405 297.697L354.732 315.243C354.578 316.851 355.758 318.279 357.366 318.432C358.974 318.585 360.402 317.406 360.555 315.798L362.229 298.252C362.382 296.644 361.203 295.216 359.595 295.063Z" fill="#BC68CF"/>
</g>
<g filter="url(#filter9_d_353_5114)">
<path d="M351.959 335.917C352.113 334.309 353.541 333.13 355.149 333.283V333.283C356.757 333.436 357.936 334.864 357.783 336.473L357.012 344.553C356.859 346.161 355.431 347.34 353.823 347.187V347.187C352.215 347.034 351.035 345.606 351.189 343.998L351.959 335.917Z" fill="#1E1F20"/>
</g>
<g filter="url(#filter10_d_353_5114)">
<path fill-rule="evenodd" clip-rule="evenodd" d="M355.717 344.429L356.488 336.349C356.573 335.456 355.918 334.663 355.025 334.578C354.132 334.493 353.339 335.148 353.254 336.041L352.484 344.121C352.399 345.014 353.053 345.807 353.946 345.892C354.839 345.977 355.632 345.322 355.717 344.429ZM355.149 333.283C353.541 333.13 352.113 334.309 351.959 335.917L351.189 343.998C351.035 345.606 352.215 347.034 353.823 347.187C355.431 347.34 356.859 346.161 357.012 344.553L357.783 336.473C357.936 334.864 356.757 333.436 355.149 333.283Z" fill="#BC68CF"/>
</g>
<path d="M124.282 423.28L139.808 260.484C139.938 259.119 141.105 258.089 142.476 258.13L338.233 263.991C339.736 264.036 340.888 265.342 340.745 266.839L324.009 442.329C323.872 443.759 322.602 444.808 321.172 444.672L126.625 426.117C125.194 425.981 124.145 424.711 124.282 423.28Z" fill="#1E1F20" stroke="#BC68CF" stroke-width="1.30083" stroke-linecap="round"/>
<path d="M165.399 594.426C178.641 594.592 189.531 582.479 189.721 567.37C189.912 552.26 179.331 539.876 166.089 539.709C156.619 539.59 148.353 545.75 144.342 554.795L141.888 569.957C143.101 583.581 153.102 594.27 165.399 594.426Z" fill="#1E1F20"/>
<path fill-rule="evenodd" clip-rule="evenodd" d="M165.415 593.125C177.783 593.281 188.237 581.911 188.421 567.353C188.604 552.796 178.441 541.166 166.072 541.01C157.267 540.899 149.463 546.596 145.599 555.17L143.198 570.002C144.429 583.032 153.973 592.981 165.415 593.125ZM141.888 569.957L144.342 554.795C148.353 545.75 156.619 539.59 166.089 539.709C179.331 539.876 189.912 552.26 189.721 567.37C189.531 582.479 178.641 594.592 165.399 594.426C153.102 594.27 143.101 583.581 141.888 569.957Z" fill="#BC68CF"/>
<path d="M180.043 566.856C180.633 558.167 175.672 550.496 168.428 547.925L165.268 584.175C173.125 582.906 179.435 575.815 180.043 566.856Z" fill="#1E1F20"/>
<path fill-rule="evenodd" clip-rule="evenodd" d="M167.278 546.136L168.863 546.699C176.705 549.482 181.966 557.725 181.341 566.944C180.696 576.447 173.987 584.084 165.475 585.459L163.827 585.725L167.278 546.136ZM168.428 547.925L165.268 584.175C165.716 584.102 166.16 584.011 166.597 583.901C173.827 582.09 179.47 575.304 180.043 566.855C180.598 558.681 176.24 551.407 169.689 548.434C169.277 548.247 168.857 548.077 168.428 547.925Z" fill="#BC68CF"/>
<path d="M178.028 566.62C177.23 578.386 168.286 587.362 158.052 586.668C147.818 585.973 140.169 575.872 140.968 564.105C141.766 552.338 150.71 543.363 160.944 544.057C171.178 544.752 178.827 554.853 178.028 566.62Z" fill="#1E1F20"/>
<path fill-rule="evenodd" clip-rule="evenodd" d="M158.14 585.37C167.493 586.005 175.968 577.758 176.73 566.532C177.492 555.306 170.209 545.99 160.856 545.355C151.503 544.72 143.027 552.967 142.266 564.193C141.504 575.419 148.787 584.735 158.14 585.37ZM158.052 586.668C168.286 587.362 177.23 578.386 178.028 566.62C178.827 554.853 171.178 544.752 160.944 544.057C150.71 543.363 141.766 552.338 140.968 564.105C140.169 575.872 147.818 585.973 158.052 586.668Z" fill="#BC68CF"/>
<path d="M172.707 566.295C172.05 575.964 164.967 583.358 156.885 582.81C148.803 582.261 142.783 573.978 143.439 564.309C144.095 554.64 151.179 547.246 159.261 547.795C167.343 548.343 173.363 556.626 172.707 566.295Z" fill="#1E1F20"/>
<path fill-rule="evenodd" clip-rule="evenodd" d="M156.973 581.512C164.13 581.998 170.786 575.387 171.409 566.207C172.032 557.027 166.33 549.578 159.173 549.093C152.016 548.607 145.36 555.217 144.737 564.397C144.114 573.577 149.816 581.026 156.973 581.512ZM156.885 582.81C164.967 583.358 172.05 575.964 172.707 566.295C173.363 556.626 167.343 548.343 159.261 547.795C151.179 547.246 144.095 554.64 143.439 564.309C142.783 573.978 148.803 582.261 156.885 582.81Z" fill="#BC68CF"/>
</g>
<path d="M437.563 296.081H441.229V307.081H437.563V310.748H433.896V314.415H430.229V318.081H426.563V321.748H422.896V318.081H419.229V314.415H415.563V310.748H411.896V307.081H408.229V296.081H411.896V292.415H422.896V296.081H426.563V292.415H437.563V296.081Z" fill="#E4B8E9"/>
<path d="M471.607 319.235H474.607V328.235H471.607V331.235H468.607V334.235H465.607V337.235H462.607V340.235H459.607V337.235H456.607V334.235H453.607V331.235H450.607V328.235H447.607V319.235H450.607V316.235H459.607V319.235H462.607V316.235H471.607V319.235Z" fill="#E4B8E9"/>
<path d="M492.607 261.748H497.607V276.748H492.607V281.748H487.607V286.748H482.607V291.748H477.607V296.748H472.607V291.748H467.607V286.748H462.607V281.748H457.607V276.748H452.607V261.748H457.607V256.748H472.607V261.748H477.607V256.748H492.607V261.748Z" fill="#E4B8E9"/>
</g>
<defs>
<filter id="filter0_d_353_5114" x="33.8849" y="183.278" width="403.634" height="528.373" filterUnits="userSpaceOnUse" color-interpolation-filters="sRGB">
<feFlood flood-opacity="0" result="BackgroundImageFix"/>
<feColorMatrix in="SourceAlpha" type="matrix" values="0 0 0 0 0 0 0 0 0 0 0 0 0 0 0 0 0 0 127 0" result="hardAlpha"/>
<feOffset/>
<feGaussianBlur stdDeviation="34.075"/>
<feComposite in2="hardAlpha" operator="out"/>
<feColorMatrix type="matrix" values="0 0 0 0 0.737255 0 0 0 0 0.407843 0 0 0 0 0.811765 0 0 0 0.4 0"/>
<feBlend mode="normal" in2="BackgroundImageFix" result="effect1_dropShadow_353_5114"/>
<feBlend mode="normal" in="SourceGraphic" in2="effect1_dropShadow_353_5114" result="shape"/>
</filter>
<filter id="filter1_d_353_5114" x="210.764" y="462.424" width="13.0005" height="12.6792" filterUnits="userSpaceOnUse" color-interpolation-filters="sRGB">
<feFlood flood-opacity="0" result="BackgroundImageFix"/>
<feColorMatrix in="SourceAlpha" type="matrix" values="0 0 0 0 0 0 0 0 0 0 0 0 0 0 0 0 0 0 127 0" result="hardAlpha"/>
<feOffset dx="1.30083"/>
<feComposite in2="hardAlpha" operator="out"/>
<feColorMatrix type="matrix" values="0 0 0 0 0.737255 0 0 0 0 0.407843 0 0 0 0 0.811765 0 0 0 1 0"/>
<feBlend mode="normal" in2="BackgroundImageFix" result="effect1_dropShadow_353_5114"/>
<feBlend mode="normal" in="SourceGraphic" in2="effect1_dropShadow_353_5114" result="shape"/>
</filter>
<filter id="filter2_d_353_5114" x="210.764" y="462.424" width="13.0005" height="12.6792" filterUnits="userSpaceOnUse" color-interpolation-filters="sRGB">
<feFlood flood-opacity="0" result="BackgroundImageFix"/>
<feColorMatrix in="SourceAlpha" type="matrix" values="0 0 0 0 0 0 0 0 0 0 0 0 0 0 0 0 0 0 127 0" result="hardAlpha"/>
<feOffset dx="1.30083"/>
<feComposite in2="hardAlpha" operator="out"/>
<feColorMatrix type="matrix" values="0 0 0 0 0.737255 0 0 0 0 0.407843 0 0 0 0 0.811765 0 0 0 1 0"/>
<feBlend mode="normal" in2="BackgroundImageFix" result="effect1_dropShadow_353_5114"/>
<feBlend mode="normal" in="SourceGraphic" in2="effect1_dropShadow_353_5114" result="shape"/>
</filter>
<filter id="filter3_d_353_5114" x="186.599" y="507.382" width="21.7417" height="15.4527" filterUnits="userSpaceOnUse" color-interpolation-filters="sRGB">
<feFlood flood-opacity="0" result="BackgroundImageFix"/>
<feColorMatrix in="SourceAlpha" type="matrix" values="0 0 0 0 0 0 0 0 0 0 0 0 0 0 0 0 0 0 127 0" result="hardAlpha"/>
<feOffset dx="1.30083" dy="0.650415"/>
<feComposite in2="hardAlpha" operator="out"/>
<feColorMatrix type="matrix" values="0 0 0 0 0.737255 0 0 0 0 0.407843 0 0 0 0 0.811765 0 0 0 1 0"/>
<feBlend mode="normal" in2="BackgroundImageFix" result="effect1_dropShadow_353_5114"/>
<feBlend mode="normal" in="SourceGraphic" in2="effect1_dropShadow_353_5114" result="shape"/>
</filter>
<filter id="filter4_d_353_5114" x="186.599" y="507.382" width="21.7417" height="15.4527" filterUnits="userSpaceOnUse" color-interpolation-filters="sRGB">
<feFlood flood-opacity="0" result="BackgroundImageFix"/>
<feColorMatrix in="SourceAlpha" type="matrix" values="0 0 0 0 0 0 0 0 0 0 0 0 0 0 0 0 0 0 127 0" result="hardAlpha"/>
<feOffset dx="1.30083" dy="0.650415"/>
<feComposite in2="hardAlpha" operator="out"/>
<feColorMatrix type="matrix" values="0 0 0 0 0.737255 0 0 0 0 0.407843 0 0 0 0 0.811765 0 0 0 1 0"/>
<feBlend mode="normal" in2="BackgroundImageFix" result="effect1_dropShadow_353_5114"/>
<feBlend mode="normal" in="SourceGraphic" in2="effect1_dropShadow_353_5114" result="shape"/>
</filter>
<filter id="filter5_d_353_5114" x="217.341" y="510.892" width="21.7417" height="15.4527" filterUnits="userSpaceOnUse" color-interpolation-filters="sRGB">
<feFlood flood-opacity="0" result="BackgroundImageFix"/>
<feColorMatrix in="SourceAlpha" type="matrix" values="0 0 0 0 0 0 0 0 0 0 0 0 0 0 0 0 0 0 127 0" result="hardAlpha"/>
<feOffset dx="1.30083" dy="0.650415"/>
<feComposite in2="hardAlpha" operator="out"/>
<feColorMatrix type="matrix" values="0 0 0 0 0.737255 0 0 0 0 0.407843 0 0 0 0 0.811765 0 0 0 1 0"/>
<feBlend mode="normal" in2="BackgroundImageFix" result="effect1_dropShadow_353_5114"/>
<feBlend mode="normal" in="SourceGraphic" in2="effect1_dropShadow_353_5114" result="shape"/>
</filter>
<filter id="filter6_d_353_5114" x="217.341" y="510.892" width="21.7417" height="15.4527" filterUnits="userSpaceOnUse" color-interpolation-filters="sRGB">
<feFlood flood-opacity="0" result="BackgroundImageFix"/>
<feColorMatrix in="SourceAlpha" type="matrix" values="0 0 0 0 0 0 0 0 0 0 0 0 0 0 0 0 0 0 127 0" result="hardAlpha"/>
<feOffset dx="1.30083" dy="0.650415"/>
<feComposite in2="hardAlpha" operator="out"/>
<feColorMatrix type="matrix" values="0 0 0 0 0.737255 0 0 0 0 0.407843 0 0 0 0 0.811765 0 0 0 1 0"/>
<feBlend mode="normal" in2="BackgroundImageFix" result="effect1_dropShadow_353_5114"/>
<feBlend mode="normal" in="SourceGraphic" in2="effect1_dropShadow_353_5114" result="shape"/>
</filter>
<filter id="filter7_d_353_5114" x="353.417" y="295.049" width="8.82476" height="23.396" filterUnits="userSpaceOnUse" color-interpolation-filters="sRGB">
<feFlood flood-opacity="0" result="BackgroundImageFix"/>
<feColorMatrix in="SourceAlpha" type="matrix" values="0 0 0 0 0 0 0 0 0 0 0 0 0 0 0 0 0 0 127 0" result="hardAlpha"/>
<feOffset dx="-1.30083"/>
<feComposite in2="hardAlpha" operator="out"/>
<feColorMatrix type="matrix" values="0 0 0 0 0.737255 0 0 0 0 0.407843 0 0 0 0 0.811765 0 0 0 1 0"/>
<feBlend mode="normal" in2="BackgroundImageFix" result="effect1_dropShadow_353_5114"/>
<feBlend mode="normal" in="SourceGraphic" in2="effect1_dropShadow_353_5114" result="shape"/>
</filter>
<filter id="filter8_d_353_5114" x="353.417" y="295.049" width="8.82476" height="23.396" filterUnits="userSpaceOnUse" color-interpolation-filters="sRGB">
<feFlood flood-opacity="0" result="BackgroundImageFix"/>
<feColorMatrix in="SourceAlpha" type="matrix" values="0 0 0 0 0 0 0 0 0 0 0 0 0 0 0 0 0 0 127 0" result="hardAlpha"/>
<feOffset dx="-1.30083"/>
<feComposite in2="hardAlpha" operator="out"/>
<feColorMatrix type="matrix" values="0 0 0 0 0.737255 0 0 0 0 0.407843 0 0 0 0 0.811765 0 0 0 1 0"/>
<feBlend mode="normal" in2="BackgroundImageFix" result="effect1_dropShadow_353_5114"/>
<feBlend mode="normal" in="SourceGraphic" in2="effect1_dropShadow_353_5114" result="shape"/>
</filter>
<filter id="filter9_d_353_5114" x="349.874" y="333.27" width="7.92192" height="13.9307" filterUnits="userSpaceOnUse" color-interpolation-filters="sRGB">
<feFlood flood-opacity="0" result="BackgroundImageFix"/>
<feColorMatrix in="SourceAlpha" type="matrix" values="0 0 0 0 0 0 0 0 0 0 0 0 0 0 0 0 0 0 127 0" result="hardAlpha"/>
<feOffset dx="-1.30083"/>
<feComposite in2="hardAlpha" operator="out"/>
<feColorMatrix type="matrix" values="0 0 0 0 0.737255 0 0 0 0 0.407843 0 0 0 0 0.811765 0 0 0 1 0"/>
<feBlend mode="normal" in2="BackgroundImageFix" result="effect1_dropShadow_353_5114"/>
<feBlend mode="normal" in="SourceGraphic" in2="effect1_dropShadow_353_5114" result="shape"/>
</filter>
<filter id="filter10_d_353_5114" x="349.874" y="333.27" width="7.92192" height="13.9307" filterUnits="userSpaceOnUse" color-interpolation-filters="sRGB">
<feFlood flood-opacity="0" result="BackgroundImageFix"/>
<feColorMatrix in="SourceAlpha" type="matrix" values="0 0 0 0 0 0 0 0 0 0 0 0 0 0 0 0 0 0 127 0" result="hardAlpha"/>
<feOffset dx="-1.30083"/>
<feComposite in2="hardAlpha" operator="out"/>
<feColorMatrix type="matrix" values="0 0 0 0 0.737255 0 0 0 0 0.407843 0 0 0 0 0.811765 0 0 0 1 0"/>
<feBlend mode="normal" in2="BackgroundImageFix" result="effect1_dropShadow_353_5114"/>
<feBlend mode="normal" in="SourceGraphic" in2="effect1_dropShadow_353_5114" result="shape"/>
</filter>
<clipPath id="clip0_353_5114">
<rect width="540" height="810" fill="white"/>
</clipPath>
</defs>
</svg>
