<svg width="1440" height="811" viewBox="0 0 1440 811" fill="none" xmlns="http://www.w3.org/2000/svg">
<rect width="1440" height="810" fill="#1E1F20"/>
<path d="M373.35 219.547V157.672H367.725V219.547H373.35ZM339.6 247.672V129.547H401.475V247.672H339.6Z" fill="white"/>
<path d="M300.45 185.797V157.672H294.825V185.797H300.45ZM266.7 247.672V129.547H328.575V185.797L322.95 191.422V197.047L328.575 202.672V247.672H300.45V208.297H294.825V247.672H266.7Z" fill="white"/>
<path d="M193.8 247.672V129.547H221.925V163.297H255.675V191.422H221.925V219.547H227.55V197.047H255.675V247.672H193.8Z" fill="white"/>
<path d="M154.65 185.797V157.672H149.025V185.797H154.65ZM120.9 247.672V129.547H182.775V213.922H149.025V219.547H182.775V247.672H120.9Z" fill="white"/>
<path d="M81.75 185.797V157.672H76.125V185.797H81.75ZM48 247.672V129.547H109.875V185.797L104.25 191.422V197.047L109.875 202.672V247.672H81.75V208.297H76.125V247.672H48Z" fill="white"/>
<path fill-rule="evenodd" clip-rule="evenodd" d="M823.725 128.797H887.1V169.672H857.475V158.422H853.35V173.797H887.1V248.422H823.725V207.547H853.35V218.797H857.475V203.422H823.725V128.797ZM825.225 130.297V201.922H858.975V220.297H851.85V209.047H825.225V246.922H885.6V175.297H851.85V156.922H858.975V168.172H885.6V130.297H825.225Z" fill="white"/>
<path fill-rule="evenodd" clip-rule="evenodd" d="M717.074 128.797H814.199V248.422H784.574V158.422H780.449V248.422H750.824V158.422H746.699V248.422H717.074V128.797ZM718.574 130.297V246.922H745.199V156.922H752.324V246.922H778.949V156.922H786.074V246.922H812.699V130.297H718.574Z" fill="white"/>
<path fill-rule="evenodd" clip-rule="evenodd" d="M644.175 128.797H707.55V214.672H677.925V197.797H673.8V214.672H644.175V128.797ZM645.675 130.297V213.172H672.3V196.297H679.425V213.172H706.05V130.297H645.675ZM672.3 156.922H679.425V169.672H672.3V156.922ZM673.8 158.422V168.172H677.925V158.422H673.8ZM644.175 218.797H707.55V248.422H644.175V218.797ZM645.675 220.297V246.922H706.05V220.297H645.675Z" fill="white"/>
<path fill-rule="evenodd" clip-rule="evenodd" d="M571.274 128.797H634.649V214.672H600.899V218.797H634.649V248.422H571.274V128.797ZM572.774 130.297V246.922H633.149V220.297H599.399V213.172H633.149V130.297H572.774ZM599.399 156.922H606.524V186.547H599.399V156.922ZM600.899 158.422V185.047H605.024V158.422H600.899Z" fill="white"/>
<path fill-rule="evenodd" clip-rule="evenodd" d="M498.375 128.797H561.75V186.108L556.125 191.733V196.736L561.75 202.361V248.422H532.125V209.047H528V248.422H498.375V128.797ZM499.875 130.297V246.922H526.5V207.547H533.625V246.922H560.25V202.983L554.625 197.358V191.111L560.25 185.486V130.297H499.875ZM526.5 156.922H533.625V186.547H526.5V156.922ZM528 158.422V185.047H532.125V158.422H528Z" fill="white"/>
<path fill-rule="evenodd" clip-rule="evenodd" d="M425.475 128.797H477.16L488.85 140.486V236.733L477.16 248.422H425.475V128.797ZM426.975 130.297V246.922H476.539L487.35 236.111V141.108L476.539 130.297H426.975ZM453.6 156.922H460.725V220.297H453.6V156.922ZM455.1 158.422V218.797H459.225V158.422H455.1Z" fill="white"/>
<path fill-rule="evenodd" clip-rule="evenodd" d="M572.15 609H635.525V728.625H605.9V638.625H601.775V728.625H572.15V609ZM573.65 610.5V727.125H600.275V637.125H607.4V727.125H634.025V610.5H573.65Z" fill="white"/>
<path fill-rule="evenodd" clip-rule="evenodd" d="M533 609H562.625V638.625H533V609ZM534.5 610.5V637.125H561.125V610.5H534.5ZM533 642.75H562.625V728.625H533V642.75ZM534.5 644.25V727.125H561.125V644.25H534.5Z" fill="white"/>
<path fill-rule="evenodd" clip-rule="evenodd" d="M878.226 609H941.601V666.311L935.976 671.936V676.939L941.601 682.564V728.625H911.976V689.25H907.851V728.625H878.226V609ZM879.726 610.5V727.125H906.351V687.75H913.476V727.125H940.101V683.186L934.476 677.561V671.314L940.101 665.689V610.5H879.726ZM906.351 637.125H913.476V666.75H906.351V637.125ZM907.851 638.625V665.25H911.976V638.625H907.851Z" fill="white"/>
<path fill-rule="evenodd" clip-rule="evenodd" d="M805.325 609H834.95V699H839.075V609H868.7V728.625H805.325V609ZM806.825 610.5V727.125H867.2V610.5H840.575V700.5H833.45V610.5H806.825Z" fill="white"/>
<path fill-rule="evenodd" clip-rule="evenodd" d="M732.426 609H795.801V728.625H732.426V609ZM733.926 610.5V727.125H794.301V610.5H733.926ZM760.551 637.125H767.676V700.5H760.551V637.125ZM762.051 638.625V699H766.176V638.625H762.051Z" fill="white"/>
<path fill-rule="evenodd" clip-rule="evenodd" d="M659.525 609H689.15V699H693.275V609H722.9V762.375H659.525V732.75H693.275V728.625H659.525V609ZM661.025 610.5V727.125H694.775V734.25H661.025V760.875H721.4V610.5H694.775V700.5H687.65V610.5H661.025Z" fill="white"/>
<path d="M1330.1 727.125V609H1358.22V642.75H1391.97V670.875H1358.22V699H1363.85V676.5H1391.97V727.125H1330.1Z" fill="white"/>
<path d="M1290.95 665.25V637.125H1285.32V665.25H1290.95ZM1257.2 727.125V609H1319.07V693.375H1285.32V699H1319.07V727.125H1257.2Z" fill="white"/>
<path d="M1184.3 727.125V609H1212.42V654H1218.05V609H1246.17V659.625L1240.55 665.25V670.875L1246.17 676.5V727.125H1218.05V682.125H1212.42V727.125H1184.3Z" fill="white"/>
<path d="M1111.4 727.125V609H1173.27V637.125H1139.52V699H1173.27V727.125H1111.4Z" fill="white"/>
<path d="M1072.25 699V637.125H1066.62V699H1072.25ZM1038.5 727.125V609H1100.37V727.125H1038.5Z" fill="white"/>
<path d="M999.35 665.25V637.125H993.725V665.25H999.35ZM965.6 727.125V609H1027.47V693.375H993.725V727.125H965.6Z" fill="white"/>
<g filter="url(#filter0_d_550_3723)">
<path d="M813.062 240.352L802.585 236.532C802.307 236.431 802.015 236.376 801.719 236.37L796.146 236.255L718.793 631.504C752.098 637.162 781.119 631.87 785.313 598.814L802.774 432.349C803.142 428.839 803.015 425.295 802.397 421.821L800.915 413.5C800.303 410.06 800.172 406.551 800.527 403.075L816.571 245.953C816.821 243.503 815.376 241.196 813.062 240.352Z" fill="#1E1F20"/>
<path fill-rule="evenodd" clip-rule="evenodd" d="M801.734 235.698C802.103 235.706 802.469 235.774 802.816 235.901L813.293 239.721C815.896 240.67 817.522 243.265 817.241 246.021L801.197 403.144C800.848 406.558 800.977 410.004 801.578 413.382L803.059 421.703C803.689 425.24 803.818 428.847 803.443 432.419L785.982 598.892L785.981 598.899C784.92 607.258 782.284 613.903 778.37 619.069C774.455 624.236 769.288 627.889 763.219 630.302C751.105 635.118 735.376 635.003 718.681 632.167L718.002 632.051L795.595 235.571L801.734 235.698ZM802.355 237.164C802.147 237.088 801.928 237.047 801.706 237.043L796.698 236.939L719.587 630.955C735.938 633.664 751.112 633.668 762.722 629.052C768.596 626.717 773.551 623.202 777.298 618.257C781.045 613.312 783.609 606.902 784.646 598.737C784.646 598.734 784.646 598.732 784.647 598.73L802.106 432.279C802.467 428.832 802.343 425.351 801.735 421.939L800.254 413.618C799.631 410.116 799.498 406.545 799.859 403.007L815.903 245.885C816.122 243.741 814.857 241.723 812.832 240.984L802.355 237.164Z" fill="#BC68CF"/>
<path d="M721.19 631.77L550.79 607.381C545.102 606.567 541.058 601.428 541.604 595.709L576.301 231.896C576.436 230.484 577.644 229.419 579.062 229.463L799.27 236.29C800.833 236.339 802.026 237.705 801.862 239.261L763.974 598.443C761.735 619.67 742.319 634.795 721.19 631.77Z" fill="#1E1F20"/>
<path fill-rule="evenodd" clip-rule="evenodd" d="M799.292 235.618C801.246 235.678 802.736 237.387 802.531 239.331L764.644 598.514C762.365 620.12 742.602 635.514 721.096 632.436L550.696 608.047C544.653 607.182 540.356 601.722 540.935 595.645L575.633 231.832C575.801 230.067 577.312 228.735 579.084 228.79L799.292 235.618ZM801.194 239.19C801.317 238.023 800.423 236.998 799.25 236.962L579.043 230.135C577.979 230.102 577.073 230.9 576.972 231.959L542.274 595.773C541.763 601.135 545.554 605.952 550.886 606.715L721.286 631.104C742.038 634.075 761.108 619.22 763.307 598.373L801.194 239.19Z" fill="#BC68CF"/>
<path fill-rule="evenodd" clip-rule="evenodd" d="M593.111 441.122C592.002 441.016 591.018 441.829 590.912 442.938L589.57 457.003C589.394 458.852 587.753 460.208 585.904 460.031L577.105 459.192C575.995 459.086 575.011 459.9 574.905 461.009L573.78 472.803C573.676 473.888 574.453 474.858 575.534 474.996L583.828 476.049C585.63 476.278 586.924 477.896 586.752 479.704L585.39 493.985C585.284 495.094 586.097 496.079 587.206 496.185L598.542 497.266C599.651 497.372 600.636 496.558 600.742 495.449L602.09 481.309C602.269 479.432 603.956 478.069 605.829 478.289L616.824 479.579C617.948 479.711 618.96 478.894 619.068 477.767L620.179 466.114C620.285 465.005 619.472 464.02 618.362 463.915L607.228 462.853C605.379 462.676 604.024 461.035 604.2 459.186L605.616 444.341C605.722 443.232 604.908 442.247 603.799 442.141L593.111 441.122ZM589.573 442.811C589.749 440.962 591.391 439.607 593.239 439.783L603.927 440.802C605.775 440.979 607.131 442.62 606.955 444.469L605.539 459.314C605.433 460.423 606.246 461.408 607.356 461.514L618.49 462.576C620.339 462.752 621.694 464.394 621.518 466.242L620.407 477.895C620.228 479.772 618.54 481.135 616.668 480.915L605.672 479.625C604.549 479.493 603.536 480.311 603.429 481.437L602.08 495.577C601.904 497.425 600.263 498.781 598.414 498.605L587.079 497.524C585.23 497.347 583.875 495.706 584.051 493.857L585.413 479.576C585.516 478.491 584.74 477.521 583.659 477.383L575.365 476.33C573.563 476.101 572.269 474.483 572.441 472.675L573.566 460.881C573.742 459.033 575.384 457.677 577.232 457.853L586.032 458.692C587.141 458.798 588.126 457.985 588.231 456.876L589.573 442.811Z" fill="#BC68CF"/>
<path d="M590.912 442.938C591.018 441.829 592.002 441.016 593.111 441.122L603.799 442.141C604.908 442.247 605.722 443.232 605.616 444.341L604.2 459.186C604.024 461.035 605.379 462.676 607.228 462.853L618.362 463.915C619.472 464.02 620.285 465.005 620.179 466.114L619.068 477.767C618.96 478.894 617.948 479.711 616.824 479.579L605.829 478.289C603.956 478.069 602.269 479.432 602.09 481.309L600.742 495.449C600.636 496.558 599.651 497.372 598.542 497.266L587.206 496.185C586.097 496.079 585.284 495.094 585.39 493.985L586.752 479.704C586.924 477.896 585.63 476.278 583.828 476.049L575.534 474.996C574.453 474.858 573.676 473.888 573.78 472.803L574.905 461.009C575.011 459.9 575.995 459.086 577.105 459.192L585.904 460.031C587.753 460.208 589.394 458.852 589.57 457.003L590.912 442.938Z" fill="#BC68CF"/>
<path d="M586.796 442.875L585.455 456.94C585.313 458.418 584 459.503 582.522 459.362L573.722 458.523C572.243 458.382 570.93 459.466 570.789 460.945L569.664 472.739C569.526 474.185 570.562 475.48 572.003 475.663L580.297 476.716C581.738 476.899 582.774 478.194 582.636 479.64L581.274 493.921C581.133 495.4 582.217 496.713 583.696 496.854L595.032 497.935C596.51 498.076 597.824 496.992 597.965 495.513L599.313 481.373C599.456 479.871 600.806 478.781 602.304 478.957L613.3 480.247C614.798 480.423 616.148 479.333 616.291 477.831L617.402 466.178C617.543 464.699 616.459 463.386 614.98 463.245L603.845 462.183C602.366 462.042 601.282 460.729 601.423 459.25L602.839 444.405C602.98 442.926 601.895 441.613 600.417 441.472L589.729 440.452C588.25 440.311 586.937 441.396 586.796 442.875Z" fill="#1E1F20"/>
<path fill-rule="evenodd" clip-rule="evenodd" d="M589.665 441.122C588.556 441.016 587.571 441.829 587.465 442.938L586.124 457.003C585.948 458.852 584.306 460.208 582.458 460.031L573.658 459.192C572.549 459.086 571.564 459.9 571.458 461.009L570.334 472.803C570.23 473.888 571.007 474.858 572.088 474.996L580.382 476.049C582.184 476.278 583.478 477.896 583.305 479.704L581.943 493.985C581.838 495.094 582.651 496.079 583.76 496.185L595.096 497.266C596.205 497.372 597.189 496.558 597.295 495.449L598.644 481.309C598.823 479.432 600.51 478.069 602.383 478.289L613.378 479.579C614.502 479.711 615.514 478.894 615.622 477.767L616.733 466.114C616.839 465.005 616.025 464.02 614.916 463.915L603.782 462.853C601.933 462.676 600.577 461.035 600.754 459.186L602.17 444.341C602.275 443.232 601.462 442.247 600.353 442.141L589.665 441.122ZM586.127 442.811C586.303 440.962 587.944 439.607 589.793 439.783L600.481 440.802C602.329 440.979 603.685 442.62 603.508 444.469L602.093 459.314C601.987 460.423 602.8 461.408 603.909 461.514L615.044 462.576C616.892 462.752 618.248 464.394 618.072 466.242L616.96 477.895C616.781 479.772 615.094 481.135 613.221 480.915L602.226 479.625C601.102 479.493 600.09 480.311 599.983 481.437L598.634 495.577C598.458 497.425 596.816 498.781 594.968 498.605L583.632 497.524C581.784 497.347 580.428 495.706 580.605 493.857L581.967 479.576C582.07 478.491 581.294 477.521 580.213 477.383L571.918 476.33C570.117 476.101 568.822 474.483 568.995 472.675L570.12 460.881C570.296 459.033 571.937 457.677 573.786 457.853L582.585 458.692C583.695 458.798 584.679 457.985 584.785 456.876L586.127 442.811Z" fill="#BC68CF"/>
<g filter="url(#filter1_d_550_3723)">
<path d="M665.358 454.06C665.014 457.666 662.042 460.332 658.72 460.015C655.398 459.698 652.984 456.518 653.328 452.912C653.671 449.307 656.643 446.641 659.966 446.957C663.288 447.274 665.702 450.454 665.358 454.06Z" fill="#1E1F20"/>
</g>
<g filter="url(#filter2_d_550_3723)">
<path fill-rule="evenodd" clip-rule="evenodd" d="M658.848 458.676C661.33 458.913 663.736 456.904 664.019 453.932C664.303 450.96 662.32 448.533 659.838 448.296C657.356 448.06 654.95 450.068 654.666 453.04C654.383 456.012 656.366 458.439 658.848 458.676ZM658.72 460.015C662.042 460.332 665.014 457.666 665.358 454.06C665.702 450.454 663.288 447.274 659.966 446.957C656.643 446.641 653.671 449.307 653.328 452.912C652.984 456.518 655.398 459.698 658.72 460.015Z" fill="#BC68CF"/>
</g>
<path fill-rule="evenodd" clip-rule="evenodd" d="M703.927 491.457C708.938 491.934 713.606 487.896 714.151 482.18C714.696 476.464 710.875 471.616 705.865 471.139C700.855 470.661 696.187 474.699 695.641 480.415C695.096 486.131 698.917 490.979 703.927 491.457ZM703.8 492.795C709.65 493.353 714.884 488.658 715.49 482.308C716.096 475.958 711.844 470.358 705.993 469.8C700.142 469.242 694.908 473.937 694.303 480.287C693.697 486.637 697.949 492.237 703.8 492.795Z" fill="#BC68CF"/>
<path fill-rule="evenodd" clip-rule="evenodd" d="M726.91 470.444C731.92 470.921 736.588 466.883 737.133 461.167C737.678 455.451 733.857 450.603 728.847 450.126C723.837 449.648 719.169 453.686 718.624 459.402C718.078 465.118 721.899 469.966 726.91 470.444ZM726.782 471.782C732.633 472.34 737.866 467.645 738.472 461.295C739.078 454.945 734.826 449.345 728.975 448.787C723.124 448.229 717.89 452.924 717.285 459.274C716.679 465.624 720.931 471.224 726.782 471.782Z" fill="#BC68CF"/>
<path fill-rule="evenodd" clip-rule="evenodd" d="M745.089 496.157C750.099 496.635 754.768 492.597 755.313 486.881C755.858 481.165 752.037 476.317 747.027 475.84C742.017 475.362 737.348 479.4 736.803 485.116C736.258 490.832 740.079 495.68 745.089 496.157ZM744.961 497.496C750.812 498.054 756.046 493.359 756.652 487.009C757.257 480.659 753.005 475.059 747.155 474.501C741.304 473.943 736.07 478.638 735.464 484.988C734.859 491.338 739.111 496.938 744.961 497.496Z" fill="#BC68CF"/>
<path fill-rule="evenodd" clip-rule="evenodd" d="M722.45 517.203C727.46 517.681 732.129 513.643 732.674 507.927C733.219 502.211 729.398 497.363 724.388 496.885C719.378 496.407 714.709 500.445 714.164 506.161C713.619 511.877 717.44 516.725 722.45 517.203ZM722.323 518.542C728.173 519.1 733.407 514.404 734.013 508.054C734.618 501.704 730.366 496.104 724.516 495.546C718.665 494.988 713.431 499.684 712.825 506.034C712.22 512.384 716.472 517.984 722.323 518.542Z" fill="#BC68CF"/>
<path d="M737.133 461.167C736.588 466.883 731.92 470.921 726.91 470.444C721.899 469.966 718.078 465.118 718.624 459.402C719.169 453.686 723.837 449.648 728.847 450.126C733.857 450.603 737.678 455.451 737.133 461.167Z" fill="#BC68CF"/>
<path d="M755.313 486.881C754.768 492.597 750.099 496.635 745.089 496.157C740.079 495.68 736.258 490.832 736.803 485.116C737.348 479.4 742.017 475.362 747.027 475.84C752.037 476.317 755.858 481.165 755.313 486.881Z" fill="#BC68CF"/>
<path d="M714.151 482.18C713.606 487.896 708.938 491.934 703.927 491.457C698.917 490.979 695.096 486.131 695.641 480.415C696.187 474.699 700.855 470.661 705.865 471.139C710.875 471.616 714.696 476.464 714.151 482.18Z" fill="#BC68CF"/>
<path d="M732.674 507.927C732.129 513.643 727.46 517.681 722.45 517.203C717.44 516.725 713.619 511.877 714.164 506.161C714.709 500.445 719.378 496.407 724.388 496.885C729.398 497.363 733.219 502.211 732.674 507.927Z" fill="#BC68CF"/>
<path d="M712.045 482.308C711.439 488.658 706.205 493.354 700.355 492.796C694.504 492.238 690.252 486.638 690.858 480.288C691.463 473.938 696.697 469.242 702.548 469.8C708.399 470.358 712.651 475.958 712.045 482.308Z" fill="#1E1F20"/>
<path fill-rule="evenodd" clip-rule="evenodd" d="M700.482 491.457C705.493 491.935 710.161 487.897 710.706 482.181C711.251 476.465 707.43 471.617 702.42 471.139C697.41 470.661 692.741 474.699 692.196 480.415C691.651 486.131 695.472 490.979 700.482 491.457ZM700.355 492.796C706.205 493.354 711.439 488.658 712.045 482.308C712.651 475.958 708.399 470.358 702.548 469.8C696.697 469.242 691.463 473.938 690.858 480.288C690.252 486.638 694.504 492.238 700.355 492.796Z" fill="#BC68CF"/>
<path d="M735.027 461.295C734.422 467.645 729.188 472.341 723.337 471.783C717.486 471.225 713.234 465.625 713.84 459.275C714.446 452.925 719.679 448.229 725.53 448.787C731.381 449.345 735.633 454.945 735.027 461.295Z" fill="#1E1F20"/>
<path fill-rule="evenodd" clip-rule="evenodd" d="M723.465 470.444C728.475 470.922 733.143 466.884 733.689 461.168C734.234 455.452 730.413 450.604 725.403 450.126C720.392 449.648 715.724 453.686 715.179 459.402C714.634 465.118 718.455 469.966 723.465 470.444ZM723.337 471.783C729.188 472.341 734.422 467.645 735.027 461.295C735.633 454.945 731.381 449.345 725.53 448.787C719.679 448.229 714.446 452.925 713.84 459.275C713.234 465.625 717.486 471.225 723.337 471.783Z" fill="#BC68CF"/>
<path d="M753.207 487.009C752.601 493.359 747.367 498.055 741.517 497.497C735.666 496.939 731.414 491.339 732.02 484.989C732.625 478.638 737.859 473.943 743.71 474.501C749.561 475.059 753.813 480.659 753.207 487.009Z" fill="#1E1F20"/>
<path fill-rule="evenodd" clip-rule="evenodd" d="M741.644 496.158C746.655 496.636 751.323 492.597 751.868 486.882C752.413 481.166 748.592 476.318 743.582 475.84C738.572 475.362 733.904 479.4 733.358 485.116C732.813 490.832 736.634 495.68 741.644 496.158ZM741.517 497.497C747.367 498.055 752.601 493.359 753.207 487.009C753.813 480.659 749.561 475.059 743.71 474.501C737.859 473.943 732.625 478.638 732.02 484.989C731.414 491.339 735.666 496.939 741.517 497.497Z" fill="#BC68CF"/>
<path d="M730.568 508.055C729.963 514.405 724.729 519.1 718.878 518.542C713.027 517.984 708.775 512.384 709.381 506.034C709.987 499.684 715.22 494.989 721.071 495.547C726.922 496.105 731.174 501.705 730.568 508.055Z" fill="#1E1F20"/>
<path fill-rule="evenodd" clip-rule="evenodd" d="M719.006 517.203C724.016 517.681 728.684 513.643 729.23 507.927C729.775 502.211 725.954 497.363 720.944 496.885C715.933 496.408 711.265 500.446 710.72 506.162C710.175 511.878 713.996 516.726 719.006 517.203ZM718.878 518.542C724.729 519.1 729.963 514.405 730.568 508.055C731.174 501.705 726.922 496.105 721.071 495.547C715.22 494.989 709.987 499.684 709.381 506.034C708.775 512.384 713.027 517.984 718.878 518.542Z" fill="#BC68CF"/>
<g filter="url(#filter3_d_550_3723)">
<path d="M628.818 506.62C627.735 504.659 628.447 502.191 630.408 501.108L643.428 493.919C645.389 492.836 647.856 493.548 648.939 495.509V495.509C650.022 497.47 649.31 499.937 647.349 501.02L634.33 508.21C632.369 509.293 629.901 508.581 628.818 506.62V506.62Z" fill="#1E1F20"/>
</g>
<g filter="url(#filter4_d_550_3723)">
<path fill-rule="evenodd" clip-rule="evenodd" d="M644.078 495.096L631.058 502.286C629.748 503.009 629.272 504.659 629.996 505.97C630.719 507.281 632.369 507.756 633.68 507.033L646.699 499.843C648.01 499.119 648.486 497.47 647.762 496.159C647.038 494.848 645.389 494.372 644.078 495.096ZM630.408 501.108C628.447 502.191 627.735 504.659 628.818 506.62C629.901 508.581 632.369 509.293 634.33 508.21L647.349 501.02C649.31 499.937 650.022 497.47 648.939 495.509C647.856 493.548 645.389 492.836 643.428 493.919L630.408 501.108Z" fill="#BC68CF"/>
</g>
<g filter="url(#filter5_d_550_3723)">
<path d="M660.601 510.249C659.519 508.288 660.23 505.82 662.191 504.737L675.211 497.548C677.172 496.465 679.639 497.176 680.722 499.138V499.138C681.805 501.099 681.093 503.566 679.132 504.649L666.113 511.839C664.152 512.922 661.684 512.21 660.601 510.249V510.249Z" fill="#1E1F20"/>
</g>
<g filter="url(#filter6_d_550_3723)">
<path fill-rule="evenodd" clip-rule="evenodd" d="M675.861 498.725L662.842 505.914C661.531 506.638 661.055 508.288 661.779 509.599C662.503 510.909 664.152 511.385 665.463 510.661L678.482 503.472C679.793 502.748 680.269 501.099 679.545 499.788C678.821 498.477 677.172 498.001 675.861 498.725ZM662.191 504.737C660.23 505.82 659.519 508.288 660.601 510.249C661.684 512.21 664.152 512.922 666.113 511.839L679.132 504.649C681.093 503.566 681.805 501.099 680.722 499.138C679.639 497.176 677.172 496.465 675.211 497.548L662.191 504.737Z" fill="#BC68CF"/>
</g>
<rect width="32.4089" height="36.6051" transform="translate(732.1 570.148) rotate(54.957)" fill="#1E1F20"/>
<path d="M730.532 571.248C731.398 570.64 732.592 570.85 733.199 571.716L752.599 599.378C753.206 600.244 752.997 601.438 752.131 602.045V602.045C751.265 602.652 750.072 602.442 749.464 601.577L730.064 573.914C729.457 573.049 729.666 571.855 730.532 571.248V571.248Z" fill="#1E1F20"/>
<path fill-rule="evenodd" clip-rule="evenodd" d="M751.96 599.826L732.56 572.164C732.2 571.651 731.493 571.527 730.98 571.887C730.468 572.246 730.343 572.953 730.703 573.466L750.103 601.129C750.463 601.641 751.17 601.766 751.683 601.406C752.196 601.046 752.32 600.339 751.96 599.826ZM733.199 571.716C732.592 570.85 731.398 570.64 730.532 571.248C729.666 571.855 729.457 573.049 730.064 573.914L749.464 601.577C750.072 602.442 751.265 602.652 752.131 602.045C752.997 601.438 753.206 600.244 752.599 599.378L733.199 571.716Z" fill="#BC68CF"/>
<path d="M724.202 575.687C725.068 575.08 726.262 575.289 726.869 576.155L746.269 603.818C746.876 604.683 746.667 605.877 745.801 606.484V606.484C744.935 607.092 743.741 606.882 743.134 606.016L723.734 578.354C723.127 577.488 723.336 576.294 724.202 575.687V575.687Z" fill="#1E1F20"/>
<path fill-rule="evenodd" clip-rule="evenodd" d="M745.63 604.266L726.23 576.603C725.87 576.091 725.163 575.966 724.65 576.326C724.137 576.686 724.013 577.393 724.373 577.906L743.773 605.568C744.133 606.081 744.84 606.205 745.353 605.845C745.866 605.486 745.99 604.779 745.63 604.266ZM726.869 576.155C726.262 575.289 725.068 575.08 724.202 575.687C723.336 576.294 723.127 577.488 723.734 578.354L743.134 606.016C743.741 606.882 744.935 607.092 745.801 606.484C746.667 605.877 746.876 604.683 746.269 603.818L726.869 576.155Z" fill="#BC68CF"/>
<path d="M717.872 580.126C718.738 579.519 719.932 579.729 720.539 580.594L739.939 608.257C740.546 609.123 740.337 610.317 739.471 610.924V610.924C738.605 611.531 737.411 611.321 736.804 610.456L717.404 582.793C716.797 581.927 717.006 580.733 717.872 580.126V580.126Z" fill="#1E1F20"/>
<path fill-rule="evenodd" clip-rule="evenodd" d="M739.3 608.705L719.9 581.043C719.54 580.53 718.833 580.406 718.32 580.765C717.807 581.125 717.683 581.832 718.043 582.345L737.443 610.007C737.803 610.52 738.51 610.644 739.023 610.285C739.536 609.925 739.66 609.218 739.3 608.705ZM720.539 580.594C719.932 579.729 718.738 579.519 717.872 580.126C717.006 580.733 716.797 581.927 717.404 582.793L736.804 610.456C737.411 611.321 738.605 611.531 739.471 610.924C740.337 610.317 740.546 609.123 739.939 608.257L720.539 580.594Z" fill="#BC68CF"/>
<path d="M711.542 584.566C712.408 583.958 713.602 584.168 714.209 585.034L733.609 612.696C734.216 613.562 734.007 614.756 733.141 615.363V615.363C732.275 615.97 731.081 615.761 730.474 614.895L711.074 587.232C710.467 586.367 710.676 585.173 711.542 584.566V584.566Z" fill="#1E1F20"/>
<path fill-rule="evenodd" clip-rule="evenodd" d="M732.97 613.144L713.57 585.482C713.21 584.969 712.503 584.845 711.99 585.205C711.477 585.564 711.353 586.271 711.713 586.784L731.113 614.447C731.473 614.96 732.18 615.084 732.693 614.724C733.206 614.364 733.33 613.657 732.97 613.144ZM714.209 585.034C713.602 584.168 712.408 583.958 711.542 584.566C710.676 585.173 710.467 586.367 711.074 587.232L730.474 614.895C731.081 615.761 732.275 615.97 733.141 615.363C734.007 614.756 734.216 613.562 733.609 612.696L714.209 585.034Z" fill="#BC68CF"/>
<path d="M705.212 589.005C706.078 588.398 707.271 588.608 707.879 589.473L727.279 617.136C727.886 618.001 727.677 619.195 726.811 619.803V619.803C725.945 620.41 724.751 620.2 724.144 619.334L704.744 591.672C704.137 590.806 704.346 589.612 705.212 589.005V589.005Z" fill="#1E1F20"/>
<path fill-rule="evenodd" clip-rule="evenodd" d="M726.64 617.584L707.24 589.921C706.88 589.409 706.173 589.284 705.66 589.644C705.147 590.004 705.023 590.711 705.383 591.224L724.783 618.886C725.143 619.399 725.85 619.523 726.363 619.164C726.875 618.804 727 618.097 726.64 617.584ZM707.879 589.473C707.271 588.608 706.078 588.398 705.212 589.005C704.346 589.612 704.137 590.806 704.744 591.672L724.144 619.334C724.751 620.2 725.945 620.41 726.811 619.803C727.677 619.195 727.886 618.001 727.279 617.136L707.879 589.473Z" fill="#BC68CF"/>
<path d="M698.882 593.445C699.747 592.837 700.941 593.047 701.549 593.913L720.949 621.575C721.556 622.441 721.346 623.635 720.481 624.242V624.242C719.615 624.849 718.421 624.64 717.814 623.774L698.414 596.111C697.806 595.246 698.016 594.052 698.882 593.445V593.445Z" fill="#1E1F20"/>
<path fill-rule="evenodd" clip-rule="evenodd" d="M720.31 622.023L700.91 594.361C700.55 593.848 699.843 593.724 699.33 594.084C698.817 594.443 698.693 595.15 699.053 595.663L718.453 623.326C718.813 623.838 719.52 623.963 720.033 623.603C720.545 623.243 720.67 622.536 720.31 622.023ZM701.549 593.913C700.941 593.047 699.747 592.837 698.882 593.445C698.016 594.052 697.806 595.246 698.414 596.111L717.814 623.774C718.421 624.64 719.615 624.849 720.481 624.242C721.346 623.635 721.556 622.441 720.949 621.575L701.549 593.913Z" fill="#BC68CF"/>
<path fill-rule="evenodd" clip-rule="evenodd" d="M786.227 481.819C786.597 481.854 786.868 482.183 786.833 482.552L783.601 516.439C783.566 516.808 783.237 517.08 782.868 517.044C782.498 517.009 782.227 516.681 782.262 516.311L785.494 482.425C785.529 482.055 785.857 481.784 786.227 481.819Z" fill="#BC68CF"/>
<g filter="url(#filter7_d_550_3723)">
<path d="M803.869 276.625C804.028 274.963 805.504 273.743 807.167 273.902V273.902C808.829 274.061 810.048 275.537 809.89 277.199L808.16 295.339C808.001 297.002 806.525 298.221 804.862 298.063V298.063C803.2 297.904 801.981 296.428 802.139 294.765L803.869 276.625Z" fill="#1E1F20"/>
</g>
<g filter="url(#filter8_d_550_3723)">
<path fill-rule="evenodd" clip-rule="evenodd" d="M806.821 295.212L808.551 277.072C808.639 276.149 807.962 275.329 807.039 275.241C806.116 275.153 805.296 275.83 805.208 276.753L803.478 294.893C803.39 295.816 804.067 296.636 804.99 296.724C805.913 296.812 806.733 296.135 806.821 295.212ZM807.167 273.902C805.504 273.743 804.028 274.963 803.869 276.625L802.139 294.765C801.981 296.428 803.2 297.904 804.862 298.063C806.525 298.221 808.001 297.002 808.16 295.339L809.89 277.199C810.048 275.537 808.829 274.061 807.167 273.902Z" fill="#BC68CF"/>
</g>
<g filter="url(#filter9_d_550_3723)">
<path d="M799.272 316.14C799.431 314.477 800.907 313.258 802.57 313.417V313.417C804.233 313.575 805.452 315.052 805.293 316.714L804.496 325.068C804.338 326.731 802.862 327.95 801.199 327.792V327.792C799.536 327.633 798.317 326.157 798.476 324.494L799.272 316.14Z" fill="#1E1F20"/>
</g>
<g filter="url(#filter10_d_550_3723)">
<path fill-rule="evenodd" clip-rule="evenodd" d="M803.158 324.941L803.954 316.587C804.042 315.663 803.365 314.844 802.442 314.756C801.519 314.668 800.699 315.345 800.611 316.268L799.815 324.622C799.726 325.545 800.403 326.365 801.327 326.453C802.25 326.541 803.07 325.864 803.158 324.941ZM802.57 313.417C800.907 313.258 799.431 314.477 799.272 316.14L798.476 324.494C798.317 326.157 799.536 327.633 801.199 327.792C802.862 327.95 804.338 326.731 804.496 325.068L805.293 316.714C805.452 315.052 804.233 313.575 802.57 313.417Z" fill="#BC68CF"/>
</g>
<path d="M563.924 406.032L579.896 238.554C580.053 236.917 581.453 235.681 583.098 235.73L784.62 241.764C786.424 241.818 787.806 243.385 787.635 245.181L770.416 425.726C770.252 427.442 768.728 428.701 767.011 428.537L566.735 409.436C565.019 409.273 563.76 407.749 563.924 406.032Z" fill="#1E1F20" stroke="#BC68CF" stroke-width="1.561" stroke-linecap="round"/>
<path d="M606.393 583.404C620.084 583.577 631.342 571.053 631.539 555.432C631.736 539.811 620.797 527.007 607.106 526.834C597.316 526.711 588.77 533.08 584.623 542.431L582.085 558.107C583.339 572.192 593.68 583.244 606.393 583.404Z" fill="#1E1F20"/>
<path fill-rule="evenodd" clip-rule="evenodd" d="M606.41 582.059C619.197 582.221 630.005 570.466 630.194 555.415C630.384 540.364 619.876 528.34 607.089 528.179C597.985 528.064 589.917 533.955 585.922 542.819L583.44 558.154C584.713 571.625 594.58 581.91 606.41 582.059ZM582.085 558.107L584.623 542.431C588.77 533.08 597.316 526.711 607.106 526.834C620.797 527.007 631.736 539.811 631.539 555.432C631.342 571.053 620.084 583.577 606.393 583.404C593.68 583.244 583.339 572.192 582.085 558.107Z" fill="#BC68CF"/>
<path d="M621.532 554.901C622.142 545.918 617.013 537.987 609.524 535.329L606.256 572.807C614.38 571.494 620.904 564.164 621.532 554.901Z" fill="#1E1F20"/>
<path fill-rule="evenodd" clip-rule="evenodd" d="M608.336 533.479L609.975 534.061C618.082 536.939 623.522 545.461 622.875 554.992C622.209 564.817 615.273 572.713 606.472 574.134L604.768 574.409L608.336 533.479ZM609.525 535.329L606.257 572.806C606.721 572.732 607.18 572.637 607.632 572.524C615.107 570.651 620.941 563.635 621.534 554.901C622.107 546.449 617.601 538.929 610.829 535.855C610.403 535.662 609.968 535.486 609.525 535.329Z" fill="#BC68CF"/>
<path d="M619.45 554.657C618.624 566.822 609.378 576.102 598.797 575.384C588.217 574.666 580.309 564.222 581.134 552.057C581.96 539.892 591.206 530.612 601.787 531.33C612.367 532.048 620.275 542.492 619.45 554.657Z" fill="#1E1F20"/>
<path fill-rule="evenodd" clip-rule="evenodd" d="M598.888 574.042C608.558 574.698 617.32 566.172 618.108 554.566C618.895 542.96 611.365 533.328 601.696 532.672C592.026 532.015 583.264 540.542 582.476 552.148C581.688 563.754 589.219 573.386 598.888 574.042ZM598.797 575.384C609.378 576.102 618.624 566.822 619.45 554.657C620.275 542.492 612.367 532.048 601.787 531.33C591.206 530.612 581.96 539.892 581.134 552.057C580.309 564.222 588.217 574.666 598.797 575.384Z" fill="#BC68CF"/>
<path d="M613.948 554.321C613.27 564.318 605.947 571.962 597.591 571.395C589.235 570.828 583.011 562.264 583.69 552.268C584.368 542.271 591.692 534.627 600.047 535.194C608.403 535.761 614.627 544.325 613.948 554.321Z" fill="#1E1F20"/>
<path fill-rule="evenodd" clip-rule="evenodd" d="M597.682 570.053C605.081 570.555 611.963 563.721 612.607 554.23C613.251 544.739 607.356 537.038 599.956 536.536C592.557 536.034 585.676 542.868 585.031 552.359C584.387 561.85 590.282 569.551 597.682 570.053ZM597.591 571.395C605.947 571.962 613.27 564.318 613.948 554.321C614.627 544.325 608.403 535.761 600.047 535.194C591.692 534.627 584.368 542.271 583.69 552.268C583.011 562.264 589.235 570.828 597.591 571.395Z" fill="#BC68CF"/>
</g>
<path d="M921.075 266.597H925.475V279.797H921.075V284.197H916.675V288.597H912.275V292.997H907.875V297.397H903.475V292.997H899.075V288.597H894.675V284.197H890.275V279.797H885.875V266.597H890.275V262.197H903.475V266.597H907.875V262.197H921.075V266.597Z" fill="#E4B8E9"/>
<path d="M961.928 294.382H965.528V305.182H961.928V308.782H958.328V312.382H954.728V315.982H951.128V319.582H947.528V315.982H943.928V312.382H940.328V308.782H936.728V305.182H933.128V294.382H936.728V290.782H947.528V294.382H951.128V290.782H961.928V294.382Z" fill="#E4B8E9"/>
<path d="M987.128 225.397H993.128V243.397H987.128V249.397H981.128V255.397H975.128V261.397H969.128V267.397H963.128V261.397H957.128V255.397H951.128V249.397H945.128V243.397H939.128V225.397H945.128V219.397H963.128V225.397H969.128V219.397H987.128V225.397Z" fill="#E4B8E9"/>
<defs>
<filter id="filter0_d_550_3723" x="459.103" y="147.009" width="439.95" height="568.913" filterUnits="userSpaceOnUse" color-interpolation-filters="sRGB">
<feFlood flood-opacity="0" result="BackgroundImageFix"/>
<feColorMatrix in="SourceAlpha" type="matrix" values="0 0 0 0 0 0 0 0 0 0 0 0 0 0 0 0 0 0 127 0" result="hardAlpha"/>
<feOffset/>
<feGaussianBlur stdDeviation="40.89"/>
<feComposite in2="hardAlpha" operator="out"/>
<feColorMatrix type="matrix" values="0 0 0 0 0.737255 0 0 0 0 0.407843 0 0 0 0 0.811765 0 0 0 0.4 0"/>
<feBlend mode="normal" in2="BackgroundImageFix" result="effect1_dropShadow_550_3723"/>
<feBlend mode="normal" in="SourceGraphic" in2="effect1_dropShadow_550_3723" result="shape"/>
</filter>
<filter id="filter1_d_550_3723" x="653.295" y="446.932" width="13.6567" height="13.1086" filterUnits="userSpaceOnUse" color-interpolation-filters="sRGB">
<feFlood flood-opacity="0" result="BackgroundImageFix"/>
<feColorMatrix in="SourceAlpha" type="matrix" values="0 0 0 0 0 0 0 0 0 0 0 0 0 0 0 0 0 0 127 0" result="hardAlpha"/>
<feOffset dx="1.561"/>
<feComposite in2="hardAlpha" operator="out"/>
<feColorMatrix type="matrix" values="0 0 0 0 0.737255 0 0 0 0 0.407843 0 0 0 0 0.811765 0 0 0 1 0"/>
<feBlend mode="normal" in2="BackgroundImageFix" result="effect1_dropShadow_550_3723"/>
<feBlend mode="normal" in="SourceGraphic" in2="effect1_dropShadow_550_3723" result="shape"/>
</filter>
<filter id="filter2_d_550_3723" x="653.295" y="446.932" width="13.6567" height="13.1086" filterUnits="userSpaceOnUse" color-interpolation-filters="sRGB">
<feFlood flood-opacity="0" result="BackgroundImageFix"/>
<feColorMatrix in="SourceAlpha" type="matrix" values="0 0 0 0 0 0 0 0 0 0 0 0 0 0 0 0 0 0 127 0" result="hardAlpha"/>
<feOffset dx="1.561"/>
<feComposite in2="hardAlpha" operator="out"/>
<feColorMatrix type="matrix" values="0 0 0 0 0.737255 0 0 0 0 0.407843 0 0 0 0 0.811765 0 0 0 1 0"/>
<feBlend mode="normal" in2="BackgroundImageFix" result="effect1_dropShadow_550_3723"/>
<feBlend mode="normal" in="SourceGraphic" in2="effect1_dropShadow_550_3723" result="shape"/>
</filter>
<filter id="filter3_d_550_3723" x="628.312" y="493.413" width="22.6938" height="16.084" filterUnits="userSpaceOnUse" color-interpolation-filters="sRGB">
<feFlood flood-opacity="0" result="BackgroundImageFix"/>
<feColorMatrix in="SourceAlpha" type="matrix" values="0 0 0 0 0 0 0 0 0 0 0 0 0 0 0 0 0 0 127 0" result="hardAlpha"/>
<feOffset dx="1.561" dy="0.780498"/>
<feComposite in2="hardAlpha" operator="out"/>
<feColorMatrix type="matrix" values="0 0 0 0 0.737255 0 0 0 0 0.407843 0 0 0 0 0.811765 0 0 0 1 0"/>
<feBlend mode="normal" in2="BackgroundImageFix" result="effect1_dropShadow_550_3723"/>
<feBlend mode="normal" in="SourceGraphic" in2="effect1_dropShadow_550_3723" result="shape"/>
</filter>
<filter id="filter4_d_550_3723" x="628.312" y="493.413" width="22.6938" height="16.084" filterUnits="userSpaceOnUse" color-interpolation-filters="sRGB">
<feFlood flood-opacity="0" result="BackgroundImageFix"/>
<feColorMatrix in="SourceAlpha" type="matrix" values="0 0 0 0 0 0 0 0 0 0 0 0 0 0 0 0 0 0 127 0" result="hardAlpha"/>
<feOffset dx="1.561" dy="0.780498"/>
<feComposite in2="hardAlpha" operator="out"/>
<feColorMatrix type="matrix" values="0 0 0 0 0.737255 0 0 0 0 0.407843 0 0 0 0 0.811765 0 0 0 1 0"/>
<feBlend mode="normal" in2="BackgroundImageFix" result="effect1_dropShadow_550_3723"/>
<feBlend mode="normal" in="SourceGraphic" in2="effect1_dropShadow_550_3723" result="shape"/>
</filter>
<filter id="filter5_d_550_3723" x="660.096" y="497.041" width="22.6938" height="16.084" filterUnits="userSpaceOnUse" color-interpolation-filters="sRGB">
<feFlood flood-opacity="0" result="BackgroundImageFix"/>
<feColorMatrix in="SourceAlpha" type="matrix" values="0 0 0 0 0 0 0 0 0 0 0 0 0 0 0 0 0 0 127 0" result="hardAlpha"/>
<feOffset dx="1.561" dy="0.780498"/>
<feComposite in2="hardAlpha" operator="out"/>
<feColorMatrix type="matrix" values="0 0 0 0 0.737255 0 0 0 0 0.407843 0 0 0 0 0.811765 0 0 0 1 0"/>
<feBlend mode="normal" in2="BackgroundImageFix" result="effect1_dropShadow_550_3723"/>
<feBlend mode="normal" in="SourceGraphic" in2="effect1_dropShadow_550_3723" result="shape"/>
</filter>
<filter id="filter6_d_550_3723" x="660.096" y="497.041" width="22.6938" height="16.084" filterUnits="userSpaceOnUse" color-interpolation-filters="sRGB">
<feFlood flood-opacity="0" result="BackgroundImageFix"/>
<feColorMatrix in="SourceAlpha" type="matrix" values="0 0 0 0 0 0 0 0 0 0 0 0 0 0 0 0 0 0 127 0" result="hardAlpha"/>
<feOffset dx="1.561" dy="0.780498"/>
<feComposite in2="hardAlpha" operator="out"/>
<feColorMatrix type="matrix" values="0 0 0 0 0.737255 0 0 0 0 0.407843 0 0 0 0 0.811765 0 0 0 1 0"/>
<feBlend mode="normal" in2="BackgroundImageFix" result="effect1_dropShadow_550_3723"/>
<feBlend mode="normal" in="SourceGraphic" in2="effect1_dropShadow_550_3723" result="shape"/>
</filter>
<filter id="filter7_d_550_3723" x="800.564" y="273.888" width="9.33932" height="24.1885" filterUnits="userSpaceOnUse" color-interpolation-filters="sRGB">
<feFlood flood-opacity="0" result="BackgroundImageFix"/>
<feColorMatrix in="SourceAlpha" type="matrix" values="0 0 0 0 0 0 0 0 0 0 0 0 0 0 0 0 0 0 127 0" result="hardAlpha"/>
<feOffset dx="-1.561"/>
<feComposite in2="hardAlpha" operator="out"/>
<feColorMatrix type="matrix" values="0 0 0 0 0.737255 0 0 0 0 0.407843 0 0 0 0 0.811765 0 0 0 1 0"/>
<feBlend mode="normal" in2="BackgroundImageFix" result="effect1_dropShadow_550_3723"/>
<feBlend mode="normal" in="SourceGraphic" in2="effect1_dropShadow_550_3723" result="shape"/>
</filter>
<filter id="filter8_d_550_3723" x="800.564" y="273.888" width="9.33932" height="24.1885" filterUnits="userSpaceOnUse" color-interpolation-filters="sRGB">
<feFlood flood-opacity="0" result="BackgroundImageFix"/>
<feColorMatrix in="SourceAlpha" type="matrix" values="0 0 0 0 0 0 0 0 0 0 0 0 0 0 0 0 0 0 127 0" result="hardAlpha"/>
<feOffset dx="-1.561"/>
<feComposite in2="hardAlpha" operator="out"/>
<feColorMatrix type="matrix" values="0 0 0 0 0.737255 0 0 0 0 0.407843 0 0 0 0 0.811765 0 0 0 1 0"/>
<feBlend mode="normal" in2="BackgroundImageFix" result="effect1_dropShadow_550_3723"/>
<feBlend mode="normal" in="SourceGraphic" in2="effect1_dropShadow_550_3723" result="shape"/>
</filter>
<filter id="filter9_d_550_3723" x="796.901" y="313.403" width="8.40572" height="14.4027" filterUnits="userSpaceOnUse" color-interpolation-filters="sRGB">
<feFlood flood-opacity="0" result="BackgroundImageFix"/>
<feColorMatrix in="SourceAlpha" type="matrix" values="0 0 0 0 0 0 0 0 0 0 0 0 0 0 0 0 0 0 127 0" result="hardAlpha"/>
<feOffset dx="-1.561"/>
<feComposite in2="hardAlpha" operator="out"/>
<feColorMatrix type="matrix" values="0 0 0 0 0.737255 0 0 0 0 0.407843 0 0 0 0 0.811765 0 0 0 1 0"/>
<feBlend mode="normal" in2="BackgroundImageFix" result="effect1_dropShadow_550_3723"/>
<feBlend mode="normal" in="SourceGraphic" in2="effect1_dropShadow_550_3723" result="shape"/>
</filter>
<filter id="filter10_d_550_3723" x="796.901" y="313.403" width="8.40572" height="14.4027" filterUnits="userSpaceOnUse" color-interpolation-filters="sRGB">
<feFlood flood-opacity="0" result="BackgroundImageFix"/>
<feColorMatrix in="SourceAlpha" type="matrix" values="0 0 0 0 0 0 0 0 0 0 0 0 0 0 0 0 0 0 127 0" result="hardAlpha"/>
<feOffset dx="-1.561"/>
<feComposite in2="hardAlpha" operator="out"/>
<feColorMatrix type="matrix" values="0 0 0 0 0.737255 0 0 0 0 0.407843 0 0 0 0 0.811765 0 0 0 1 0"/>
<feBlend mode="normal" in2="BackgroundImageFix" result="effect1_dropShadow_550_3723"/>
<feBlend mode="normal" in="SourceGraphic" in2="effect1_dropShadow_550_3723" result="shape"/>
</filter>
</defs>
</svg>
