<svg width="40" height="40" viewBox="0 0 40 40" fill="none" xmlns="http://www.w3.org/2000/svg">
<path d="M38.3332 10V18.3333H36.6665V20H34.9998V21.6667H33.3332V23.3333H31.6665V25H29.9998V26.6667H28.3332V28.3333H26.6665V30H24.9998V31.6667H23.3332V33.3333H21.6665V35H18.3332V33.3333H16.6665V31.6667H14.9998V30H13.3332V28.3333H11.6665V26.6667H9.99984V25H8.33317V23.3333H6.6665V21.6667H4.99984V20H3.33317V18.3333H1.6665V10H3.33317V8.33333H4.99984V6.66667H6.6665V5H16.6665V6.66667H18.3332V8.33333H21.6665V6.66667H23.3332V5H33.3332V6.66667H34.9998V8.33333H36.6665V10H38.3332Z" fill="#BC68CF"/>
</svg>
