<svg width="32" height="32" viewBox="0 0 32 32" fill="none" xmlns="http://www.w3.org/2000/svg">
<path d="M14.6667 17.3333V24H17.3333V17.3333H20V14.6667H17.3333V10.6667H20V8H14.6667V14.6667H12V17.3333H14.6667Z" fill="#97429B"/>
<path d="M20.0001 10.6667H18.6667H17.3334V12V13.3334V14.6667H18.6667H20.0001V13.3334H18.6667V12H20.0001V10.6667Z" fill="#F9A925"/>
<path d="M21.3334 17.3334V16V14.6667H20.0001V16V17.3334H21.3334Z" fill="#F9A925"/>
<path d="M18.6667 24V22.6667V21.3334V20V18.6667H20.0001V17.3334H18.6667H17.3334V18.6667V20V21.3334V22.6667V24H18.6667Z" fill="#F9A925"/>
<path d="M13.3334 17.3334H12.0001V18.6667H13.3334V20V21.3334V22.6667V24H14.6667V22.6667V21.3334V20V18.6667V17.3334H13.3334Z" fill="#F9A925"/>
<path d="M12.0001 14.6667H10.6667V16V17.3334H12.0001V16V14.6667Z" fill="#F9A925"/>
<path d="M14.6667 14.6667V13.3334V12V10.6667V9.33335V8.00002H13.3334V9.33335V10.6667V12V13.3334H12.0001V14.6667H13.3334H14.6667Z" fill="#F9A925"/>
<path d="M16.0001 6.66669H14.6667V8.00002H16.0001H17.3334H18.6667H20.0001V6.66669H18.6667H17.3334H16.0001Z" fill="#F9A925"/>
<path d="M21.3334 8.00002H20.0001V9.33335V10.6667H21.3334V9.33335V8.00002Z" fill="#F9A925"/>
<path d="M16.0001 24H14.6667V25.3334H16.0001H17.3334V24H16.0001Z" fill="#F9A925"/>
</svg>
