<svg width="108" height="101" viewBox="0 0 108 101" fill="none" xmlns="http://www.w3.org/2000/svg">
<path d="M35.2 47.2H39.6V60.4H35.2V64.8H30.8V69.2001H26.4V73.6H22V78H17.6V73.6H13.2V69.2001H8.8V64.8H4.4V60.4H0V47.2H4.4V42.8H17.6V47.2H22V42.8H35.2V47.2Z" fill="#E4B8E9"/>
<path d="M76.0529 74.985H79.6529V85.785H76.0529V89.385H72.4529V92.985H68.8529V96.585H65.2529V100.185H61.6529V96.585H58.0529V92.985H54.4529V89.385H50.8529V85.785H47.2529V74.985H50.8529V71.385H61.6529V74.985H65.2529V71.385H76.0529V74.985Z" fill="#E4B8E9"/>
<path d="M101.253 6H107.253V24H101.253V30H95.2529V36H89.2529V42H83.2529V48H77.2529V42H71.2529V36H65.2529V30H59.2529V24H53.2529V6H59.2529V0H77.2529V6H83.2529V0H101.253V6Z" fill="#E4B8E9"/>
</svg>
