<svg width="32" height="32" viewBox="0 0 32 32" fill="none" xmlns="http://www.w3.org/2000/svg">
<path d="M9.33333 22.6667H8V9.33333H9.33333V8H22.6667V9.33333H24V22.6667H22.6667V24H9.33333V22.6667Z" fill="#97429B"/>
<path d="M8.00008 7.99996H9.33341V9.33329H8.00008V7.99996Z" fill="#F9A925"/>
<path d="M8.00008 24L8.00008 22.6666H9.33341V24H8.00008Z" fill="#F9A925"/>
<path d="M22.6667 7.99996H24.0001V9.33329H22.6667V7.99996Z" fill="#F9A925"/>
<path d="M18.6667 18.6666H17.3334V17.3333H18.6667V18.6666Z" fill="#F9A925"/>
<path d="M13.3334 17.3333H14.6667V18.6666H13.3334V17.3333Z" fill="#F9A925"/>
<path d="M18.6667 14.6666H17.3334V13.3333L18.6667 13.3333V14.6666Z" fill="#F9A925"/>
<path d="M21.3334 12H20.0001V10.6666L21.3334 10.6666V12Z" fill="#F9A925"/>
<path d="M14.6667 14.6666H13.3334V13.3333L14.6667 13.3333V14.6666Z" fill="#F9A925"/>
<path d="M22.6667 22.6666H24.0001V24H22.6667V22.6666Z" fill="#F9A925"/>
<path d="M9.33341 24V25.3333H22.6667V24H9.33341Z" fill="#F9A925"/>
<path d="M14.6667 18.6666V20H17.3334V18.6666H14.6667Z" fill="#F9A925"/>
<path d="M17.3334 13.3333V12L14.6667 12V13.3333L17.3334 13.3333Z" fill="#F9A925"/>
<path d="M13.3334 14.6666H12.0001V17.3333H13.3334V14.6666Z" fill="#F9A925"/>
<path d="M18.6667 17.3333H20.0001V14.6666H18.6667V17.3333Z" fill="#F9A925"/>
<path d="M24.0001 22.6666H25.3334V9.33329H24.0001V22.6666Z" fill="#F9A925"/>
<path d="M9.33341 6.66663V7.99996H22.6667V6.66663H9.33341Z" fill="#F9A925"/>
<path d="M6.66675 22.6666H8.00008L8.00008 9.33329H6.66675L6.66675 22.6666Z" fill="#F9A925"/>
</svg>
