<svg width="648" height="100" viewBox="0 0 648 100" fill="none" xmlns="http://www.w3.org/2000/svg">
<path d="M560.121 0.447632H648V44.3871H582.091V55.3719H648V88.3265H637.015V99.3114H549.136V77.3417H615.045V66.3568H549.136V11.4325H560.121V0.447632Z" fill="#BC68CF"/>
<path d="M472.263 0.447632H505.218V55.3719H538.173V99.3114H461.279V11.4325H472.263V0.447632Z" fill="#BC68CF"/>
<path d="M373.357 0.447632H450.251V33.4022H406.311V44.3871H439.266V55.3719H406.311V66.3568H450.251V99.3114H362.372V11.4325H373.357V0.447632Z" fill="#BC68CF"/>
<path d="M252.565 0.447632H285.519V44.3871H296.504V33.4022H307.489V0.447632H351.428V44.3871H340.444V66.3568H351.428V99.3114H307.489V66.3568H285.519V99.3114H241.58V66.3568H252.565V44.3871H241.58V11.4325H252.565V0.447632Z" fill="#BC68CF"/>
<path d="M131.776 0.447632H164.73V44.3871H175.715V33.4022H186.7V0.447632H230.64V44.3871H219.655V66.3568H197.685V99.3114H153.746V66.3568H131.776V44.3871H120.791V11.4325H131.776V0.447632Z" fill="#BC68CF"/>
<path d="M54.9243 55.3719H65.9092V44.3871H76.894V22.4174H65.9092V33.4022H54.9243V22.4174H43.9394V44.3871H54.9243V55.3719ZM0 0.447632H98.8638V11.4325H109.849V66.3568H87.8789V77.3417H32.9546V99.3114H0V0.447632Z" fill="#BC68CF"/>
<path d="M54.9243 55.3719H65.9092V44.3871H76.894V22.4174H65.9092V33.4022H54.9243V22.4174H43.9394V44.3871H54.9243V55.3719Z" fill="#FDD836"/>
</svg>
