<svg width="32" height="32" viewBox="0 0 32 32" fill="none" xmlns="http://www.w3.org/2000/svg">
<path d="M17.3332 22.6666H10.6665V21.3333H11.9998V20H13.3332V18.6666H11.9998V17.3333H10.6665V14.6666H9.33317V13.3333H7.99984V12H6.6665V10.6666H9.33317V12H13.3332V13.3333H15.9998V12H17.3332V10.6666H18.6665V9.33331H22.6665V10.6666H25.3332V12H23.9998V14.6666H22.6665V18.6666H21.3332V20H19.9998V21.3333H17.3332V22.6666Z" fill="#97429B"/>
<path d="M15.9999 10.6667H17.3333V12H15.9999V10.6667Z" fill="#F9A925"/>
<path d="M17.3333 9.33333H18.6666V10.6667H17.3333V9.33333Z" fill="#F9A925"/>
<path d="M25.3333 10.6667H26.6666V12H25.3333V10.6667Z" fill="#F9A925"/>
<path d="M21.3333 18.6667H22.6666V20H21.3333V18.6667Z" fill="#F9A925"/>
<path d="M19.9999 20H21.3333V21.3333H19.9999V20Z" fill="#F9A925"/>
<path d="M9.33325 21.3333H10.6666V22.6667H9.33325V21.3333Z" fill="#F9A925"/>
<path d="M10.6666 20H11.9999V21.3333H10.6666V20Z" fill="#F9A925"/>
<path d="M11.9999 18.6667H13.3333V20H11.9999V18.6667Z" fill="#F9A925"/>
<path d="M10.6666 17.3333H11.9999V18.6667H10.6666V17.3333Z" fill="#F9A925"/>
<path d="M7.99992 13.3333H9.33325V14.6667H7.99992V13.3333Z" fill="#F9A925"/>
<path d="M6.66659 12H7.99992V13.3333H6.66659V12Z" fill="#F9A925"/>
<path d="M5.33325 10.6667H6.66659V12H5.33325V10.6667Z" fill="#F9A925"/>
<path d="M17.3333 24V22.6667H10.6666V24H17.3333Z" fill="#F9A925"/>
<path d="M19.9999 22.6667V21.3333H17.3333V22.6667H19.9999Z" fill="#F9A925"/>
<path d="M23.9999 14.6667H22.6666V18.6667H23.9999V14.6667Z" fill="#F9A925"/>
<path d="M25.3333 12H23.9999V14.6667H25.3333V12Z" fill="#F9A925"/>
<path d="M22.6666 9.33333V10.6667H25.3333V9.33333H22.6666Z" fill="#F9A925"/>
<path d="M18.6666 8V9.33333H22.6666V8H18.6666Z" fill="#F9A925"/>
<path d="M13.3333 12V13.3333H15.9999V12H13.3333Z" fill="#F9A925"/>
<path d="M9.33325 10.6667V12H13.3333V10.6667H9.33325Z" fill="#F9A925"/>
<path d="M6.66659 9.33333V10.6667H9.33325V9.33333H6.66659Z" fill="#F9A925"/>
<path d="M9.33325 17.3333H10.6666V14.6667H9.33325V17.3333Z" fill="#F9A925"/>
</svg>
