<svg width="32" height="32" viewBox="0 0 32 32" fill="none" xmlns="http://www.w3.org/2000/svg">
<path d="M7.99984 10.6667V9.33337H23.9998V10.6667H25.3332V21.3334H23.9998V22.6667H7.99984V21.3334H6.6665V10.6667H7.99984Z" fill="#97429B"/>
<path d="M23.9999 9.33333H25.3333V10.6667H23.9999V9.33333Z" fill="#F9A925"/>
<path d="M6.66659 21.3333H7.99992V22.6667H6.66659V21.3333Z" fill="#F9A925"/>
<path d="M6.66659 9.33333H7.99992V10.6667H6.66659V9.33333Z" fill="#F9A925"/>
<path d="M23.9999 21.3333H25.3333V22.6667H23.9999V21.3333Z" fill="#F9A925"/>
<path d="M15.9999 20V18.6667H13.3333V13.3333H15.9999V12H11.9999V20H15.9999Z" fill="#F9A925"/>
<path d="M15.9999 13.3333V14.6667H18.6666V13.3333H15.9999Z" fill="#F9A925"/>
<path d="M19.9999 14.6667H18.6666V17.3333H19.9999V14.6667Z" fill="#F9A925"/>
<path d="M15.9999 17.3333V18.6667H18.6666V17.3333H15.9999Z" fill="#F9A925"/>
<path d="M7.99992 8V9.33333H23.9999V8H7.99992Z" fill="#F9A925"/>
<path d="M25.3333 21.3333H26.6666V10.6667H25.3333V21.3333Z" fill="#F9A925"/>
<path d="M5.33325 21.3333H6.66659V10.6667H5.33325V21.3333Z" fill="#F9A925"/>
<path d="M7.99992 22.6667V24H23.9999V22.6667H7.99992Z" fill="#F9A925"/>
</svg>
