<svg width="1440" height="811" viewBox="0 0 1440 811" fill="none" xmlns="http://www.w3.org/2000/svg">
<path d="M373.35 219.547V157.672H367.725V219.547H373.35ZM339.6 247.672V129.547H401.475V247.672H339.6Z" fill="white"/>
<path d="M300.45 185.797V157.672H294.825V185.797H300.45ZM266.7 247.672V129.547H328.575V185.797L322.95 191.422V197.047L328.575 202.672V247.672H300.45V208.297H294.825V247.672H266.7Z" fill="white"/>
<path d="M193.8 247.672V129.547H221.925V163.297H255.675V191.422H221.925V219.547H227.55V197.047H255.675V247.672H193.8Z" fill="white"/>
<path d="M154.65 185.797V157.672H149.025V185.797H154.65ZM120.9 247.672V129.547H182.775V213.922H149.025V219.547H182.775V247.672H120.9Z" fill="white"/>
<path d="M81.75 185.797V157.672H76.125V185.797H81.75ZM48 247.672V129.547H109.875V185.797L104.25 191.422V197.047L109.875 202.672V247.672H81.75V208.297H76.125V247.672H48Z" fill="white"/>
<path fill-rule="evenodd" clip-rule="evenodd" d="M823.725 128.797H887.1V169.672H857.475V158.422H853.35V173.797H887.1V248.422H823.725V207.547H853.35V218.797H857.475V203.422H823.725V128.797ZM825.225 130.297V201.922H858.975V220.297H851.85V209.047H825.225V246.922H885.6V175.297H851.85V156.922H858.975V168.172H885.6V130.297H825.225Z" fill="white"/>
<path fill-rule="evenodd" clip-rule="evenodd" d="M717.075 128.797H814.2V248.422H784.575V158.422H780.45V248.422H750.825V158.422H746.7V248.422H717.075V128.797ZM718.575 130.297V246.922H745.2V156.922H752.325V246.922H778.95V156.922H786.075V246.922H812.7V130.297H718.575Z" fill="white"/>
<path fill-rule="evenodd" clip-rule="evenodd" d="M644.175 128.797H707.55V214.672H677.925V197.797H673.8V214.672H644.175V128.797ZM645.675 130.297V213.172H672.3V196.297H679.425V213.172H706.05V130.297H645.675ZM672.3 156.922H679.425V169.672H672.3V156.922ZM673.8 158.422V168.172H677.925V158.422H673.8ZM644.175 218.797H707.55V248.422H644.175V218.797ZM645.675 220.297V246.922H706.05V220.297H645.675Z" fill="white"/>
<path fill-rule="evenodd" clip-rule="evenodd" d="M571.275 128.797H634.65V214.672H600.9V218.797H634.65V248.422H571.275V128.797ZM572.775 130.297V246.922H633.15V220.297H599.4V213.172H633.15V130.297H572.775ZM599.4 156.922H606.525V186.547H599.4V156.922ZM600.9 158.422V185.047H605.025V158.422H600.9Z" fill="white"/>
<path fill-rule="evenodd" clip-rule="evenodd" d="M498.375 128.797H561.75V186.108L556.125 191.733V196.736L561.75 202.361V248.422H532.125V209.047H528V248.422H498.375V128.797ZM499.875 130.297V246.922H526.5V207.547H533.625V246.922H560.25V202.983L554.625 197.358V191.111L560.25 185.486V130.297H499.875ZM526.5 156.922H533.625V186.547H526.5V156.922ZM528 158.422V185.047H532.125V158.422H528Z" fill="white"/>
<path fill-rule="evenodd" clip-rule="evenodd" d="M425.475 128.797H477.161L488.85 140.486V236.733L477.161 248.422H425.475V128.797ZM426.975 130.297V246.922H476.539L487.35 236.111V141.108L476.539 130.297H426.975ZM453.6 156.922H460.725V220.297H453.6V156.922ZM455.1 158.422V218.797H459.225V158.422H455.1Z" fill="white"/>
<path fill-rule="evenodd" clip-rule="evenodd" d="M572.15 609H635.525V728.625H605.9V638.625H601.775V728.625H572.15V609ZM573.65 610.5V727.125H600.275V637.125H607.4V727.125H634.025V610.5H573.65Z" fill="white"/>
<path fill-rule="evenodd" clip-rule="evenodd" d="M533 609H562.625V638.625H533V609ZM534.5 610.5V637.125H561.125V610.5H534.5ZM533 642.75H562.625V728.625H533V642.75ZM534.5 644.25V727.125H561.125V644.25H534.5Z" fill="white"/>
<path fill-rule="evenodd" clip-rule="evenodd" d="M878.225 609H941.6V666.311L935.975 671.936V676.939L941.6 682.564V728.625H911.975V689.25H907.85V728.625H878.225V609ZM879.725 610.5V727.125H906.35V687.75H913.475V727.125H940.1V683.186L934.475 677.561V671.314L940.1 665.689V610.5H879.725ZM906.35 637.125H913.475V666.75H906.35V637.125ZM907.85 638.625V665.25H911.975V638.625H907.85Z" fill="white"/>
<path fill-rule="evenodd" clip-rule="evenodd" d="M805.325 609H834.95V699H839.075V609H868.7V728.625H805.325V609ZM806.825 610.5V727.125H867.2V610.5H840.575V700.5H833.45V610.5H806.825Z" fill="white"/>
<path fill-rule="evenodd" clip-rule="evenodd" d="M732.425 609H795.8V728.625H732.425V609ZM733.925 610.5V727.125H794.3V610.5H733.925ZM760.55 637.125H767.675V700.5H760.55V637.125ZM762.05 638.625V699H766.175V638.625H762.05Z" fill="white"/>
<path fill-rule="evenodd" clip-rule="evenodd" d="M659.525 609H689.15V699H693.275V609H722.9V762.375H659.525V732.75H693.275V728.625H659.525V609ZM661.025 610.5V727.125H694.775V734.25H661.025V760.875H721.4V610.5H694.775V700.5H687.65V610.5H661.025Z" fill="white"/>
<path d="M1330.1 727.125V609H1358.23V642.75H1391.98V670.875H1358.23V699H1363.85V676.5H1391.98V727.125H1330.1Z" fill="white"/>
<path d="M1290.95 665.25V637.125H1285.33V665.25H1290.95ZM1257.2 727.125V609H1319.08V693.375H1285.33V699H1319.08V727.125H1257.2Z" fill="white"/>
<path d="M1184.3 727.125V609H1212.43V654H1218.05V609H1246.18V659.625L1240.55 665.25V670.875L1246.18 676.5V727.125H1218.05V682.125H1212.43V727.125H1184.3Z" fill="white"/>
<path d="M1111.4 727.125V609H1173.28V637.125H1139.53V699H1173.28V727.125H1111.4Z" fill="white"/>
<path d="M1072.25 699V637.125H1066.62V699H1072.25ZM1038.5 727.125V609H1100.37V727.125H1038.5Z" fill="white"/>
<path d="M999.35 665.25V637.125H993.725V665.25H999.35ZM965.6 727.125V609H1027.48V693.375H993.725V727.125H965.6Z" fill="white"/>
<g filter="url(#filter0_d_351_4895)">
<path d="M834.357 226.435L822.197 222.002C821.874 221.884 821.535 221.82 821.192 221.813L814.723 221.68L724.941 680.439C763.597 687.006 797.281 680.864 802.149 642.496L822.416 449.283C822.843 445.209 822.696 441.096 821.978 437.063L820.259 427.405C819.548 423.412 819.396 419.34 819.808 415.305L838.43 232.936C838.72 230.092 837.043 227.415 834.357 226.435Z" fill="#1E1F20"/>
<path fill-rule="evenodd" clip-rule="evenodd" d="M821.208 221.033C821.636 221.042 822.061 221.122 822.464 221.269L834.624 225.702C837.646 226.804 839.533 229.816 839.206 233.015L820.585 415.385C820.18 419.347 820.329 423.347 821.027 427.269L822.746 436.927C823.477 441.031 823.627 445.218 823.192 449.365L802.924 642.586L802.923 642.595C801.692 652.297 798.633 660.01 794.09 666.006C789.546 672.003 783.548 676.243 776.504 679.044C762.444 684.633 744.187 684.501 724.81 681.209L724.021 681.075L814.083 220.886L821.208 221.033ZM821.929 222.735C821.687 222.647 821.433 222.599 821.175 222.594L815.363 222.474L725.861 679.802C744.839 682.946 762.451 682.951 775.927 677.593C782.745 674.883 788.497 670.804 792.846 665.064C797.194 659.324 800.17 651.884 801.374 642.407C801.374 642.404 801.374 642.401 801.375 642.398L821.64 449.202C822.059 445.201 821.914 441.161 821.209 437.2L819.49 427.542C818.767 423.478 818.612 419.333 819.032 415.226L837.653 232.857C837.907 230.369 836.439 228.026 834.09 227.169L821.929 222.735Z" fill="#BC68CF"/>
<path d="M727.723 680.748L529.942 652.44C523.341 651.495 518.647 645.531 519.28 638.892L559.553 216.62C559.709 214.981 561.112 213.745 562.758 213.796L818.349 221.72C820.164 221.776 821.548 223.363 821.357 225.168L777.382 642.066C774.783 666.704 752.247 684.258 727.723 680.748Z" fill="#1E1F20"/>
<path fill-rule="evenodd" clip-rule="evenodd" d="M818.373 220.94C820.641 221.01 822.371 222.993 822.133 225.25L778.158 642.148C775.513 667.226 752.574 685.094 727.612 681.521L529.831 653.213C522.817 652.209 517.83 645.872 518.502 638.818L558.776 216.546C558.971 214.497 560.724 212.952 562.781 213.016L818.373 220.94ZM820.581 225.086C820.724 223.732 819.686 222.542 818.325 222.5L562.733 214.576C561.499 214.538 560.447 215.465 560.33 216.694L520.056 638.967C519.463 645.19 523.864 650.782 530.052 651.668L727.833 679.976C751.92 683.423 774.053 666.182 776.606 641.984L820.581 225.086Z" fill="#BC68CF"/>
<path fill-rule="evenodd" clip-rule="evenodd" d="M579.063 459.465C577.776 459.343 576.632 460.287 576.51 461.574L574.953 477.899C574.748 480.045 572.843 481.618 570.697 481.413L560.484 480.439C559.197 480.317 558.053 481.261 557.931 482.548L556.625 496.237C556.505 497.496 557.406 498.623 558.661 498.782L568.288 500.005C570.379 500.271 571.881 502.149 571.681 504.247L570.1 520.823C569.978 522.11 570.922 523.253 572.209 523.376L585.366 524.631C586.653 524.754 587.796 523.81 587.919 522.522L589.484 506.11C589.692 503.932 591.65 502.35 593.824 502.605L606.586 504.103C607.89 504.256 609.065 503.307 609.19 501.999L610.48 488.474C610.603 487.187 609.659 486.044 608.371 485.921L595.448 484.688C593.302 484.484 591.729 482.578 591.933 480.433L593.577 463.202C593.699 461.914 592.755 460.771 591.468 460.649L579.063 459.465ZM574.956 461.426C575.16 459.28 577.066 457.707 579.211 457.912L591.616 459.095C593.762 459.299 595.335 461.204 595.131 463.35L593.487 480.581C593.364 481.868 594.308 483.012 595.596 483.134L608.52 484.367C610.665 484.572 612.239 486.477 612.034 488.622L610.744 502.148C610.536 504.326 608.578 505.908 606.404 505.653L593.642 504.155C592.338 504.002 591.163 504.951 591.038 506.258L589.473 522.671C589.268 524.816 587.363 526.39 585.218 526.185L572.061 524.93C569.915 524.726 568.342 522.82 568.546 520.675L570.127 504.099C570.247 502.84 569.346 501.713 568.091 501.554L558.464 500.331C556.373 500.065 554.871 498.187 555.071 496.089L556.377 482.4C556.581 480.254 558.487 478.681 560.632 478.885L570.846 479.859C572.133 479.982 573.276 479.038 573.399 477.751L574.956 461.426Z" fill="#BC68CF"/>
<path d="M576.51 461.574C576.632 460.287 577.776 459.343 579.063 459.465L591.468 460.649C592.755 460.771 593.699 461.914 593.577 463.202L591.933 480.433C591.729 482.578 593.302 484.484 595.448 484.688L608.371 485.921C609.659 486.044 610.603 487.187 610.48 488.474L609.19 501.999C609.065 503.307 607.89 504.256 606.586 504.103L593.824 502.605C591.65 502.35 589.692 503.932 589.484 506.11L587.919 522.522C587.796 523.81 586.653 524.754 585.366 524.631L572.209 523.376C570.922 523.253 569.978 522.11 570.1 520.823L571.681 504.247C571.881 502.149 570.379 500.271 568.288 500.005L558.661 498.782C557.406 498.623 556.505 497.496 556.625 496.237L557.931 482.548C558.053 481.261 559.197 480.317 560.484 480.439L570.697 481.413C572.843 481.618 574.748 480.045 574.953 477.899L576.51 461.574Z" fill="#BC68CF"/>
<path d="M571.733 461.5L570.176 477.825C570.012 479.541 568.488 480.8 566.772 480.636L556.558 479.662C554.842 479.499 553.318 480.757 553.154 482.474L551.848 496.163C551.688 497.842 552.89 499.344 554.563 499.557L564.19 500.779C565.863 500.992 567.065 502.494 566.905 504.173L565.324 520.749C565.16 522.465 566.419 523.989 568.135 524.153L581.292 525.408C583.008 525.572 584.533 524.313 584.696 522.597L586.262 506.184C586.428 504.442 587.994 503.176 589.733 503.38L602.495 504.878C604.234 505.082 605.801 503.816 605.967 502.074L607.257 488.548C607.421 486.832 606.162 485.308 604.446 485.144L591.522 483.911C589.806 483.748 588.547 482.223 588.71 480.507L590.354 463.276C590.518 461.559 589.259 460.035 587.542 459.872L575.137 458.689C573.421 458.525 571.897 459.784 571.733 461.5Z" fill="#1E1F20"/>
<path fill-rule="evenodd" clip-rule="evenodd" d="M575.063 459.465C573.776 459.343 572.632 460.287 572.51 461.574L570.953 477.899C570.748 480.045 568.843 481.618 566.697 481.413L556.484 480.439C555.197 480.317 554.053 481.261 553.931 482.548L552.625 496.237C552.505 497.496 553.406 498.623 554.661 498.782L564.288 500.005C566.379 500.271 567.881 502.149 567.681 504.247L566.1 520.823C565.978 522.11 566.922 523.253 568.209 523.376L581.366 524.631C582.653 524.754 583.796 523.81 583.919 522.522L585.484 506.11C585.692 503.932 587.65 502.35 589.824 502.605L602.586 504.103C603.89 504.256 605.065 503.307 605.19 501.999L606.48 488.474C606.603 487.187 605.659 486.044 604.371 485.921L591.448 484.688C589.302 484.484 587.729 482.578 587.933 480.433L589.577 463.202C589.699 461.914 588.755 460.771 587.468 460.649L575.063 459.465ZM570.956 461.426C571.16 459.28 573.066 457.707 575.211 457.912L587.616 459.095C589.762 459.299 591.335 461.204 591.131 463.35L589.487 480.581C589.364 481.868 590.308 483.012 591.596 483.134L604.52 484.367C606.665 484.572 608.239 486.477 608.034 488.622L606.744 502.148C606.536 504.326 604.578 505.908 602.404 505.653L589.642 504.155C588.338 504.002 587.163 504.951 587.038 506.258L585.473 522.671C585.268 524.816 583.363 526.39 581.218 526.185L568.061 524.93C565.915 524.726 564.342 522.82 564.546 520.675L566.127 504.099C566.247 502.84 565.346 501.713 564.091 501.554L554.464 500.331C552.373 500.065 550.871 498.187 551.071 496.089L552.377 482.4C552.581 480.254 554.487 478.681 556.632 478.885L566.846 479.859C568.133 479.982 569.276 479.038 569.399 477.751L570.956 461.426Z" fill="#BC68CF"/>
<g filter="url(#filter1_d_351_4895)">
<path d="M662.918 474.482C662.519 478.667 659.07 481.762 655.214 481.394C651.357 481.026 648.555 477.336 648.954 473.151C649.353 468.965 652.803 465.871 656.659 466.239C660.515 466.606 663.317 470.297 662.918 474.482Z" fill="#1E1F20"/>
</g>
<g filter="url(#filter2_d_351_4895)">
<path fill-rule="evenodd" clip-rule="evenodd" d="M655.362 479.84C658.242 480.115 661.035 477.783 661.364 474.334C661.693 470.885 659.391 468.067 656.511 467.793C653.63 467.518 650.837 469.85 650.508 473.299C650.179 476.748 652.481 479.566 655.362 479.84ZM655.214 481.394C659.07 481.762 662.519 478.667 662.918 474.482C663.317 470.297 660.515 466.606 656.659 466.239C652.803 465.871 649.353 468.965 648.954 473.151C648.555 477.336 651.357 481.026 655.214 481.394Z" fill="#BC68CF"/>
</g>
<path fill-rule="evenodd" clip-rule="evenodd" d="M707.686 517.888C713.502 518.443 718.92 513.756 719.553 507.121C720.186 500.487 715.751 494.86 709.935 494.306C704.12 493.751 698.702 498.438 698.069 505.073C697.436 511.707 701.871 517.334 707.686 517.888ZM707.538 519.442C714.329 520.09 720.404 514.64 721.107 507.27C721.81 499.899 716.874 493.399 710.084 492.752C703.293 492.104 697.218 497.554 696.515 504.924C695.812 512.295 700.747 518.795 707.538 519.442Z" fill="#BC68CF"/>
<path fill-rule="evenodd" clip-rule="evenodd" d="M734.361 493.499C740.177 494.054 745.595 489.367 746.228 482.732C746.861 476.098 742.426 470.471 736.61 469.916C730.795 469.362 725.377 474.049 724.744 480.683C724.111 487.318 728.546 492.944 734.361 493.499ZM734.213 495.053C741.004 495.701 747.079 490.251 747.782 482.88C748.485 475.51 743.55 469.01 736.759 468.362C729.968 467.715 723.893 473.164 723.19 480.535C722.487 487.905 727.422 494.405 734.213 495.053Z" fill="#BC68CF"/>
<path fill-rule="evenodd" clip-rule="evenodd" d="M755.462 523.345C761.277 523.899 766.696 519.212 767.329 512.578C767.961 505.943 763.527 500.317 757.711 499.762C751.896 499.207 746.477 503.894 745.845 510.529C745.212 517.163 749.647 522.79 755.462 523.345ZM755.314 524.899C762.105 525.546 768.18 520.096 768.883 512.726C769.586 505.356 764.65 498.856 757.86 498.208C751.069 497.56 744.994 503.01 744.291 510.381C743.588 517.751 748.523 524.251 755.314 524.899Z" fill="#BC68CF"/>
<path fill-rule="evenodd" clip-rule="evenodd" d="M729.186 547.772C735.001 548.327 740.419 543.639 741.052 537.005C741.685 530.371 737.25 524.744 731.435 524.189C725.619 523.635 720.201 528.322 719.568 534.956C718.935 541.591 723.37 547.217 729.186 547.772ZM729.037 549.326C735.828 549.974 741.903 544.524 742.606 537.153C743.309 529.783 738.374 523.283 731.583 522.635C724.792 521.988 718.717 527.437 718.014 534.808C717.311 542.178 722.246 548.678 729.037 549.326Z" fill="#BC68CF"/>
<path d="M746.228 482.732C745.595 489.367 740.177 494.054 734.361 493.499C728.546 492.944 724.111 487.318 724.744 480.683C725.377 474.049 730.795 469.362 736.61 469.916C742.426 470.471 746.861 476.098 746.228 482.732Z" fill="#BC68CF"/>
<path d="M767.329 512.578C766.696 519.212 761.277 523.899 755.462 523.345C749.647 522.79 745.212 517.163 745.845 510.529C746.477 503.894 751.896 499.207 757.711 499.762C763.527 500.317 767.961 505.943 767.329 512.578Z" fill="#BC68CF"/>
<path d="M719.553 507.121C718.92 513.756 713.502 518.443 707.686 517.888C701.871 517.334 697.436 511.707 698.069 505.073C698.702 498.438 704.12 493.751 709.935 494.306C715.751 494.86 720.186 500.487 719.553 507.121Z" fill="#BC68CF"/>
<path d="M741.052 537.005C740.419 543.639 735.001 548.327 729.186 547.772C723.37 547.217 718.935 541.591 719.568 534.956C720.201 528.322 725.619 523.635 731.435 524.189C737.25 524.744 741.685 530.371 741.052 537.005Z" fill="#BC68CF"/>
<path d="M717.106 507.27C716.404 514.64 710.329 520.09 703.538 519.442C696.747 518.795 691.812 512.295 692.515 504.924C693.218 497.554 699.292 492.104 706.083 492.752C712.874 493.399 717.809 499.899 717.106 507.27Z" fill="#1E1F20"/>
<path fill-rule="evenodd" clip-rule="evenodd" d="M703.686 517.888C709.501 518.443 714.92 513.756 715.552 507.122C716.185 500.487 711.75 494.86 705.935 494.306C700.12 493.751 694.701 498.438 694.069 505.073C693.436 511.707 697.871 517.334 703.686 517.888ZM703.538 519.442C710.329 520.09 716.404 514.64 717.106 507.27C717.809 499.899 712.874 493.399 706.083 492.752C699.292 492.104 693.218 497.554 692.515 504.924C691.812 512.295 696.747 518.795 703.538 519.442Z" fill="#BC68CF"/>
<path d="M743.781 482.881C743.079 490.251 737.004 495.701 730.213 495.053C723.422 494.406 718.487 487.906 719.19 480.535C719.893 473.165 725.967 467.715 732.758 468.363C739.549 469.01 744.484 475.51 743.781 482.881Z" fill="#1E1F20"/>
<path fill-rule="evenodd" clip-rule="evenodd" d="M730.361 493.499C736.176 494.054 741.595 489.367 742.228 482.732C742.86 476.098 738.425 470.471 732.61 469.917C726.795 469.362 721.376 474.049 720.744 480.683C720.111 487.318 724.546 492.945 730.361 493.499ZM730.213 495.053C737.004 495.701 743.079 490.251 743.781 482.881C744.484 475.51 739.549 469.01 732.758 468.363C725.967 467.715 719.893 473.165 719.19 480.535C718.487 487.906 723.422 494.406 730.213 495.053Z" fill="#BC68CF"/>
<path d="M764.882 512.726C764.179 520.097 758.104 525.547 751.314 524.899C744.523 524.251 739.588 517.751 740.29 510.381C740.993 503.011 747.068 497.561 753.859 498.208C760.65 498.856 765.585 505.356 764.882 512.726Z" fill="#1E1F20"/>
<path fill-rule="evenodd" clip-rule="evenodd" d="M751.462 523.345C757.277 523.9 762.696 519.213 763.328 512.578C763.961 505.944 759.526 500.317 753.711 499.762C747.896 499.208 742.477 503.895 741.844 510.529C741.212 517.164 745.647 522.79 751.462 523.345ZM751.314 524.899C758.104 525.547 764.179 520.097 764.882 512.726C765.585 505.356 760.65 498.856 753.859 498.208C747.068 497.561 740.993 503.011 740.29 510.381C739.588 517.751 744.523 524.251 751.314 524.899Z" fill="#BC68CF"/>
<path d="M738.606 537.154C737.903 544.524 731.828 549.974 725.037 549.326C718.246 548.679 713.311 542.179 714.014 534.808C714.717 527.438 720.792 521.988 727.583 522.636C734.373 523.283 739.309 529.783 738.606 537.154Z" fill="#1E1F20"/>
<path fill-rule="evenodd" clip-rule="evenodd" d="M725.185 547.772C731 548.327 736.419 543.64 737.052 537.005C737.685 530.371 733.25 524.744 727.434 524.19C721.619 523.635 716.201 528.322 715.568 534.956C714.935 541.591 719.37 547.218 725.185 547.772ZM725.037 549.326C731.828 549.974 737.903 544.524 738.606 537.154C739.309 529.783 734.373 523.283 727.583 522.636C720.792 521.988 714.717 527.438 714.014 534.808C713.311 542.179 718.246 548.679 725.037 549.326Z" fill="#BC68CF"/>
<g filter="url(#filter3_d_351_4895)">
<path d="M620.506 535.488C619.249 533.212 620.075 530.348 622.351 529.091L637.463 520.746C639.739 519.489 642.603 520.315 643.86 522.592V522.592C645.117 524.868 644.291 527.732 642.015 528.989L626.903 537.334C624.627 538.591 621.763 537.764 620.506 535.488V535.488Z" fill="#1E1F20"/>
</g>
<g filter="url(#filter4_d_351_4895)">
<path fill-rule="evenodd" clip-rule="evenodd" d="M638.217 522.113L623.106 530.457C621.584 531.297 621.032 533.212 621.872 534.733C622.713 536.255 624.627 536.807 626.149 535.967L641.26 527.622C642.781 526.782 643.334 524.868 642.494 523.346C641.653 521.825 639.739 521.272 638.217 522.113ZM622.351 529.091C620.075 530.348 619.249 533.212 620.506 535.488C621.763 537.764 624.627 538.591 626.903 537.334L642.015 528.989C644.291 527.732 645.117 524.868 643.86 522.592C642.603 520.315 639.739 519.489 637.463 520.746L622.351 529.091Z" fill="#BC68CF"/>
</g>
<g filter="url(#filter5_d_351_4895)">
<path d="M657.396 539.7C656.139 537.424 656.966 534.56 659.242 533.303L674.353 524.958C676.629 523.701 679.493 524.527 680.75 526.803V526.803C682.007 529.08 681.181 531.944 678.905 533.201L663.794 541.545C661.517 542.802 658.653 541.976 657.396 539.7V539.7Z" fill="#1E1F20"/>
</g>
<g filter="url(#filter6_d_351_4895)">
<path fill-rule="evenodd" clip-rule="evenodd" d="M675.108 526.324L659.996 534.669C658.475 535.509 657.923 537.424 658.763 538.945C659.603 540.467 661.517 541.019 663.039 540.179L678.15 531.834C679.672 530.994 680.224 529.08 679.384 527.558C678.544 526.037 676.629 525.484 675.108 526.324ZM659.242 533.303C656.966 534.56 656.139 537.424 657.396 539.7C658.653 541.976 661.517 542.802 663.794 541.545L678.905 533.201C681.181 531.944 682.007 529.08 680.75 526.803C679.493 524.527 676.629 523.701 674.353 524.958L659.242 533.303Z" fill="#BC68CF"/>
</g>
<rect width="37.6165" height="42.487" transform="translate(740.384 609.224) rotate(54.957)" fill="#1E1F20"/>
<path d="M738.817 610.323C739.682 609.716 740.876 609.926 741.484 610.792L760.884 638.454C761.491 639.32 761.282 640.514 760.416 641.121V641.121C759.55 641.728 758.356 641.518 757.749 640.653L738.349 612.99C737.742 612.125 737.951 610.931 738.817 610.323V610.323Z" fill="#1E1F20"/>
<path fill-rule="evenodd" clip-rule="evenodd" d="M760.245 638.902L740.845 611.24C740.485 610.727 739.778 610.603 739.265 610.962C738.752 611.322 738.628 612.029 738.988 612.542L758.388 640.205C758.748 640.717 759.455 640.841 759.968 640.482C760.48 640.122 760.605 639.415 760.245 638.902ZM741.484 610.792C740.876 609.926 739.682 609.716 738.817 610.323C737.951 610.931 737.742 612.125 738.349 612.99L757.749 640.653C758.356 641.518 759.55 641.728 760.416 641.121C761.282 640.514 761.491 639.32 760.884 638.454L741.484 610.792Z" fill="#BC68CF"/>
<path d="M732.487 614.763C733.352 614.156 734.546 614.365 735.154 615.231L754.554 642.894C755.161 643.759 754.951 644.953 754.086 645.56V645.56C753.22 646.167 752.026 645.958 751.419 645.092L732.019 617.43C731.411 616.564 731.621 615.37 732.487 614.763V614.763Z" fill="#1E1F20"/>
<path fill-rule="evenodd" clip-rule="evenodd" d="M753.915 643.342L734.515 615.679C734.155 615.166 733.448 615.042 732.935 615.402C732.422 615.762 732.298 616.469 732.658 616.982L752.058 644.644C752.418 645.157 753.125 645.281 753.638 644.921C754.15 644.562 754.275 643.854 753.915 643.342ZM735.154 615.231C734.546 614.365 733.352 614.156 732.487 614.763C731.621 615.37 731.411 616.564 732.019 617.43L751.419 645.092C752.026 645.958 753.22 646.167 754.086 645.56C754.951 644.953 755.161 643.759 754.554 642.894L735.154 615.231Z" fill="#BC68CF"/>
<path d="M726.157 619.202C727.022 618.595 728.216 618.805 728.823 619.671L748.224 647.333C748.831 648.199 748.621 649.393 747.756 650V650C746.89 650.607 745.696 650.397 745.089 649.532L725.688 621.869C725.081 621.003 725.291 619.809 726.157 619.202V619.202Z" fill="#1E1F20"/>
<path fill-rule="evenodd" clip-rule="evenodd" d="M747.585 647.781L728.184 620.119C727.825 619.606 727.118 619.482 726.605 619.841C726.092 620.201 725.968 620.908 726.327 621.421L745.728 649.083C746.088 649.596 746.795 649.72 747.308 649.361C747.82 649.001 747.944 648.294 747.585 647.781ZM728.823 619.671C728.216 618.805 727.022 618.595 726.157 619.202C725.291 619.809 725.081 621.003 725.688 621.869L745.089 649.532C745.696 650.397 746.89 650.607 747.756 650C748.621 649.393 748.831 648.199 748.224 647.333L728.823 619.671Z" fill="#BC68CF"/>
<path d="M719.827 623.642C720.693 623.035 721.887 623.244 722.494 624.11L741.894 651.772C742.501 652.638 742.292 653.832 741.426 654.439V654.439C740.56 655.046 739.366 654.837 738.759 653.971L719.359 626.309C718.752 625.443 718.961 624.249 719.827 623.642V623.642Z" fill="#1E1F20"/>
<path fill-rule="evenodd" clip-rule="evenodd" d="M741.255 652.221L721.855 624.558C721.495 624.045 720.788 623.921 720.275 624.281C719.762 624.64 719.638 625.348 719.998 625.86L739.398 653.523C739.758 654.036 740.465 654.16 740.978 653.8C741.491 653.441 741.615 652.733 741.255 652.221ZM722.494 624.11C721.887 623.244 720.693 623.035 719.827 623.642C718.961 624.249 718.752 625.443 719.359 626.309L738.759 653.971C739.366 654.837 740.56 655.046 741.426 654.439C742.292 653.832 742.501 652.638 741.894 651.772L722.494 624.11Z" fill="#BC68CF"/>
<path d="M713.496 628.081C714.362 627.474 715.556 627.683 716.163 628.549L735.564 656.211C736.171 657.077 735.961 658.271 735.096 658.878V658.878C734.23 659.485 733.036 659.276 732.429 658.41L713.028 630.748C712.421 629.882 712.631 628.688 713.496 628.081V628.081Z" fill="#1E1F20"/>
<path fill-rule="evenodd" clip-rule="evenodd" d="M734.925 656.66L715.524 628.997C715.165 628.484 714.457 628.36 713.945 628.72C713.432 629.079 713.308 629.787 713.667 630.299L733.068 657.962C733.427 658.475 734.135 658.599 734.647 658.239C735.16 657.88 735.284 657.172 734.925 656.66ZM716.163 628.549C715.556 627.683 714.362 627.474 713.496 628.081C712.631 628.688 712.421 629.882 713.028 630.748L732.429 658.41C733.036 659.276 734.23 659.485 735.096 658.878C735.961 658.271 736.171 657.077 735.564 656.211L716.163 628.549Z" fill="#BC68CF"/>
<path d="M707.167 632.52C708.032 631.913 709.226 632.123 709.833 632.988L729.234 660.651C729.841 661.517 729.631 662.711 728.766 663.318V663.318C727.9 663.925 726.706 663.715 726.099 662.849L706.698 635.187C706.091 634.321 706.301 633.127 707.167 632.52V632.52Z" fill="#1E1F20"/>
<path fill-rule="evenodd" clip-rule="evenodd" d="M728.595 661.099L709.194 633.437C708.835 632.924 708.128 632.8 707.615 633.159C707.102 633.519 706.978 634.226 707.338 634.739L726.738 662.401C727.098 662.914 727.805 663.038 728.318 662.679C728.83 662.319 728.954 661.612 728.595 661.099ZM709.833 632.988C709.226 632.123 708.032 631.913 707.167 632.52C706.301 633.127 706.091 634.321 706.698 635.187L726.099 662.849C726.706 663.715 727.9 663.925 728.766 663.318C729.631 662.711 729.841 661.517 729.234 660.651L709.833 632.988Z" fill="#BC68CF"/>
<path fill-rule="evenodd" clip-rule="evenodd" d="M803.209 506.702C803.638 506.743 803.953 507.124 803.912 507.553L800.161 546.884C800.12 547.314 799.739 547.628 799.31 547.587C798.88 547.546 798.566 547.165 798.607 546.736L802.358 507.405C802.399 506.976 802.78 506.661 803.209 506.702Z" fill="#BC68CF"/>
<g filter="url(#filter7_d_351_4895)">
<path d="M823.686 268.537C823.87 266.607 825.583 265.192 827.513 265.376V265.376C829.443 265.56 830.858 267.273 830.674 269.203L828.666 290.258C828.482 292.188 826.768 293.603 824.839 293.419V293.419C822.909 293.235 821.494 291.521 821.678 289.591L823.686 268.537Z" fill="#1E1F20"/>
</g>
<g filter="url(#filter8_d_351_4895)">
<path fill-rule="evenodd" clip-rule="evenodd" d="M827.112 290.11L829.12 269.055C829.222 267.983 828.436 267.032 827.365 266.93C826.293 266.827 825.342 267.613 825.24 268.685L823.232 289.74C823.129 290.811 823.915 291.763 824.987 291.865C826.058 291.967 827.01 291.181 827.112 290.11ZM827.513 265.376C825.583 265.192 823.87 266.607 823.686 268.537L821.678 289.591C821.494 291.521 822.909 293.235 824.839 293.419C826.768 293.603 828.482 292.188 828.666 290.258L830.674 269.203C830.858 267.273 829.443 265.56 827.513 265.376Z" fill="#BC68CF"/>
</g>
<g filter="url(#filter9_d_351_4895)">
<path d="M818.351 314.401C818.535 312.471 820.248 311.056 822.178 311.24V311.24C824.108 311.424 825.523 313.138 825.339 315.067L824.414 324.764C824.23 326.694 822.517 328.109 820.587 327.925V327.925C818.657 327.741 817.242 326.027 817.426 324.097L818.351 314.401Z" fill="#1E1F20"/>
</g>
<g filter="url(#filter10_d_351_4895)">
<path fill-rule="evenodd" clip-rule="evenodd" d="M822.86 324.616L823.785 314.919C823.887 313.848 823.101 312.896 822.03 312.794C820.958 312.692 820.007 313.478 819.905 314.549L818.98 324.246C818.878 325.317 819.664 326.269 820.735 326.371C821.807 326.473 822.758 325.687 822.86 324.616ZM822.178 311.24C820.248 311.056 818.535 312.471 818.351 314.401L817.426 324.097C817.242 326.027 818.657 327.741 820.587 327.925C822.517 328.109 824.23 326.694 824.414 324.764L825.339 315.067C825.523 313.138 824.108 311.424 822.178 311.24Z" fill="#BC68CF"/>
</g>
<path d="M545.138 419.236L563.769 223.881C563.926 222.243 565.326 221.007 566.971 221.056L801.88 228.09C803.683 228.144 805.066 229.71 804.894 231.507L784.81 442.095C784.646 443.811 783.122 445.07 781.406 444.906L547.949 422.641C546.233 422.477 544.974 420.953 545.138 419.236Z" fill="#1E1F20" stroke="#BC68CF" stroke-width="1.561" stroke-linecap="round"/>
<path d="M594.478 624.611C610.369 624.811 623.436 610.275 623.665 592.144C623.893 574.012 611.197 559.152 595.306 558.951C583.943 558.808 574.023 566.2 569.209 577.054L566.264 595.249C567.72 611.598 579.722 624.425 594.478 624.611Z" fill="#1E1F20"/>
<path fill-rule="evenodd" clip-rule="evenodd" d="M594.498 623.05C609.339 623.237 621.884 609.593 622.104 592.124C622.324 574.655 610.128 560.699 595.286 560.512C584.719 560.379 575.355 567.216 570.718 577.505L567.837 595.303C569.314 610.939 580.767 622.877 594.498 623.05ZM566.264 595.249L569.209 577.054C574.023 566.2 583.943 558.808 595.306 558.951C611.197 559.152 623.893 574.012 623.665 592.144C623.436 610.275 610.369 624.811 594.478 624.611C579.722 624.425 567.72 611.598 566.264 595.249Z" fill="#BC68CF"/>
<path d="M612.051 591.527C612.759 581.101 606.806 571.896 598.113 568.81L594.321 612.31C603.749 610.787 611.322 602.279 612.051 591.527Z" fill="#1E1F20"/>
<path fill-rule="evenodd" clip-rule="evenodd" d="M596.733 566.664L598.635 567.339C608.045 570.679 614.359 580.571 613.609 591.632C612.835 603.037 604.784 612.201 594.569 613.851L592.591 614.17L596.733 566.664ZM598.113 568.81L594.32 612.31C594.859 612.223 595.391 612.113 595.916 611.982C604.591 609.808 611.363 601.665 612.051 591.527C612.717 581.717 607.487 572.989 599.627 569.421C599.132 569.196 598.627 568.992 598.113 568.81Z" fill="#BC68CF"/>
<path d="M609.633 591.244C608.675 605.364 597.943 616.134 585.662 615.301C573.382 614.468 564.203 602.346 565.161 588.226C566.119 574.106 576.851 563.335 589.132 564.169C601.413 565.002 610.592 577.124 609.633 591.244Z" fill="#1E1F20"/>
<path fill-rule="evenodd" clip-rule="evenodd" d="M585.768 613.744C596.992 614.505 607.162 604.609 608.076 591.138C608.99 577.667 600.25 566.488 589.026 565.726C577.803 564.964 567.633 574.861 566.719 588.332C565.804 601.803 574.544 612.982 585.768 613.744ZM585.662 615.301C597.943 616.134 608.675 605.364 609.633 591.244C610.592 577.124 601.413 565.002 589.132 564.169C576.851 563.335 566.119 574.106 565.161 588.226C564.203 602.346 573.382 614.468 585.662 615.301Z" fill="#BC68CF"/>
<path d="M603.248 590.855C602.46 602.458 593.96 611.33 584.261 610.672C574.563 610.014 567.339 600.074 568.127 588.471C568.914 576.868 577.414 567.996 587.113 568.654C596.811 569.312 604.035 579.252 603.248 590.855Z" fill="#1E1F20"/>
<path fill-rule="evenodd" clip-rule="evenodd" d="M584.367 609.115C592.955 609.697 600.943 601.765 601.69 590.749C602.438 579.733 595.595 570.794 587.007 570.211C578.419 569.629 570.432 577.561 569.684 588.577C568.936 599.593 575.779 608.532 584.367 609.115ZM584.261 610.672C593.96 611.33 602.46 602.458 603.248 590.855C604.035 579.252 596.811 569.312 587.113 568.654C577.414 567.996 568.914 576.868 568.127 588.471C567.339 600.074 574.563 610.014 584.261 610.672Z" fill="#BC68CF"/>
</g>
<path d="M921.075 266.597H925.475V279.797H921.075V284.197H916.675V288.597H912.275V292.997H907.875V297.397H903.475V292.997H899.075V288.597H894.675V284.197H890.275V279.797H885.875V266.597H890.275V262.197H903.475V266.597H907.875V262.197H921.075V266.597Z" fill="#E4B8E9"/>
<path d="M961.928 294.382H965.528V305.182H961.928V308.782H958.328V312.382H954.728V315.982H951.128V319.582H947.528V315.982H943.928V312.382H940.328V308.782H936.728V305.182H933.128V294.382H936.728V290.782H947.528V294.382H951.128V290.782H961.928V294.382Z" fill="#E4B8E9"/>
<path d="M987.128 225.397H993.128V243.397H987.128V249.397H981.128V255.397H975.128V261.397H969.128V267.397H963.128V261.397H957.128V255.397H951.128V249.397H945.128V243.397H939.128V225.397H945.128V219.397H963.128V225.397H969.128V219.397H987.128V225.397Z" fill="#E4B8E9"/>
<defs>
<filter id="filter0_d_351_4895" x="436.662" y="131.234" width="484.361" height="634.047" filterUnits="userSpaceOnUse" color-interpolation-filters="sRGB">
<feFlood flood-opacity="0" result="BackgroundImageFix"/>
<feColorMatrix in="SourceAlpha" type="matrix" values="0 0 0 0 0 0 0 0 0 0 0 0 0 0 0 0 0 0 127 0" result="hardAlpha"/>
<feOffset/>
<feGaussianBlur stdDeviation="40.89"/>
<feComposite in2="hardAlpha" operator="out"/>
<feColorMatrix type="matrix" values="0 0 0 0 0.737255 0 0 0 0 0.407843 0 0 0 0 0.811765 0 0 0 0.4 0"/>
<feBlend mode="normal" in2="BackgroundImageFix" result="effect1_dropShadow_351_4895"/>
<feBlend mode="normal" in="SourceGraphic" in2="effect1_dropShadow_351_4895" result="shape"/>
</filter>
<filter id="filter1_d_351_4895" x="648.917" y="466.209" width="15.6005" height="15.2148" filterUnits="userSpaceOnUse" color-interpolation-filters="sRGB">
<feFlood flood-opacity="0" result="BackgroundImageFix"/>
<feColorMatrix in="SourceAlpha" type="matrix" values="0 0 0 0 0 0 0 0 0 0 0 0 0 0 0 0 0 0 127 0" result="hardAlpha"/>
<feOffset dx="1.561"/>
<feComposite in2="hardAlpha" operator="out"/>
<feColorMatrix type="matrix" values="0 0 0 0 0.737255 0 0 0 0 0.407843 0 0 0 0 0.811765 0 0 0 1 0"/>
<feBlend mode="normal" in2="BackgroundImageFix" result="effect1_dropShadow_351_4895"/>
<feBlend mode="normal" in="SourceGraphic" in2="effect1_dropShadow_351_4895" result="shape"/>
</filter>
<filter id="filter2_d_351_4895" x="648.917" y="466.209" width="15.6005" height="15.2148" filterUnits="userSpaceOnUse" color-interpolation-filters="sRGB">
<feFlood flood-opacity="0" result="BackgroundImageFix"/>
<feColorMatrix in="SourceAlpha" type="matrix" values="0 0 0 0 0 0 0 0 0 0 0 0 0 0 0 0 0 0 127 0" result="hardAlpha"/>
<feOffset dx="1.561"/>
<feComposite in2="hardAlpha" operator="out"/>
<feColorMatrix type="matrix" values="0 0 0 0 0.737255 0 0 0 0 0.407843 0 0 0 0 0.811765 0 0 0 1 0"/>
<feBlend mode="normal" in2="BackgroundImageFix" result="effect1_dropShadow_351_4895"/>
<feBlend mode="normal" in="SourceGraphic" in2="effect1_dropShadow_351_4895" result="shape"/>
</filter>
<filter id="filter3_d_351_4895" x="619.918" y="520.159" width="26.09" height="18.5427" filterUnits="userSpaceOnUse" color-interpolation-filters="sRGB">
<feFlood flood-opacity="0" result="BackgroundImageFix"/>
<feColorMatrix in="SourceAlpha" type="matrix" values="0 0 0 0 0 0 0 0 0 0 0 0 0 0 0 0 0 0 127 0" result="hardAlpha"/>
<feOffset dx="1.561" dy="0.780498"/>
<feComposite in2="hardAlpha" operator="out"/>
<feColorMatrix type="matrix" values="0 0 0 0 0.737255 0 0 0 0 0.407843 0 0 0 0 0.811765 0 0 0 1 0"/>
<feBlend mode="normal" in2="BackgroundImageFix" result="effect1_dropShadow_351_4895"/>
<feBlend mode="normal" in="SourceGraphic" in2="effect1_dropShadow_351_4895" result="shape"/>
</filter>
<filter id="filter4_d_351_4895" x="619.918" y="520.159" width="26.09" height="18.5427" filterUnits="userSpaceOnUse" color-interpolation-filters="sRGB">
<feFlood flood-opacity="0" result="BackgroundImageFix"/>
<feColorMatrix in="SourceAlpha" type="matrix" values="0 0 0 0 0 0 0 0 0 0 0 0 0 0 0 0 0 0 127 0" result="hardAlpha"/>
<feOffset dx="1.561" dy="0.780498"/>
<feComposite in2="hardAlpha" operator="out"/>
<feColorMatrix type="matrix" values="0 0 0 0 0.737255 0 0 0 0 0.407843 0 0 0 0 0.811765 0 0 0 1 0"/>
<feBlend mode="normal" in2="BackgroundImageFix" result="effect1_dropShadow_351_4895"/>
<feBlend mode="normal" in="SourceGraphic" in2="effect1_dropShadow_351_4895" result="shape"/>
</filter>
<filter id="filter5_d_351_4895" x="656.809" y="524.371" width="26.09" height="18.5427" filterUnits="userSpaceOnUse" color-interpolation-filters="sRGB">
<feFlood flood-opacity="0" result="BackgroundImageFix"/>
<feColorMatrix in="SourceAlpha" type="matrix" values="0 0 0 0 0 0 0 0 0 0 0 0 0 0 0 0 0 0 127 0" result="hardAlpha"/>
<feOffset dx="1.561" dy="0.780498"/>
<feComposite in2="hardAlpha" operator="out"/>
<feColorMatrix type="matrix" values="0 0 0 0 0.737255 0 0 0 0 0.407843 0 0 0 0 0.811765 0 0 0 1 0"/>
<feBlend mode="normal" in2="BackgroundImageFix" result="effect1_dropShadow_351_4895"/>
<feBlend mode="normal" in="SourceGraphic" in2="effect1_dropShadow_351_4895" result="shape"/>
</filter>
<filter id="filter6_d_351_4895" x="656.809" y="524.371" width="26.09" height="18.5427" filterUnits="userSpaceOnUse" color-interpolation-filters="sRGB">
<feFlood flood-opacity="0" result="BackgroundImageFix"/>
<feColorMatrix in="SourceAlpha" type="matrix" values="0 0 0 0 0 0 0 0 0 0 0 0 0 0 0 0 0 0 127 0" result="hardAlpha"/>
<feOffset dx="1.561" dy="0.780498"/>
<feComposite in2="hardAlpha" operator="out"/>
<feColorMatrix type="matrix" values="0 0 0 0 0.737255 0 0 0 0 0.407843 0 0 0 0 0.811765 0 0 0 1 0"/>
<feBlend mode="normal" in2="BackgroundImageFix" result="effect1_dropShadow_351_4895"/>
<feBlend mode="normal" in="SourceGraphic" in2="effect1_dropShadow_351_4895" result="shape"/>
</filter>
<filter id="filter7_d_351_4895" x="820.101" y="265.36" width="10.5896" height="28.0752" filterUnits="userSpaceOnUse" color-interpolation-filters="sRGB">
<feFlood flood-opacity="0" result="BackgroundImageFix"/>
<feColorMatrix in="SourceAlpha" type="matrix" values="0 0 0 0 0 0 0 0 0 0 0 0 0 0 0 0 0 0 127 0" result="hardAlpha"/>
<feOffset dx="-1.561"/>
<feComposite in2="hardAlpha" operator="out"/>
<feColorMatrix type="matrix" values="0 0 0 0 0.737255 0 0 0 0 0.407843 0 0 0 0 0.811765 0 0 0 1 0"/>
<feBlend mode="normal" in2="BackgroundImageFix" result="effect1_dropShadow_351_4895"/>
<feBlend mode="normal" in="SourceGraphic" in2="effect1_dropShadow_351_4895" result="shape"/>
</filter>
<filter id="filter8_d_351_4895" x="820.101" y="265.36" width="10.5896" height="28.0752" filterUnits="userSpaceOnUse" color-interpolation-filters="sRGB">
<feFlood flood-opacity="0" result="BackgroundImageFix"/>
<feColorMatrix in="SourceAlpha" type="matrix" values="0 0 0 0 0 0 0 0 0 0 0 0 0 0 0 0 0 0 127 0" result="hardAlpha"/>
<feOffset dx="-1.561"/>
<feComposite in2="hardAlpha" operator="out"/>
<feColorMatrix type="matrix" values="0 0 0 0 0.737255 0 0 0 0 0.407843 0 0 0 0 0.811765 0 0 0 1 0"/>
<feBlend mode="normal" in2="BackgroundImageFix" result="effect1_dropShadow_351_4895"/>
<feBlend mode="normal" in="SourceGraphic" in2="effect1_dropShadow_351_4895" result="shape"/>
</filter>
<filter id="filter9_d_351_4895" x="815.849" y="311.224" width="9.50631" height="16.7168" filterUnits="userSpaceOnUse" color-interpolation-filters="sRGB">
<feFlood flood-opacity="0" result="BackgroundImageFix"/>
<feColorMatrix in="SourceAlpha" type="matrix" values="0 0 0 0 0 0 0 0 0 0 0 0 0 0 0 0 0 0 127 0" result="hardAlpha"/>
<feOffset dx="-1.561"/>
<feComposite in2="hardAlpha" operator="out"/>
<feColorMatrix type="matrix" values="0 0 0 0 0.737255 0 0 0 0 0.407843 0 0 0 0 0.811765 0 0 0 1 0"/>
<feBlend mode="normal" in2="BackgroundImageFix" result="effect1_dropShadow_351_4895"/>
<feBlend mode="normal" in="SourceGraphic" in2="effect1_dropShadow_351_4895" result="shape"/>
</filter>
<filter id="filter10_d_351_4895" x="815.849" y="311.224" width="9.50631" height="16.7168" filterUnits="userSpaceOnUse" color-interpolation-filters="sRGB">
<feFlood flood-opacity="0" result="BackgroundImageFix"/>
<feColorMatrix in="SourceAlpha" type="matrix" values="0 0 0 0 0 0 0 0 0 0 0 0 0 0 0 0 0 0 127 0" result="hardAlpha"/>
<feOffset dx="-1.561"/>
<feComposite in2="hardAlpha" operator="out"/>
<feColorMatrix type="matrix" values="0 0 0 0 0.737255 0 0 0 0 0.407843 0 0 0 0 0.811765 0 0 0 1 0"/>
<feBlend mode="normal" in2="BackgroundImageFix" result="effect1_dropShadow_351_4895"/>
<feBlend mode="normal" in="SourceGraphic" in2="effect1_dropShadow_351_4895" result="shape"/>
</filter>
</defs>
</svg>
