<svg width="40" height="40" viewBox="0 0 40 40" fill="none" xmlns="http://www.w3.org/2000/svg">
<path d="M20 9.99984C25.895 9.99984 31.395 12.2548 35.4884 16.3482L37.845 13.9915C33.1234 9.26817 26.785 6.6665 20 6.6665C13.215 6.66817 6.8767 9.26817 2.15503 13.9915L4.5117 16.3482C8.60503 12.2548 14.105 9.99984 20 9.99984ZM29.4517 23.8448C24.3284 18.7215 15.6717 18.7215 10.5484 23.8448L12.905 26.2015C16.75 22.3565 23.25 22.3565 27.095 26.2015L29.4517 23.8448Z" fill="white"/>
<path d="M34.0616 18.8215C26.4416 11.1982 13.5599 11.1982 5.93994 18.8215L8.29661 21.1782C14.6416 14.8332 25.3599 14.8332 31.7049 21.1782L34.0616 18.8215Z" fill="white"/>
<path d="M20 33.3332C21.8409 33.3332 23.3333 31.8408 23.3333 29.9998C23.3333 28.1589 21.8409 26.6665 20 26.6665C18.159 26.6665 16.6666 28.1589 16.6666 29.9998C16.6666 31.8408 18.159 33.3332 20 33.3332Z" fill="white"/>
</svg>
